<?xml version="1.0" encoding="utf-8" standalone="no"?>
<!DOCTYPE svg PUBLIC "-//W3C//DTD SVG 1.1//EN"
  "http://www.w3.org/Graphics/SVG/1.1/DTD/svg11.dtd">
<!-- Created with matplotlib (https://matplotlib.org/) -->
<svg height="352pt" version="1.1" viewBox="0 0 992 352" width="992pt" xmlns="http://www.w3.org/2000/svg" xmlns:xlink="http://www.w3.org/1999/xlink">
 <metadata>
  <rdf:RDF xmlns:cc="http://creativecommons.org/ns#" xmlns:dc="http://purl.org/dc/elements/1.1/" xmlns:rdf="http://www.w3.org/1999/02/22-rdf-syntax-ns#">
   <cc:Work>
    <dc:type rdf:resource="http://purl.org/dc/dcmitype/StillImage"/>
    <dc:date>2022-03-21T07:52:27.049814</dc:date>
    <dc:format>image/svg+xml</dc:format>
    <dc:creator>
     <cc:Agent>
      <dc:title>Matplotlib v3.3.2, https://matplotlib.org/</dc:title>
     </cc:Agent>
    </dc:creator>
   </cc:Work>
  </rdf:RDF>
 </metadata>
 <defs>
  <style type="text/css">*{stroke-linecap:butt;stroke-linejoin:round;}</style>
 </defs>
 <g id="figure_1">
  <g id="patch_1">
   <path d="M 0 352 
L 992 352 
L 992 0 
L 0 0 
z
" style="fill:none;"/>
  </g>
  <g id="axes_1">
   <g id="patch_2">
    <path clip-path="url(#pd13eb875f9)" d="M 124 302.822857 
L 892.8 302.822857 
L 892.8 285.565714 
L 124 285.565714 
z
" style="fill-opacity:0.05098;"/>
   </g>
   <g id="patch_3">
    <path clip-path="url(#pd13eb875f9)" d="M 124 259.68 
L 892.8 259.68 
L 892.8 242.422857 
L 124 242.422857 
z
" style="fill-opacity:0.05098;"/>
   </g>
   <g id="patch_4">
    <path clip-path="url(#pd13eb875f9)" d="M 124 216.537143 
L 892.8 216.537143 
L 892.8 199.28 
L 124 199.28 
z
" style="fill-opacity:0.05098;"/>
   </g>
   <g id="matplotlib.axis_1"/>
   <g id="matplotlib.axis_2">
    <g id="ytick_1"/>
    <g id="ytick_2"/>
    <g id="ytick_3"/>
    <g id="ytick_4"/>
    <g id="ytick_5"/>
   </g>
  </g>
  <g id="axes_2">
   <g id="matplotlib.axis_3">
    <g id="ytick_6">
     <g id="line2d_1"/>
     <g id="text_1">
      <!-- pRCC -->
      <g transform="translate(218.40777 297.993504)scale(0.1 -0.1)">
       <defs>
        <path d="M 18.109375 8.203125 
L 18.109375 -20.796875 
L 9.078125 -20.796875 
L 9.078125 54.6875 
L 18.109375 54.6875 
L 18.109375 46.390625 
Q 20.953125 51.265625 25.265625 53.625 
Q 29.59375 56 35.59375 56 
Q 45.5625 56 51.78125 48.09375 
Q 58.015625 40.1875 58.015625 27.296875 
Q 58.015625 14.40625 51.78125 6.484375 
Q 45.5625 -1.421875 35.59375 -1.421875 
Q 29.59375 -1.421875 25.265625 0.953125 
Q 20.953125 3.328125 18.109375 8.203125 
z
M 48.6875 27.296875 
Q 48.6875 37.203125 44.609375 42.84375 
Q 40.53125 48.484375 33.40625 48.484375 
Q 26.265625 48.484375 22.1875 42.84375 
Q 18.109375 37.203125 18.109375 27.296875 
Q 18.109375 17.390625 22.1875 11.75 
Q 26.265625 6.109375 33.40625 6.109375 
Q 40.53125 6.109375 44.609375 11.75 
Q 48.6875 17.390625 48.6875 27.296875 
z
" id="DejaVuSans-112"/>
        <path d="M 44.390625 34.1875 
Q 47.5625 33.109375 50.5625 29.59375 
Q 53.5625 26.078125 56.59375 19.921875 
L 66.609375 0 
L 56 0 
L 46.6875 18.703125 
Q 43.0625 26.03125 39.671875 28.421875 
Q 36.28125 30.8125 30.421875 30.8125 
L 19.671875 30.8125 
L 19.671875 0 
L 9.8125 0 
L 9.8125 72.90625 
L 32.078125 72.90625 
Q 44.578125 72.90625 50.734375 67.671875 
Q 56.890625 62.453125 56.890625 51.90625 
Q 56.890625 45.015625 53.6875 40.46875 
Q 50.484375 35.9375 44.390625 34.1875 
z
M 19.671875 64.796875 
L 19.671875 38.921875 
L 32.078125 38.921875 
Q 39.203125 38.921875 42.84375 42.21875 
Q 46.484375 45.515625 46.484375 51.90625 
Q 46.484375 58.296875 42.84375 61.546875 
Q 39.203125 64.796875 32.078125 64.796875 
z
" id="DejaVuSans-82"/>
        <path d="M 64.40625 67.28125 
L 64.40625 56.890625 
Q 59.421875 61.53125 53.78125 63.8125 
Q 48.140625 66.109375 41.796875 66.109375 
Q 29.296875 66.109375 22.65625 58.46875 
Q 16.015625 50.828125 16.015625 36.375 
Q 16.015625 21.96875 22.65625 14.328125 
Q 29.296875 6.6875 41.796875 6.6875 
Q 48.140625 6.6875 53.78125 8.984375 
Q 59.421875 11.28125 64.40625 15.921875 
L 64.40625 5.609375 
Q 59.234375 2.09375 53.4375 0.328125 
Q 47.65625 -1.421875 41.21875 -1.421875 
Q 24.65625 -1.421875 15.125 8.703125 
Q 5.609375 18.84375 5.609375 36.375 
Q 5.609375 53.953125 15.125 64.078125 
Q 24.65625 74.21875 41.21875 74.21875 
Q 47.75 74.21875 53.53125 72.484375 
Q 59.328125 70.75 64.40625 67.28125 
z
" id="DejaVuSans-67"/>
       </defs>
       <use xlink:href="#DejaVuSans-112"/>
       <use x="63.476562" xlink:href="#DejaVuSans-82"/>
       <use x="127.958984" xlink:href="#DejaVuSans-67"/>
       <use x="197.783203" xlink:href="#DejaVuSans-67"/>
      </g>
     </g>
    </g>
    <g id="ytick_7">
     <g id="line2d_2"/>
     <g id="text_2">
      <!-- ccRCC -->
      <g transform="translate(213.759333 276.422076)scale(0.1 -0.1)">
       <defs>
        <path d="M 48.78125 52.59375 
L 48.78125 44.1875 
Q 44.96875 46.296875 41.140625 47.34375 
Q 37.3125 48.390625 33.40625 48.390625 
Q 24.65625 48.390625 19.8125 42.84375 
Q 14.984375 37.3125 14.984375 27.296875 
Q 14.984375 17.28125 19.8125 11.734375 
Q 24.65625 6.203125 33.40625 6.203125 
Q 37.3125 6.203125 41.140625 7.25 
Q 44.96875 8.296875 48.78125 10.40625 
L 48.78125 2.09375 
Q 45.015625 0.34375 40.984375 -0.53125 
Q 36.96875 -1.421875 32.421875 -1.421875 
Q 20.0625 -1.421875 12.78125 6.34375 
Q 5.515625 14.109375 5.515625 27.296875 
Q 5.515625 40.671875 12.859375 48.328125 
Q 20.21875 56 33.015625 56 
Q 37.15625 56 41.109375 55.140625 
Q 45.0625 54.296875 48.78125 52.59375 
z
" id="DejaVuSans-99"/>
       </defs>
       <use xlink:href="#DejaVuSans-99"/>
       <use x="54.980469" xlink:href="#DejaVuSans-99"/>
       <use x="109.960938" xlink:href="#DejaVuSans-82"/>
       <use x="174.443359" xlink:href="#DejaVuSans-67"/>
       <use x="244.267578" xlink:href="#DejaVuSans-67"/>
      </g>
     </g>
    </g>
    <g id="ytick_8">
     <g id="line2d_3"/>
     <g id="text_3">
      <!-- chRCC -->
      <g transform="translate(212.92027 254.850647)scale(0.1 -0.1)">
       <defs>
        <path d="M 54.890625 33.015625 
L 54.890625 0 
L 45.90625 0 
L 45.90625 32.71875 
Q 45.90625 40.484375 42.875 44.328125 
Q 39.84375 48.1875 33.796875 48.1875 
Q 26.515625 48.1875 22.3125 43.546875 
Q 18.109375 38.921875 18.109375 30.90625 
L 18.109375 0 
L 9.078125 0 
L 9.078125 75.984375 
L 18.109375 75.984375 
L 18.109375 46.1875 
Q 21.34375 51.125 25.703125 53.5625 
Q 30.078125 56 35.796875 56 
Q 45.21875 56 50.046875 50.171875 
Q 54.890625 44.34375 54.890625 33.015625 
z
" id="DejaVuSans-104"/>
       </defs>
       <use xlink:href="#DejaVuSans-99"/>
       <use x="54.980469" xlink:href="#DejaVuSans-104"/>
       <use x="118.359375" xlink:href="#DejaVuSans-82"/>
       <use x="182.841797" xlink:href="#DejaVuSans-67"/>
       <use x="252.666016" xlink:href="#DejaVuSans-67"/>
      </g>
     </g>
    </g>
    <g id="ytick_9">
     <g id="line2d_4"/>
     <g id="text_4">
      <!-- onc -->
      <g transform="translate(227.215583 233.279219)scale(0.1 -0.1)">
       <defs>
        <path d="M 30.609375 48.390625 
Q 23.390625 48.390625 19.1875 42.75 
Q 14.984375 37.109375 14.984375 27.296875 
Q 14.984375 17.484375 19.15625 11.84375 
Q 23.34375 6.203125 30.609375 6.203125 
Q 37.796875 6.203125 41.984375 11.859375 
Q 46.1875 17.53125 46.1875 27.296875 
Q 46.1875 37.015625 41.984375 42.703125 
Q 37.796875 48.390625 30.609375 48.390625 
z
M 30.609375 56 
Q 42.328125 56 49.015625 48.375 
Q 55.71875 40.765625 55.71875 27.296875 
Q 55.71875 13.875 49.015625 6.21875 
Q 42.328125 -1.421875 30.609375 -1.421875 
Q 18.84375 -1.421875 12.171875 6.21875 
Q 5.515625 13.875 5.515625 27.296875 
Q 5.515625 40.765625 12.171875 48.375 
Q 18.84375 56 30.609375 56 
z
" id="DejaVuSans-111"/>
        <path d="M 54.890625 33.015625 
L 54.890625 0 
L 45.90625 0 
L 45.90625 32.71875 
Q 45.90625 40.484375 42.875 44.328125 
Q 39.84375 48.1875 33.796875 48.1875 
Q 26.515625 48.1875 22.3125 43.546875 
Q 18.109375 38.921875 18.109375 30.90625 
L 18.109375 0 
L 9.078125 0 
L 9.078125 54.6875 
L 18.109375 54.6875 
L 18.109375 46.1875 
Q 21.34375 51.125 25.703125 53.5625 
Q 30.078125 56 35.796875 56 
Q 45.21875 56 50.046875 50.171875 
Q 54.890625 44.34375 54.890625 33.015625 
z
" id="DejaVuSans-110"/>
       </defs>
       <use xlink:href="#DejaVuSans-111"/>
       <use x="61.181641" xlink:href="#DejaVuSans-110"/>
       <use x="124.560547" xlink:href="#DejaVuSans-99"/>
      </g>
     </g>
    </g>
    <g id="ytick_10">
     <g id="line2d_5"/>
     <g id="text_5">
      <!-- normal -->
      <g transform="translate(210.131208 211.70779)scale(0.1 -0.1)">
       <defs>
        <path d="M 41.109375 46.296875 
Q 39.59375 47.171875 37.8125 47.578125 
Q 36.03125 48 33.890625 48 
Q 26.265625 48 22.1875 43.046875 
Q 18.109375 38.09375 18.109375 28.8125 
L 18.109375 0 
L 9.078125 0 
L 9.078125 54.6875 
L 18.109375 54.6875 
L 18.109375 46.1875 
Q 20.953125 51.171875 25.484375 53.578125 
Q 30.03125 56 36.53125 56 
Q 37.453125 56 38.578125 55.875 
Q 39.703125 55.765625 41.0625 55.515625 
z
" id="DejaVuSans-114"/>
        <path d="M 52 44.1875 
Q 55.375 50.25 60.0625 53.125 
Q 64.75 56 71.09375 56 
Q 79.640625 56 84.28125 50.015625 
Q 88.921875 44.046875 88.921875 33.015625 
L 88.921875 0 
L 79.890625 0 
L 79.890625 32.71875 
Q 79.890625 40.578125 77.09375 44.375 
Q 74.3125 48.1875 68.609375 48.1875 
Q 61.625 48.1875 57.5625 43.546875 
Q 53.515625 38.921875 53.515625 30.90625 
L 53.515625 0 
L 44.484375 0 
L 44.484375 32.71875 
Q 44.484375 40.625 41.703125 44.40625 
Q 38.921875 48.1875 33.109375 48.1875 
Q 26.21875 48.1875 22.15625 43.53125 
Q 18.109375 38.875 18.109375 30.90625 
L 18.109375 0 
L 9.078125 0 
L 9.078125 54.6875 
L 18.109375 54.6875 
L 18.109375 46.1875 
Q 21.1875 51.21875 25.484375 53.609375 
Q 29.78125 56 35.6875 56 
Q 41.65625 56 45.828125 52.96875 
Q 50 49.953125 52 44.1875 
z
" id="DejaVuSans-109"/>
        <path d="M 34.28125 27.484375 
Q 23.390625 27.484375 19.1875 25 
Q 14.984375 22.515625 14.984375 16.5 
Q 14.984375 11.71875 18.140625 8.90625 
Q 21.296875 6.109375 26.703125 6.109375 
Q 34.1875 6.109375 38.703125 11.40625 
Q 43.21875 16.703125 43.21875 25.484375 
L 43.21875 27.484375 
z
M 52.203125 31.203125 
L 52.203125 0 
L 43.21875 0 
L 43.21875 8.296875 
Q 40.140625 3.328125 35.546875 0.953125 
Q 30.953125 -1.421875 24.3125 -1.421875 
Q 15.921875 -1.421875 10.953125 3.296875 
Q 6 8.015625 6 15.921875 
Q 6 25.140625 12.171875 29.828125 
Q 18.359375 34.515625 30.609375 34.515625 
L 43.21875 34.515625 
L 43.21875 35.40625 
Q 43.21875 41.609375 39.140625 45 
Q 35.0625 48.390625 27.6875 48.390625 
Q 23 48.390625 18.546875 47.265625 
Q 14.109375 46.140625 10.015625 43.890625 
L 10.015625 52.203125 
Q 14.9375 54.109375 19.578125 55.046875 
Q 24.21875 56 28.609375 56 
Q 40.484375 56 46.34375 49.84375 
Q 52.203125 43.703125 52.203125 31.203125 
z
" id="DejaVuSans-97"/>
        <path d="M 9.421875 75.984375 
L 18.40625 75.984375 
L 18.40625 0 
L 9.421875 0 
z
" id="DejaVuSans-108"/>
       </defs>
       <use xlink:href="#DejaVuSans-110"/>
       <use x="63.378906" xlink:href="#DejaVuSans-111"/>
       <use x="124.560547" xlink:href="#DejaVuSans-114"/>
       <use x="163.923828" xlink:href="#DejaVuSans-109"/>
       <use x="261.335938" xlink:href="#DejaVuSans-97"/>
       <use x="322.615234" xlink:href="#DejaVuSans-108"/>
      </g>
     </g>
    </g>
   </g>
   <g id="LineCollection_1">
    <path clip-path="url(#p7e5f2ef1de)" d="M 261.05738 294.194286 
L 261.05738 272.622857 
" style="fill:none;stroke:#000000;stroke-width:2;"/>
    <path clip-path="url(#p7e5f2ef1de)" d="M 285.831601 272.622857 
L 285.831601 251.051429 
" style="fill:none;stroke:#000000;stroke-width:2;"/>
    <path clip-path="url(#p7e5f2ef1de)" d="M 310.605821 294.194286 
L 310.605821 251.051429 
" style="fill:none;stroke:#000000;stroke-width:2;"/>
    <path clip-path="url(#p7e5f2ef1de)" d="M 335.380042 294.194286 
L 335.380042 229.48 
" style="fill:none;stroke:#000000;stroke-width:2;"/>
    <path clip-path="url(#p7e5f2ef1de)" d="M 360.154262 251.051429 
L 360.154262 229.48 
" style="fill:none;stroke:#000000;stroke-width:2;"/>
    <path clip-path="url(#p7e5f2ef1de)" d="M 384.928482 294.194286 
L 384.928482 207.908571 
" style="fill:none;stroke:#000000;stroke-width:2;"/>
    <path clip-path="url(#p7e5f2ef1de)" d="M 409.702703 294.194286 
L 409.702703 251.051429 
" style="fill:none;stroke:#000000;stroke-width:2;"/>
    <path clip-path="url(#p7e5f2ef1de)" d="M 434.476923 272.622857 
L 434.476923 229.48 
" style="fill:none;stroke:#000000;stroke-width:2;"/>
    <path clip-path="url(#p7e5f2ef1de)" d="M 459.251143 272.622857 
L 459.251143 207.908571 
" style="fill:none;stroke:#000000;stroke-width:2;"/>
    <path clip-path="url(#p7e5f2ef1de)" d="M 484.025364 251.051429 
L 484.025364 207.908571 
" style="fill:none;stroke:#000000;stroke-width:2;"/>
    <path clip-path="url(#p7e5f2ef1de)" d="M 508.799584 294.194286 
L 508.799584 229.48 
" style="fill:none;stroke:#000000;stroke-width:2;"/>
    <path clip-path="url(#p7e5f2ef1de)" d="M 533.573805 294.194286 
L 533.573805 207.908571 
" style="fill:none;stroke:#000000;stroke-width:2;"/>
    <path clip-path="url(#p7e5f2ef1de)" d="M 558.348025 294.194286 
L 558.348025 229.48 
" style="fill:none;stroke:#000000;stroke-width:2;"/>
    <path clip-path="url(#p7e5f2ef1de)" d="M 583.122245 294.194286 
L 583.122245 207.908571 
" style="fill:none;stroke:#000000;stroke-width:2;"/>
    <path clip-path="url(#p7e5f2ef1de)" d="M 607.896466 272.622857 
L 607.896466 229.48 
" style="fill:none;stroke:#000000;stroke-width:2;"/>
    <path clip-path="url(#p7e5f2ef1de)" d="M 632.670686 229.48 
L 632.670686 207.908571 
" style="fill:none;stroke:#000000;stroke-width:2;"/>
    <path clip-path="url(#p7e5f2ef1de)" d="M 657.444906 272.622857 
L 657.444906 207.908571 
" style="fill:none;stroke:#000000;stroke-width:2;"/>
    <path clip-path="url(#p7e5f2ef1de)" d="M 682.219127 294.194286 
L 682.219127 207.908571 
" style="fill:none;stroke:#000000;stroke-width:2;"/>
    <path clip-path="url(#p7e5f2ef1de)" d="M 706.993347 294.194286 
L 706.993347 207.908571 
" style="fill:none;stroke:#000000;stroke-width:2;"/>
    <path clip-path="url(#p7e5f2ef1de)" d="M 731.767568 294.194286 
L 731.767568 229.48 
" style="fill:none;stroke:#000000;stroke-width:2;"/>
    <path clip-path="url(#p7e5f2ef1de)" d="M 756.541788 251.051429 
L 756.541788 207.908571 
" style="fill:none;stroke:#000000;stroke-width:2;"/>
    <path clip-path="url(#p7e5f2ef1de)" d="M 781.316008 272.622857 
L 781.316008 207.908571 
" style="fill:none;stroke:#000000;stroke-width:2;"/>
    <path clip-path="url(#p7e5f2ef1de)" d="M 806.090229 272.622857 
L 806.090229 207.908571 
" style="fill:none;stroke:#000000;stroke-width:2;"/>
    <path clip-path="url(#p7e5f2ef1de)" d="M 830.864449 294.194286 
L 830.864449 207.908571 
" style="fill:none;stroke:#000000;stroke-width:2;"/>
    <path clip-path="url(#p7e5f2ef1de)" d="M 855.638669 294.194286 
L 855.638669 207.908571 
" style="fill:none;stroke:#000000;stroke-width:2;"/>
    <path clip-path="url(#p7e5f2ef1de)" d="M 880.41289 294.194286 
L 880.41289 207.908571 
" style="fill:none;stroke:#000000;stroke-width:2;"/>
   </g>
   <g id="PathCollection_1">
    <defs>
     <path d="M 0 5.6 
C 1.485137 5.6 2.909647 5.009949 3.959798 3.959798 
C 5.009949 2.909647 5.6 1.485137 5.6 -0 
C 5.6 -1.485137 5.009949 -2.909647 3.959798 -3.959798 
C 2.909647 -5.009949 1.485137 -5.6 0 -5.6 
C -1.485137 -5.6 -2.909647 -5.009949 -3.959798 -3.959798 
C -5.009949 -2.909647 -5.6 -1.485137 -5.6 0 
C -5.6 1.485137 -5.009949 2.909647 -3.959798 3.959798 
C -2.909647 5.009949 -1.485137 5.6 0 5.6 
z
" id="C0_0_0809cd4aaa"/>
    </defs>
    <g clip-path="url(#p7e5f2ef1de)">
     <use style="stroke:#000000;" x="261.05738" xlink:href="#C0_0_0809cd4aaa" y="294.194286"/>
    </g>
    <g clip-path="url(#p7e5f2ef1de)">
     <use style="stroke:#000000;" x="261.05738" xlink:href="#C0_0_0809cd4aaa" y="272.622857"/>
    </g>
    <g clip-path="url(#p7e5f2ef1de)">
     <use style="fill-opacity:0.180392;" x="261.05738" xlink:href="#C0_0_0809cd4aaa" y="251.051429"/>
    </g>
    <g clip-path="url(#p7e5f2ef1de)">
     <use style="fill-opacity:0.180392;" x="261.05738" xlink:href="#C0_0_0809cd4aaa" y="229.48"/>
    </g>
    <g clip-path="url(#p7e5f2ef1de)">
     <use style="fill-opacity:0.180392;" x="261.05738" xlink:href="#C0_0_0809cd4aaa" y="207.908571"/>
    </g>
    <g clip-path="url(#p7e5f2ef1de)">
     <use style="fill-opacity:0.180392;" x="285.831601" xlink:href="#C0_0_0809cd4aaa" y="294.194286"/>
    </g>
    <g clip-path="url(#p7e5f2ef1de)">
     <use style="stroke:#000000;" x="285.831601" xlink:href="#C0_0_0809cd4aaa" y="272.622857"/>
    </g>
    <g clip-path="url(#p7e5f2ef1de)">
     <use style="stroke:#000000;" x="285.831601" xlink:href="#C0_0_0809cd4aaa" y="251.051429"/>
    </g>
    <g clip-path="url(#p7e5f2ef1de)">
     <use style="fill-opacity:0.180392;" x="285.831601" xlink:href="#C0_0_0809cd4aaa" y="229.48"/>
    </g>
    <g clip-path="url(#p7e5f2ef1de)">
     <use style="fill-opacity:0.180392;" x="285.831601" xlink:href="#C0_0_0809cd4aaa" y="207.908571"/>
    </g>
    <g clip-path="url(#p7e5f2ef1de)">
     <use style="stroke:#000000;" x="310.605821" xlink:href="#C0_0_0809cd4aaa" y="294.194286"/>
    </g>
    <g clip-path="url(#p7e5f2ef1de)">
     <use style="fill-opacity:0.180392;" x="310.605821" xlink:href="#C0_0_0809cd4aaa" y="272.622857"/>
    </g>
    <g clip-path="url(#p7e5f2ef1de)">
     <use style="stroke:#000000;" x="310.605821" xlink:href="#C0_0_0809cd4aaa" y="251.051429"/>
    </g>
    <g clip-path="url(#p7e5f2ef1de)">
     <use style="fill-opacity:0.180392;" x="310.605821" xlink:href="#C0_0_0809cd4aaa" y="229.48"/>
    </g>
    <g clip-path="url(#p7e5f2ef1de)">
     <use style="fill-opacity:0.180392;" x="310.605821" xlink:href="#C0_0_0809cd4aaa" y="207.908571"/>
    </g>
    <g clip-path="url(#p7e5f2ef1de)">
     <use style="stroke:#000000;" x="335.380042" xlink:href="#C0_0_0809cd4aaa" y="294.194286"/>
    </g>
    <g clip-path="url(#p7e5f2ef1de)">
     <use style="fill-opacity:0.180392;" x="335.380042" xlink:href="#C0_0_0809cd4aaa" y="272.622857"/>
    </g>
    <g clip-path="url(#p7e5f2ef1de)">
     <use style="fill-opacity:0.180392;" x="335.380042" xlink:href="#C0_0_0809cd4aaa" y="251.051429"/>
    </g>
    <g clip-path="url(#p7e5f2ef1de)">
     <use style="stroke:#000000;" x="335.380042" xlink:href="#C0_0_0809cd4aaa" y="229.48"/>
    </g>
    <g clip-path="url(#p7e5f2ef1de)">
     <use style="fill-opacity:0.180392;" x="335.380042" xlink:href="#C0_0_0809cd4aaa" y="207.908571"/>
    </g>
    <g clip-path="url(#p7e5f2ef1de)">
     <use style="fill-opacity:0.180392;" x="360.154262" xlink:href="#C0_0_0809cd4aaa" y="294.194286"/>
    </g>
    <g clip-path="url(#p7e5f2ef1de)">
     <use style="fill-opacity:0.180392;" x="360.154262" xlink:href="#C0_0_0809cd4aaa" y="272.622857"/>
    </g>
    <g clip-path="url(#p7e5f2ef1de)">
     <use style="stroke:#000000;" x="360.154262" xlink:href="#C0_0_0809cd4aaa" y="251.051429"/>
    </g>
    <g clip-path="url(#p7e5f2ef1de)">
     <use style="stroke:#000000;" x="360.154262" xlink:href="#C0_0_0809cd4aaa" y="229.48"/>
    </g>
    <g clip-path="url(#p7e5f2ef1de)">
     <use style="fill-opacity:0.180392;" x="360.154262" xlink:href="#C0_0_0809cd4aaa" y="207.908571"/>
    </g>
    <g clip-path="url(#p7e5f2ef1de)">
     <use style="stroke:#000000;" x="384.928482" xlink:href="#C0_0_0809cd4aaa" y="294.194286"/>
    </g>
    <g clip-path="url(#p7e5f2ef1de)">
     <use style="fill-opacity:0.180392;" x="384.928482" xlink:href="#C0_0_0809cd4aaa" y="272.622857"/>
    </g>
    <g clip-path="url(#p7e5f2ef1de)">
     <use style="fill-opacity:0.180392;" x="384.928482" xlink:href="#C0_0_0809cd4aaa" y="251.051429"/>
    </g>
    <g clip-path="url(#p7e5f2ef1de)">
     <use style="fill-opacity:0.180392;" x="384.928482" xlink:href="#C0_0_0809cd4aaa" y="229.48"/>
    </g>
    <g clip-path="url(#p7e5f2ef1de)">
     <use style="stroke:#000000;" x="384.928482" xlink:href="#C0_0_0809cd4aaa" y="207.908571"/>
    </g>
    <g clip-path="url(#p7e5f2ef1de)">
     <use style="stroke:#000000;" x="409.702703" xlink:href="#C0_0_0809cd4aaa" y="294.194286"/>
    </g>
    <g clip-path="url(#p7e5f2ef1de)">
     <use style="stroke:#000000;" x="409.702703" xlink:href="#C0_0_0809cd4aaa" y="272.622857"/>
    </g>
    <g clip-path="url(#p7e5f2ef1de)">
     <use style="stroke:#000000;" x="409.702703" xlink:href="#C0_0_0809cd4aaa" y="251.051429"/>
    </g>
    <g clip-path="url(#p7e5f2ef1de)">
     <use style="fill-opacity:0.180392;" x="409.702703" xlink:href="#C0_0_0809cd4aaa" y="229.48"/>
    </g>
    <g clip-path="url(#p7e5f2ef1de)">
     <use style="fill-opacity:0.180392;" x="409.702703" xlink:href="#C0_0_0809cd4aaa" y="207.908571"/>
    </g>
    <g clip-path="url(#p7e5f2ef1de)">
     <use style="fill-opacity:0.180392;" x="434.476923" xlink:href="#C0_0_0809cd4aaa" y="294.194286"/>
    </g>
    <g clip-path="url(#p7e5f2ef1de)">
     <use style="stroke:#000000;" x="434.476923" xlink:href="#C0_0_0809cd4aaa" y="272.622857"/>
    </g>
    <g clip-path="url(#p7e5f2ef1de)">
     <use style="fill-opacity:0.180392;" x="434.476923" xlink:href="#C0_0_0809cd4aaa" y="251.051429"/>
    </g>
    <g clip-path="url(#p7e5f2ef1de)">
     <use style="stroke:#000000;" x="434.476923" xlink:href="#C0_0_0809cd4aaa" y="229.48"/>
    </g>
    <g clip-path="url(#p7e5f2ef1de)">
     <use style="fill-opacity:0.180392;" x="434.476923" xlink:href="#C0_0_0809cd4aaa" y="207.908571"/>
    </g>
    <g clip-path="url(#p7e5f2ef1de)">
     <use style="fill-opacity:0.180392;" x="459.251143" xlink:href="#C0_0_0809cd4aaa" y="294.194286"/>
    </g>
    <g clip-path="url(#p7e5f2ef1de)">
     <use style="stroke:#000000;" x="459.251143" xlink:href="#C0_0_0809cd4aaa" y="272.622857"/>
    </g>
    <g clip-path="url(#p7e5f2ef1de)">
     <use style="fill-opacity:0.180392;" x="459.251143" xlink:href="#C0_0_0809cd4aaa" y="251.051429"/>
    </g>
    <g clip-path="url(#p7e5f2ef1de)">
     <use style="fill-opacity:0.180392;" x="459.251143" xlink:href="#C0_0_0809cd4aaa" y="229.48"/>
    </g>
    <g clip-path="url(#p7e5f2ef1de)">
     <use style="stroke:#000000;" x="459.251143" xlink:href="#C0_0_0809cd4aaa" y="207.908571"/>
    </g>
    <g clip-path="url(#p7e5f2ef1de)">
     <use style="fill-opacity:0.180392;" x="484.025364" xlink:href="#C0_0_0809cd4aaa" y="294.194286"/>
    </g>
    <g clip-path="url(#p7e5f2ef1de)">
     <use style="fill-opacity:0.180392;" x="484.025364" xlink:href="#C0_0_0809cd4aaa" y="272.622857"/>
    </g>
    <g clip-path="url(#p7e5f2ef1de)">
     <use style="stroke:#000000;" x="484.025364" xlink:href="#C0_0_0809cd4aaa" y="251.051429"/>
    </g>
    <g clip-path="url(#p7e5f2ef1de)">
     <use style="fill-opacity:0.180392;" x="484.025364" xlink:href="#C0_0_0809cd4aaa" y="229.48"/>
    </g>
    <g clip-path="url(#p7e5f2ef1de)">
     <use style="stroke:#000000;" x="484.025364" xlink:href="#C0_0_0809cd4aaa" y="207.908571"/>
    </g>
    <g clip-path="url(#p7e5f2ef1de)">
     <use style="stroke:#000000;" x="508.799584" xlink:href="#C0_0_0809cd4aaa" y="294.194286"/>
    </g>
    <g clip-path="url(#p7e5f2ef1de)">
     <use style="fill-opacity:0.180392;" x="508.799584" xlink:href="#C0_0_0809cd4aaa" y="272.622857"/>
    </g>
    <g clip-path="url(#p7e5f2ef1de)">
     <use style="stroke:#000000;" x="508.799584" xlink:href="#C0_0_0809cd4aaa" y="251.051429"/>
    </g>
    <g clip-path="url(#p7e5f2ef1de)">
     <use style="stroke:#000000;" x="508.799584" xlink:href="#C0_0_0809cd4aaa" y="229.48"/>
    </g>
    <g clip-path="url(#p7e5f2ef1de)">
     <use style="fill-opacity:0.180392;" x="508.799584" xlink:href="#C0_0_0809cd4aaa" y="207.908571"/>
    </g>
    <g clip-path="url(#p7e5f2ef1de)">
     <use style="stroke:#000000;" x="533.573805" xlink:href="#C0_0_0809cd4aaa" y="294.194286"/>
    </g>
    <g clip-path="url(#p7e5f2ef1de)">
     <use style="fill-opacity:0.180392;" x="533.573805" xlink:href="#C0_0_0809cd4aaa" y="272.622857"/>
    </g>
    <g clip-path="url(#p7e5f2ef1de)">
     <use style="stroke:#000000;" x="533.573805" xlink:href="#C0_0_0809cd4aaa" y="251.051429"/>
    </g>
    <g clip-path="url(#p7e5f2ef1de)">
     <use style="fill-opacity:0.180392;" x="533.573805" xlink:href="#C0_0_0809cd4aaa" y="229.48"/>
    </g>
    <g clip-path="url(#p7e5f2ef1de)">
     <use style="stroke:#000000;" x="533.573805" xlink:href="#C0_0_0809cd4aaa" y="207.908571"/>
    </g>
    <g clip-path="url(#p7e5f2ef1de)">
     <use style="stroke:#000000;" x="558.348025" xlink:href="#C0_0_0809cd4aaa" y="294.194286"/>
    </g>
    <g clip-path="url(#p7e5f2ef1de)">
     <use style="stroke:#000000;" x="558.348025" xlink:href="#C0_0_0809cd4aaa" y="272.622857"/>
    </g>
    <g clip-path="url(#p7e5f2ef1de)">
     <use style="fill-opacity:0.180392;" x="558.348025" xlink:href="#C0_0_0809cd4aaa" y="251.051429"/>
    </g>
    <g clip-path="url(#p7e5f2ef1de)">
     <use style="stroke:#000000;" x="558.348025" xlink:href="#C0_0_0809cd4aaa" y="229.48"/>
    </g>
    <g clip-path="url(#p7e5f2ef1de)">
     <use style="fill-opacity:0.180392;" x="558.348025" xlink:href="#C0_0_0809cd4aaa" y="207.908571"/>
    </g>
    <g clip-path="url(#p7e5f2ef1de)">
     <use style="stroke:#000000;" x="583.122245" xlink:href="#C0_0_0809cd4aaa" y="294.194286"/>
    </g>
    <g clip-path="url(#p7e5f2ef1de)">
     <use style="stroke:#000000;" x="583.122245" xlink:href="#C0_0_0809cd4aaa" y="272.622857"/>
    </g>
    <g clip-path="url(#p7e5f2ef1de)">
     <use style="fill-opacity:0.180392;" x="583.122245" xlink:href="#C0_0_0809cd4aaa" y="251.051429"/>
    </g>
    <g clip-path="url(#p7e5f2ef1de)">
     <use style="fill-opacity:0.180392;" x="583.122245" xlink:href="#C0_0_0809cd4aaa" y="229.48"/>
    </g>
    <g clip-path="url(#p7e5f2ef1de)">
     <use style="stroke:#000000;" x="583.122245" xlink:href="#C0_0_0809cd4aaa" y="207.908571"/>
    </g>
    <g clip-path="url(#p7e5f2ef1de)">
     <use style="fill-opacity:0.180392;" x="607.896466" xlink:href="#C0_0_0809cd4aaa" y="294.194286"/>
    </g>
    <g clip-path="url(#p7e5f2ef1de)">
     <use style="stroke:#000000;" x="607.896466" xlink:href="#C0_0_0809cd4aaa" y="272.622857"/>
    </g>
    <g clip-path="url(#p7e5f2ef1de)">
     <use style="stroke:#000000;" x="607.896466" xlink:href="#C0_0_0809cd4aaa" y="251.051429"/>
    </g>
    <g clip-path="url(#p7e5f2ef1de)">
     <use style="stroke:#000000;" x="607.896466" xlink:href="#C0_0_0809cd4aaa" y="229.48"/>
    </g>
    <g clip-path="url(#p7e5f2ef1de)">
     <use style="fill-opacity:0.180392;" x="607.896466" xlink:href="#C0_0_0809cd4aaa" y="207.908571"/>
    </g>
    <g clip-path="url(#p7e5f2ef1de)">
     <use style="fill-opacity:0.180392;" x="632.670686" xlink:href="#C0_0_0809cd4aaa" y="294.194286"/>
    </g>
    <g clip-path="url(#p7e5f2ef1de)">
     <use style="fill-opacity:0.180392;" x="632.670686" xlink:href="#C0_0_0809cd4aaa" y="272.622857"/>
    </g>
    <g clip-path="url(#p7e5f2ef1de)">
     <use style="fill-opacity:0.180392;" x="632.670686" xlink:href="#C0_0_0809cd4aaa" y="251.051429"/>
    </g>
    <g clip-path="url(#p7e5f2ef1de)">
     <use style="stroke:#000000;" x="632.670686" xlink:href="#C0_0_0809cd4aaa" y="229.48"/>
    </g>
    <g clip-path="url(#p7e5f2ef1de)">
     <use style="stroke:#000000;" x="632.670686" xlink:href="#C0_0_0809cd4aaa" y="207.908571"/>
    </g>
    <g clip-path="url(#p7e5f2ef1de)">
     <use style="fill-opacity:0.180392;" x="657.444906" xlink:href="#C0_0_0809cd4aaa" y="294.194286"/>
    </g>
    <g clip-path="url(#p7e5f2ef1de)">
     <use style="stroke:#000000;" x="657.444906" xlink:href="#C0_0_0809cd4aaa" y="272.622857"/>
    </g>
    <g clip-path="url(#p7e5f2ef1de)">
     <use style="stroke:#000000;" x="657.444906" xlink:href="#C0_0_0809cd4aaa" y="251.051429"/>
    </g>
    <g clip-path="url(#p7e5f2ef1de)">
     <use style="fill-opacity:0.180392;" x="657.444906" xlink:href="#C0_0_0809cd4aaa" y="229.48"/>
    </g>
    <g clip-path="url(#p7e5f2ef1de)">
     <use style="stroke:#000000;" x="657.444906" xlink:href="#C0_0_0809cd4aaa" y="207.908571"/>
    </g>
    <g clip-path="url(#p7e5f2ef1de)">
     <use style="stroke:#000000;" x="682.219127" xlink:href="#C0_0_0809cd4aaa" y="294.194286"/>
    </g>
    <g clip-path="url(#p7e5f2ef1de)">
     <use style="stroke:#000000;" x="682.219127" xlink:href="#C0_0_0809cd4aaa" y="272.622857"/>
    </g>
    <g clip-path="url(#p7e5f2ef1de)">
     <use style="stroke:#000000;" x="682.219127" xlink:href="#C0_0_0809cd4aaa" y="251.051429"/>
    </g>
    <g clip-path="url(#p7e5f2ef1de)">
     <use style="fill-opacity:0.180392;" x="682.219127" xlink:href="#C0_0_0809cd4aaa" y="229.48"/>
    </g>
    <g clip-path="url(#p7e5f2ef1de)">
     <use style="stroke:#000000;" x="682.219127" xlink:href="#C0_0_0809cd4aaa" y="207.908571"/>
    </g>
    <g clip-path="url(#p7e5f2ef1de)">
     <use style="stroke:#000000;" x="706.993347" xlink:href="#C0_0_0809cd4aaa" y="294.194286"/>
    </g>
    <g clip-path="url(#p7e5f2ef1de)">
     <use style="stroke:#000000;" x="706.993347" xlink:href="#C0_0_0809cd4aaa" y="272.622857"/>
    </g>
    <g clip-path="url(#p7e5f2ef1de)">
     <use style="fill-opacity:0.180392;" x="706.993347" xlink:href="#C0_0_0809cd4aaa" y="251.051429"/>
    </g>
    <g clip-path="url(#p7e5f2ef1de)">
     <use style="stroke:#000000;" x="706.993347" xlink:href="#C0_0_0809cd4aaa" y="229.48"/>
    </g>
    <g clip-path="url(#p7e5f2ef1de)">
     <use style="stroke:#000000;" x="706.993347" xlink:href="#C0_0_0809cd4aaa" y="207.908571"/>
    </g>
    <g clip-path="url(#p7e5f2ef1de)">
     <use style="stroke:#000000;" x="731.767568" xlink:href="#C0_0_0809cd4aaa" y="294.194286"/>
    </g>
    <g clip-path="url(#p7e5f2ef1de)">
     <use style="stroke:#000000;" x="731.767568" xlink:href="#C0_0_0809cd4aaa" y="272.622857"/>
    </g>
    <g clip-path="url(#p7e5f2ef1de)">
     <use style="stroke:#000000;" x="731.767568" xlink:href="#C0_0_0809cd4aaa" y="251.051429"/>
    </g>
    <g clip-path="url(#p7e5f2ef1de)">
     <use style="stroke:#000000;" x="731.767568" xlink:href="#C0_0_0809cd4aaa" y="229.48"/>
    </g>
    <g clip-path="url(#p7e5f2ef1de)">
     <use style="fill-opacity:0.180392;" x="731.767568" xlink:href="#C0_0_0809cd4aaa" y="207.908571"/>
    </g>
    <g clip-path="url(#p7e5f2ef1de)">
     <use style="fill-opacity:0.180392;" x="756.541788" xlink:href="#C0_0_0809cd4aaa" y="294.194286"/>
    </g>
    <g clip-path="url(#p7e5f2ef1de)">
     <use style="fill-opacity:0.180392;" x="756.541788" xlink:href="#C0_0_0809cd4aaa" y="272.622857"/>
    </g>
    <g clip-path="url(#p7e5f2ef1de)">
     <use style="stroke:#000000;" x="756.541788" xlink:href="#C0_0_0809cd4aaa" y="251.051429"/>
    </g>
    <g clip-path="url(#p7e5f2ef1de)">
     <use style="stroke:#000000;" x="756.541788" xlink:href="#C0_0_0809cd4aaa" y="229.48"/>
    </g>
    <g clip-path="url(#p7e5f2ef1de)">
     <use style="stroke:#000000;" x="756.541788" xlink:href="#C0_0_0809cd4aaa" y="207.908571"/>
    </g>
    <g clip-path="url(#p7e5f2ef1de)">
     <use style="fill-opacity:0.180392;" x="781.316008" xlink:href="#C0_0_0809cd4aaa" y="294.194286"/>
    </g>
    <g clip-path="url(#p7e5f2ef1de)">
     <use style="stroke:#000000;" x="781.316008" xlink:href="#C0_0_0809cd4aaa" y="272.622857"/>
    </g>
    <g clip-path="url(#p7e5f2ef1de)">
     <use style="fill-opacity:0.180392;" x="781.316008" xlink:href="#C0_0_0809cd4aaa" y="251.051429"/>
    </g>
    <g clip-path="url(#p7e5f2ef1de)">
     <use style="stroke:#000000;" x="781.316008" xlink:href="#C0_0_0809cd4aaa" y="229.48"/>
    </g>
    <g clip-path="url(#p7e5f2ef1de)">
     <use style="stroke:#000000;" x="781.316008" xlink:href="#C0_0_0809cd4aaa" y="207.908571"/>
    </g>
    <g clip-path="url(#p7e5f2ef1de)">
     <use style="fill-opacity:0.180392;" x="806.090229" xlink:href="#C0_0_0809cd4aaa" y="294.194286"/>
    </g>
    <g clip-path="url(#p7e5f2ef1de)">
     <use style="stroke:#000000;" x="806.090229" xlink:href="#C0_0_0809cd4aaa" y="272.622857"/>
    </g>
    <g clip-path="url(#p7e5f2ef1de)">
     <use style="stroke:#000000;" x="806.090229" xlink:href="#C0_0_0809cd4aaa" y="251.051429"/>
    </g>
    <g clip-path="url(#p7e5f2ef1de)">
     <use style="stroke:#000000;" x="806.090229" xlink:href="#C0_0_0809cd4aaa" y="229.48"/>
    </g>
    <g clip-path="url(#p7e5f2ef1de)">
     <use style="stroke:#000000;" x="806.090229" xlink:href="#C0_0_0809cd4aaa" y="207.908571"/>
    </g>
    <g clip-path="url(#p7e5f2ef1de)">
     <use style="stroke:#000000;" x="830.864449" xlink:href="#C0_0_0809cd4aaa" y="294.194286"/>
    </g>
    <g clip-path="url(#p7e5f2ef1de)">
     <use style="stroke:#000000;" x="830.864449" xlink:href="#C0_0_0809cd4aaa" y="272.622857"/>
    </g>
    <g clip-path="url(#p7e5f2ef1de)">
     <use style="stroke:#000000;" x="830.864449" xlink:href="#C0_0_0809cd4aaa" y="251.051429"/>
    </g>
    <g clip-path="url(#p7e5f2ef1de)">
     <use style="stroke:#000000;" x="830.864449" xlink:href="#C0_0_0809cd4aaa" y="229.48"/>
    </g>
    <g clip-path="url(#p7e5f2ef1de)">
     <use style="stroke:#000000;" x="830.864449" xlink:href="#C0_0_0809cd4aaa" y="207.908571"/>
    </g>
    <g clip-path="url(#p7e5f2ef1de)">
     <use style="stroke:#000000;" x="855.638669" xlink:href="#C0_0_0809cd4aaa" y="294.194286"/>
    </g>
    <g clip-path="url(#p7e5f2ef1de)">
     <use style="fill-opacity:0.180392;" x="855.638669" xlink:href="#C0_0_0809cd4aaa" y="272.622857"/>
    </g>
    <g clip-path="url(#p7e5f2ef1de)">
     <use style="stroke:#000000;" x="855.638669" xlink:href="#C0_0_0809cd4aaa" y="251.051429"/>
    </g>
    <g clip-path="url(#p7e5f2ef1de)">
     <use style="stroke:#000000;" x="855.638669" xlink:href="#C0_0_0809cd4aaa" y="229.48"/>
    </g>
    <g clip-path="url(#p7e5f2ef1de)">
     <use style="stroke:#000000;" x="855.638669" xlink:href="#C0_0_0809cd4aaa" y="207.908571"/>
    </g>
    <g clip-path="url(#p7e5f2ef1de)">
     <use style="stroke:#000000;" x="880.41289" xlink:href="#C0_0_0809cd4aaa" y="294.194286"/>
    </g>
    <g clip-path="url(#p7e5f2ef1de)">
     <use style="fill-opacity:0.180392;" x="880.41289" xlink:href="#C0_0_0809cd4aaa" y="272.622857"/>
    </g>
    <g clip-path="url(#p7e5f2ef1de)">
     <use style="fill-opacity:0.180392;" x="880.41289" xlink:href="#C0_0_0809cd4aaa" y="251.051429"/>
    </g>
    <g clip-path="url(#p7e5f2ef1de)">
     <use style="stroke:#000000;" x="880.41289" xlink:href="#C0_0_0809cd4aaa" y="229.48"/>
    </g>
    <g clip-path="url(#p7e5f2ef1de)">
     <use style="stroke:#000000;" x="880.41289" xlink:href="#C0_0_0809cd4aaa" y="207.908571"/>
    </g>
   </g>
  </g>
  <g id="axes_3">
   <g id="patch_5">
    <path clip-path="url(#p15a83313aa)" d="M 169.712432 299.587143 
L 124 299.587143 
L 124 288.801429 
L 169.712432 288.801429 
z
"/>
   </g>
   <g id="patch_6">
    <path clip-path="url(#p15a83313aa)" d="M 169.712432 278.015714 
L 125.587057 278.015714 
L 125.587057 267.23 
L 169.712432 267.23 
z
"/>
   </g>
   <g id="patch_7">
    <path clip-path="url(#p15a83313aa)" d="M 169.712432 256.444286 
L 127.512338 256.444286 
L 127.512338 245.658571 
L 169.712432 245.658571 
z
"/>
   </g>
   <g id="patch_8">
    <path clip-path="url(#p15a83313aa)" d="M 169.712432 234.872857 
L 154.648404 234.872857 
L 154.648404 224.087143 
L 169.712432 224.087143 
z
"/>
   </g>
   <g id="patch_9">
    <path clip-path="url(#p15a83313aa)" d="M 169.712432 213.301429 
L 159.25347 213.301429 
L 159.25347 202.515714 
L 169.712432 202.515714 
z
"/>
   </g>
   <g id="matplotlib.axis_4">
    <g id="xtick_1">
     <g id="line2d_6">
      <path clip-path="url(#p15a83313aa)" d="M 169.712432 308 
L 169.712432 194.102857 
" style="fill:none;stroke:#b0b0b0;stroke-linecap:square;stroke-width:0.8;"/>
     </g>
     <g id="line2d_7">
      <defs>
       <path d="M 0 0 
L 0 3.5 
" id="m3f6d4a49a4" style="stroke:#000000;stroke-width:0.8;"/>
      </defs>
      <g>
       <use style="stroke:#000000;stroke-width:0.8;" x="169.712432" xlink:href="#m3f6d4a49a4" y="308"/>
      </g>
     </g>
     <g id="text_6">
      <!-- 0 -->
      <g transform="translate(166.531182 322.598437)scale(0.1 -0.1)">
       <defs>
        <path d="M 31.78125 66.40625 
Q 24.171875 66.40625 20.328125 58.90625 
Q 16.5 51.421875 16.5 36.375 
Q 16.5 21.390625 20.328125 13.890625 
Q 24.171875 6.390625 31.78125 6.390625 
Q 39.453125 6.390625 43.28125 13.890625 
Q 47.125 21.390625 47.125 36.375 
Q 47.125 51.421875 43.28125 58.90625 
Q 39.453125 66.40625 31.78125 66.40625 
z
M 31.78125 74.21875 
Q 44.046875 74.21875 50.515625 64.515625 
Q 56.984375 54.828125 56.984375 36.375 
Q 56.984375 17.96875 50.515625 8.265625 
Q 44.046875 -1.421875 31.78125 -1.421875 
Q 19.53125 -1.421875 13.0625 8.265625 
Q 6.59375 17.96875 6.59375 36.375 
Q 6.59375 54.828125 13.0625 64.515625 
Q 19.53125 74.21875 31.78125 74.21875 
z
" id="DejaVuSans-48"/>
       </defs>
       <use xlink:href="#DejaVuSans-48"/>
      </g>
     </g>
    </g>
    <g id="xtick_2">
     <g id="line2d_8">
      <path clip-path="url(#p15a83313aa)" d="M 143.695112 308 
L 143.695112 194.102857 
" style="fill:none;stroke:#b0b0b0;stroke-linecap:square;stroke-width:0.8;"/>
     </g>
     <g id="line2d_9">
      <g>
       <use style="stroke:#000000;stroke-width:0.8;" x="143.695112" xlink:href="#m3f6d4a49a4" y="308"/>
      </g>
     </g>
     <g id="text_7">
      <!-- 1000 -->
      <g transform="translate(130.970112 322.598437)scale(0.1 -0.1)">
       <defs>
        <path d="M 12.40625 8.296875 
L 28.515625 8.296875 
L 28.515625 63.921875 
L 10.984375 60.40625 
L 10.984375 69.390625 
L 28.421875 72.90625 
L 38.28125 72.90625 
L 38.28125 8.296875 
L 54.390625 8.296875 
L 54.390625 0 
L 12.40625 0 
z
" id="DejaVuSans-49"/>
       </defs>
       <use xlink:href="#DejaVuSans-49"/>
       <use x="63.623047" xlink:href="#DejaVuSans-48"/>
       <use x="127.246094" xlink:href="#DejaVuSans-48"/>
       <use x="190.869141" xlink:href="#DejaVuSans-48"/>
      </g>
     </g>
    </g>
   </g>
   <g id="patch_10">
    <path d="M 124 308 
L 169.712432 308 
" style="fill:none;stroke:#000000;stroke-linecap:square;stroke-linejoin:miter;stroke-width:0.8;"/>
   </g>
   <g id="text_8">
    <!-- 1757 -->
    <g transform="translate(98.070019 296.953661)scale(0.1 -0.1)">
     <defs>
      <path d="M 8.203125 72.90625 
L 55.078125 72.90625 
L 55.078125 68.703125 
L 28.609375 0 
L 18.3125 0 
L 43.21875 64.59375 
L 8.203125 64.59375 
z
" id="DejaVuSans-55"/>
      <path d="M 10.796875 72.90625 
L 49.515625 72.90625 
L 49.515625 64.59375 
L 19.828125 64.59375 
L 19.828125 46.734375 
Q 21.96875 47.46875 24.109375 47.828125 
Q 26.265625 48.1875 28.421875 48.1875 
Q 40.625 48.1875 47.75 41.5 
Q 54.890625 34.8125 54.890625 23.390625 
Q 54.890625 11.625 47.5625 5.09375 
Q 40.234375 -1.421875 26.90625 -1.421875 
Q 22.3125 -1.421875 17.546875 -0.640625 
Q 12.796875 0.140625 7.71875 1.703125 
L 7.71875 11.625 
Q 12.109375 9.234375 16.796875 8.0625 
Q 21.484375 6.890625 26.703125 6.890625 
Q 35.15625 6.890625 40.078125 11.328125 
Q 45.015625 15.765625 45.015625 23.390625 
Q 45.015625 31 40.078125 35.4375 
Q 35.15625 39.890625 26.703125 39.890625 
Q 22.75 39.890625 18.8125 39.015625 
Q 14.890625 38.140625 10.796875 36.28125 
z
" id="DejaVuSans-53"/>
     </defs>
     <use xlink:href="#DejaVuSans-49"/>
     <use x="63.623047" xlink:href="#DejaVuSans-55"/>
     <use x="127.246094" xlink:href="#DejaVuSans-53"/>
     <use x="190.869141" xlink:href="#DejaVuSans-55"/>
    </g>
   </g>
   <g id="text_9">
    <!-- 1696 -->
    <g transform="translate(99.657076 275.382232)scale(0.1 -0.1)">
     <defs>
      <path d="M 33.015625 40.375 
Q 26.375 40.375 22.484375 35.828125 
Q 18.609375 31.296875 18.609375 23.390625 
Q 18.609375 15.53125 22.484375 10.953125 
Q 26.375 6.390625 33.015625 6.390625 
Q 39.65625 6.390625 43.53125 10.953125 
Q 47.40625 15.53125 47.40625 23.390625 
Q 47.40625 31.296875 43.53125 35.828125 
Q 39.65625 40.375 33.015625 40.375 
z
M 52.59375 71.296875 
L 52.59375 62.3125 
Q 48.875 64.0625 45.09375 64.984375 
Q 41.3125 65.921875 37.59375 65.921875 
Q 27.828125 65.921875 22.671875 59.328125 
Q 17.53125 52.734375 16.796875 39.40625 
Q 19.671875 43.65625 24.015625 45.921875 
Q 28.375 48.1875 33.59375 48.1875 
Q 44.578125 48.1875 50.953125 41.515625 
Q 57.328125 34.859375 57.328125 23.390625 
Q 57.328125 12.15625 50.6875 5.359375 
Q 44.046875 -1.421875 33.015625 -1.421875 
Q 20.359375 -1.421875 13.671875 8.265625 
Q 6.984375 17.96875 6.984375 36.375 
Q 6.984375 53.65625 15.1875 63.9375 
Q 23.390625 74.21875 37.203125 74.21875 
Q 40.921875 74.21875 44.703125 73.484375 
Q 48.484375 72.75 52.59375 71.296875 
z
" id="DejaVuSans-54"/>
      <path d="M 10.984375 1.515625 
L 10.984375 10.5 
Q 14.703125 8.734375 18.5 7.8125 
Q 22.3125 6.890625 25.984375 6.890625 
Q 35.75 6.890625 40.890625 13.453125 
Q 46.046875 20.015625 46.78125 33.40625 
Q 43.953125 29.203125 39.59375 26.953125 
Q 35.25 24.703125 29.984375 24.703125 
Q 19.046875 24.703125 12.671875 31.3125 
Q 6.296875 37.9375 6.296875 49.421875 
Q 6.296875 60.640625 12.9375 67.421875 
Q 19.578125 74.21875 30.609375 74.21875 
Q 43.265625 74.21875 49.921875 64.515625 
Q 56.59375 54.828125 56.59375 36.375 
Q 56.59375 19.140625 48.40625 8.859375 
Q 40.234375 -1.421875 26.421875 -1.421875 
Q 22.703125 -1.421875 18.890625 -0.6875 
Q 15.09375 0.046875 10.984375 1.515625 
z
M 30.609375 32.421875 
Q 37.25 32.421875 41.125 36.953125 
Q 45.015625 41.5 45.015625 49.421875 
Q 45.015625 57.28125 41.125 61.84375 
Q 37.25 66.40625 30.609375 66.40625 
Q 23.96875 66.40625 20.09375 61.84375 
Q 16.21875 57.28125 16.21875 49.421875 
Q 16.21875 41.5 20.09375 36.953125 
Q 23.96875 32.421875 30.609375 32.421875 
z
" id="DejaVuSans-57"/>
     </defs>
     <use xlink:href="#DejaVuSans-49"/>
     <use x="63.623047" xlink:href="#DejaVuSans-54"/>
     <use x="127.246094" xlink:href="#DejaVuSans-57"/>
     <use x="190.869141" xlink:href="#DejaVuSans-54"/>
    </g>
   </g>
   <g id="text_10">
    <!-- 1622 -->
    <g transform="translate(101.582358 253.810804)scale(0.1 -0.1)">
     <defs>
      <path d="M 19.1875 8.296875 
L 53.609375 8.296875 
L 53.609375 0 
L 7.328125 0 
L 7.328125 8.296875 
Q 12.9375 14.109375 22.625 23.890625 
Q 32.328125 33.6875 34.8125 36.53125 
Q 39.546875 41.84375 41.421875 45.53125 
Q 43.3125 49.21875 43.3125 52.78125 
Q 43.3125 58.59375 39.234375 62.25 
Q 35.15625 65.921875 28.609375 65.921875 
Q 23.96875 65.921875 18.8125 64.3125 
Q 13.671875 62.703125 7.8125 59.421875 
L 7.8125 69.390625 
Q 13.765625 71.78125 18.9375 73 
Q 24.125 74.21875 28.421875 74.21875 
Q 39.75 74.21875 46.484375 68.546875 
Q 53.21875 62.890625 53.21875 53.421875 
Q 53.21875 48.921875 51.53125 44.890625 
Q 49.859375 40.875 45.40625 35.40625 
Q 44.1875 33.984375 37.640625 27.21875 
Q 31.109375 20.453125 19.1875 8.296875 
z
" id="DejaVuSans-50"/>
     </defs>
     <use xlink:href="#DejaVuSans-49"/>
     <use x="63.623047" xlink:href="#DejaVuSans-54"/>
     <use x="127.246094" xlink:href="#DejaVuSans-50"/>
     <use x="190.869141" xlink:href="#DejaVuSans-50"/>
    </g>
   </g>
   <g id="text_11">
    <!-- 579 -->
    <g transform="translate(135.080923 232.239375)scale(0.1 -0.1)">
     <use xlink:href="#DejaVuSans-53"/>
     <use x="63.623047" xlink:href="#DejaVuSans-55"/>
     <use x="127.246094" xlink:href="#DejaVuSans-57"/>
    </g>
   </g>
   <g id="text_12">
    <!-- 402 -->
    <g transform="translate(139.685989 210.667946)scale(0.1 -0.1)">
     <defs>
      <path d="M 37.796875 64.3125 
L 12.890625 25.390625 
L 37.796875 25.390625 
z
M 35.203125 72.90625 
L 47.609375 72.90625 
L 47.609375 25.390625 
L 58.015625 25.390625 
L 58.015625 17.1875 
L 47.609375 17.1875 
L 47.609375 0 
L 37.796875 0 
L 37.796875 17.1875 
L 4.890625 17.1875 
L 4.890625 26.703125 
z
" id="DejaVuSans-52"/>
     </defs>
     <use xlink:href="#DejaVuSans-52"/>
     <use x="63.623047" xlink:href="#DejaVuSans-48"/>
     <use x="127.246094" xlink:href="#DejaVuSans-50"/>
    </g>
   </g>
  </g>
  <g id="axes_4">
   <g id="patch_11">
    <path d="M 248.67027 181.447619 
L 892.8 181.447619 
L 892.8 42.24 
L 248.67027 42.24 
z
" style="fill:#ffffff;"/>
   </g>
   <g id="matplotlib.axis_5">
    <g id="ytick_11">
     <g id="line2d_10">
      <path clip-path="url(#p307d8f8402)" d="M 248.67027 181.447619 
L 892.8 181.447619 
" style="fill:none;stroke:#b0b0b0;stroke-linecap:square;stroke-width:0.8;"/>
     </g>
     <g id="line2d_11">
      <defs>
       <path d="M 0 0 
L -3.5 0 
" id="m0b43d049ee" style="stroke:#000000;stroke-width:0.8;"/>
      </defs>
      <g>
       <use style="stroke:#000000;stroke-width:0.8;" x="248.67027" xlink:href="#m0b43d049ee" y="181.447619"/>
      </g>
     </g>
     <g id="text_13">
      <!-- 0 -->
      <g transform="translate(235.30777 185.246838)scale(0.1 -0.1)">
       <use xlink:href="#DejaVuSans-48"/>
      </g>
     </g>
    </g>
    <g id="ytick_12">
     <g id="line2d_12">
      <path clip-path="url(#p307d8f8402)" d="M 248.67027 149.111354 
L 892.8 149.111354 
" style="fill:none;stroke:#b0b0b0;stroke-linecap:square;stroke-width:0.8;"/>
     </g>
     <g id="line2d_13">
      <g>
       <use style="stroke:#000000;stroke-width:0.8;" x="248.67027" xlink:href="#m0b43d049ee" y="149.111354"/>
      </g>
     </g>
     <g id="text_14">
      <!-- 50 -->
      <g transform="translate(228.94527 152.910573)scale(0.1 -0.1)">
       <use xlink:href="#DejaVuSans-53"/>
       <use x="63.623047" xlink:href="#DejaVuSans-48"/>
      </g>
     </g>
    </g>
    <g id="ytick_13">
     <g id="line2d_14">
      <path clip-path="url(#p307d8f8402)" d="M 248.67027 116.77509 
L 892.8 116.77509 
" style="fill:none;stroke:#b0b0b0;stroke-linecap:square;stroke-width:0.8;"/>
     </g>
     <g id="line2d_15">
      <g>
       <use style="stroke:#000000;stroke-width:0.8;" x="248.67027" xlink:href="#m0b43d049ee" y="116.77509"/>
      </g>
     </g>
     <g id="text_15">
      <!-- 100 -->
      <g transform="translate(222.58277 120.574309)scale(0.1 -0.1)">
       <use xlink:href="#DejaVuSans-49"/>
       <use x="63.623047" xlink:href="#DejaVuSans-48"/>
       <use x="127.246094" xlink:href="#DejaVuSans-48"/>
      </g>
     </g>
    </g>
    <g id="ytick_14">
     <g id="line2d_16">
      <path clip-path="url(#p307d8f8402)" d="M 248.67027 84.438825 
L 892.8 84.438825 
" style="fill:none;stroke:#b0b0b0;stroke-linecap:square;stroke-width:0.8;"/>
     </g>
     <g id="line2d_17">
      <g>
       <use style="stroke:#000000;stroke-width:0.8;" x="248.67027" xlink:href="#m0b43d049ee" y="84.438825"/>
      </g>
     </g>
     <g id="text_16">
      <!-- 150 -->
      <g transform="translate(222.58277 88.238044)scale(0.1 -0.1)">
       <use xlink:href="#DejaVuSans-49"/>
       <use x="63.623047" xlink:href="#DejaVuSans-53"/>
       <use x="127.246094" xlink:href="#DejaVuSans-48"/>
      </g>
     </g>
    </g>
    <g id="ytick_15">
     <g id="line2d_18">
      <path clip-path="url(#p307d8f8402)" d="M 248.67027 52.102561 
L 892.8 52.102561 
" style="fill:none;stroke:#b0b0b0;stroke-linecap:square;stroke-width:0.8;"/>
     </g>
     <g id="line2d_19">
      <g>
       <use style="stroke:#000000;stroke-width:0.8;" x="248.67027" xlink:href="#m0b43d049ee" y="52.102561"/>
      </g>
     </g>
     <g id="text_17">
      <!-- 200 -->
      <g transform="translate(222.58277 55.901779)scale(0.1 -0.1)">
       <use xlink:href="#DejaVuSans-50"/>
       <use x="63.623047" xlink:href="#DejaVuSans-48"/>
       <use x="127.246094" xlink:href="#DejaVuSans-48"/>
      </g>
     </g>
    </g>
    <g id="text_18">
     <!-- Intersection size -->
     <g transform="translate(216.503083 152.871153)rotate(-90)scale(0.1 -0.1)">
      <defs>
       <path d="M 9.8125 72.90625 
L 19.671875 72.90625 
L 19.671875 0 
L 9.8125 0 
z
" id="DejaVuSans-73"/>
       <path d="M 18.3125 70.21875 
L 18.3125 54.6875 
L 36.8125 54.6875 
L 36.8125 47.703125 
L 18.3125 47.703125 
L 18.3125 18.015625 
Q 18.3125 11.328125 20.140625 9.421875 
Q 21.96875 7.515625 27.59375 7.515625 
L 36.8125 7.515625 
L 36.8125 0 
L 27.59375 0 
Q 17.1875 0 13.234375 3.875 
Q 9.28125 7.765625 9.28125 18.015625 
L 9.28125 47.703125 
L 2.6875 47.703125 
L 2.6875 54.6875 
L 9.28125 54.6875 
L 9.28125 70.21875 
z
" id="DejaVuSans-116"/>
       <path d="M 56.203125 29.59375 
L 56.203125 25.203125 
L 14.890625 25.203125 
Q 15.484375 15.921875 20.484375 11.0625 
Q 25.484375 6.203125 34.421875 6.203125 
Q 39.59375 6.203125 44.453125 7.46875 
Q 49.3125 8.734375 54.109375 11.28125 
L 54.109375 2.78125 
Q 49.265625 0.734375 44.1875 -0.34375 
Q 39.109375 -1.421875 33.890625 -1.421875 
Q 20.796875 -1.421875 13.15625 6.1875 
Q 5.515625 13.8125 5.515625 26.8125 
Q 5.515625 40.234375 12.765625 48.109375 
Q 20.015625 56 32.328125 56 
Q 43.359375 56 49.78125 48.890625 
Q 56.203125 41.796875 56.203125 29.59375 
z
M 47.21875 32.234375 
Q 47.125 39.59375 43.09375 43.984375 
Q 39.0625 48.390625 32.421875 48.390625 
Q 24.90625 48.390625 20.390625 44.140625 
Q 15.875 39.890625 15.1875 32.171875 
z
" id="DejaVuSans-101"/>
       <path d="M 44.28125 53.078125 
L 44.28125 44.578125 
Q 40.484375 46.53125 36.375 47.5 
Q 32.28125 48.484375 27.875 48.484375 
Q 21.1875 48.484375 17.84375 46.4375 
Q 14.5 44.390625 14.5 40.28125 
Q 14.5 37.15625 16.890625 35.375 
Q 19.28125 33.59375 26.515625 31.984375 
L 29.59375 31.296875 
Q 39.15625 29.25 43.1875 25.515625 
Q 47.21875 21.78125 47.21875 15.09375 
Q 47.21875 7.46875 41.1875 3.015625 
Q 35.15625 -1.421875 24.609375 -1.421875 
Q 20.21875 -1.421875 15.453125 -0.5625 
Q 10.6875 0.296875 5.421875 2 
L 5.421875 11.28125 
Q 10.40625 8.6875 15.234375 7.390625 
Q 20.0625 6.109375 24.8125 6.109375 
Q 31.15625 6.109375 34.5625 8.28125 
Q 37.984375 10.453125 37.984375 14.40625 
Q 37.984375 18.0625 35.515625 20.015625 
Q 33.0625 21.96875 24.703125 23.78125 
L 21.578125 24.515625 
Q 13.234375 26.265625 9.515625 29.90625 
Q 5.8125 33.546875 5.8125 39.890625 
Q 5.8125 47.609375 11.28125 51.796875 
Q 16.75 56 26.8125 56 
Q 31.78125 56 36.171875 55.265625 
Q 40.578125 54.546875 44.28125 53.078125 
z
" id="DejaVuSans-115"/>
       <path d="M 9.421875 54.6875 
L 18.40625 54.6875 
L 18.40625 0 
L 9.421875 0 
z
M 9.421875 75.984375 
L 18.40625 75.984375 
L 18.40625 64.59375 
L 9.421875 64.59375 
z
" id="DejaVuSans-105"/>
       <path id="DejaVuSans-32"/>
       <path d="M 5.515625 54.6875 
L 48.1875 54.6875 
L 48.1875 46.484375 
L 14.40625 7.171875 
L 48.1875 7.171875 
L 48.1875 0 
L 4.296875 0 
L 4.296875 8.203125 
L 38.09375 47.515625 
L 5.515625 47.515625 
z
" id="DejaVuSans-122"/>
      </defs>
      <use xlink:href="#DejaVuSans-73"/>
      <use x="29.492188" xlink:href="#DejaVuSans-110"/>
      <use x="92.871094" xlink:href="#DejaVuSans-116"/>
      <use x="132.080078" xlink:href="#DejaVuSans-101"/>
      <use x="193.603516" xlink:href="#DejaVuSans-114"/>
      <use x="234.716797" xlink:href="#DejaVuSans-115"/>
      <use x="286.816406" xlink:href="#DejaVuSans-101"/>
      <use x="348.339844" xlink:href="#DejaVuSans-99"/>
      <use x="403.320312" xlink:href="#DejaVuSans-116"/>
      <use x="442.529297" xlink:href="#DejaVuSans-105"/>
      <use x="470.3125" xlink:href="#DejaVuSans-111"/>
      <use x="531.494141" xlink:href="#DejaVuSans-110"/>
      <use x="594.873047" xlink:href="#DejaVuSans-32"/>
      <use x="626.660156" xlink:href="#DejaVuSans-115"/>
      <use x="678.759766" xlink:href="#DejaVuSans-105"/>
      <use x="706.542969" xlink:href="#DejaVuSans-122"/>
      <use x="759.033203" xlink:href="#DejaVuSans-101"/>
     </g>
    </g>
   </g>
   <g id="patch_12">
    <path d="M 248.67027 181.447619 
L 248.67027 42.24 
" style="fill:none;stroke:#000000;stroke-linecap:square;stroke-linejoin:miter;stroke-width:0.8;"/>
   </g>
   <g id="text_19">
    <!-- 205 -->
    <g transform="translate(251.51363 45.397171)scale(0.1 -0.1)">
     <use xlink:href="#DejaVuSans-50"/>
     <use x="63.623047" xlink:href="#DejaVuSans-48"/>
     <use x="127.246094" xlink:href="#DejaVuSans-53"/>
    </g>
   </g>
   <g id="text_20">
    <!-- 159 -->
    <g transform="translate(276.287851 75.146534)scale(0.1 -0.1)">
     <use xlink:href="#DejaVuSans-49"/>
     <use x="63.623047" xlink:href="#DejaVuSans-53"/>
     <use x="127.246094" xlink:href="#DejaVuSans-57"/>
    </g>
   </g>
   <g id="text_21">
    <!-- 137 -->
    <g transform="translate(301.062071 89.37449)scale(0.1 -0.1)">
     <defs>
      <path d="M 40.578125 39.3125 
Q 47.65625 37.796875 51.625 33 
Q 55.609375 28.21875 55.609375 21.1875 
Q 55.609375 10.40625 48.1875 4.484375 
Q 40.765625 -1.421875 27.09375 -1.421875 
Q 22.515625 -1.421875 17.65625 -0.515625 
Q 12.796875 0.390625 7.625 2.203125 
L 7.625 11.71875 
Q 11.71875 9.328125 16.59375 8.109375 
Q 21.484375 6.890625 26.8125 6.890625 
Q 36.078125 6.890625 40.9375 10.546875 
Q 45.796875 14.203125 45.796875 21.1875 
Q 45.796875 27.640625 41.28125 31.265625 
Q 36.765625 34.90625 28.71875 34.90625 
L 20.21875 34.90625 
L 20.21875 43.015625 
L 29.109375 43.015625 
Q 36.375 43.015625 40.234375 45.921875 
Q 44.09375 48.828125 44.09375 54.296875 
Q 44.09375 59.90625 40.109375 62.90625 
Q 36.140625 65.921875 28.71875 65.921875 
Q 24.65625 65.921875 20.015625 65.03125 
Q 15.375 64.15625 9.8125 62.3125 
L 9.8125 71.09375 
Q 15.4375 72.65625 20.34375 73.4375 
Q 25.25 74.21875 29.59375 74.21875 
Q 40.828125 74.21875 47.359375 69.109375 
Q 53.90625 64.015625 53.90625 55.328125 
Q 53.90625 49.265625 50.4375 45.09375 
Q 46.96875 40.921875 40.578125 39.3125 
z
" id="DejaVuSans-51"/>
     </defs>
     <use xlink:href="#DejaVuSans-49"/>
     <use x="63.623047" xlink:href="#DejaVuSans-51"/>
     <use x="127.246094" xlink:href="#DejaVuSans-55"/>
    </g>
   </g>
   <g id="text_22">
    <!-- 63 -->
    <g transform="translate(329.017542 137.232162)scale(0.1 -0.1)">
     <use xlink:href="#DejaVuSans-54"/>
     <use x="63.623047" xlink:href="#DejaVuSans-51"/>
    </g>
   </g>
   <g id="text_23">
    <!-- 54 -->
    <g transform="translate(353.791762 143.05269)scale(0.1 -0.1)">
     <use xlink:href="#DejaVuSans-53"/>
     <use x="63.623047" xlink:href="#DejaVuSans-52"/>
    </g>
   </g>
   <g id="text_24">
    <!-- 45 -->
    <g transform="translate(378.565982 148.873217)scale(0.1 -0.1)">
     <use xlink:href="#DejaVuSans-52"/>
     <use x="63.623047" xlink:href="#DejaVuSans-53"/>
    </g>
   </g>
   <g id="text_25">
    <!-- 41 -->
    <g transform="translate(403.340203 151.460118)scale(0.1 -0.1)">
     <use xlink:href="#DejaVuSans-52"/>
     <use x="63.623047" xlink:href="#DejaVuSans-49"/>
    </g>
   </g>
   <g id="text_26">
    <!-- 40 -->
    <g transform="translate(428.114423 152.106844)scale(0.1 -0.1)">
     <use xlink:href="#DejaVuSans-52"/>
     <use x="63.623047" xlink:href="#DejaVuSans-48"/>
    </g>
   </g>
   <g id="text_27">
    <!-- 33 -->
    <g transform="translate(452.888643 156.633921)scale(0.1 -0.1)">
     <use xlink:href="#DejaVuSans-51"/>
     <use x="63.623047" xlink:href="#DejaVuSans-51"/>
    </g>
   </g>
   <g id="text_28">
    <!-- 18 -->
    <g transform="translate(477.662864 166.3348)scale(0.1 -0.1)">
     <defs>
      <path d="M 31.78125 34.625 
Q 24.75 34.625 20.71875 30.859375 
Q 16.703125 27.09375 16.703125 20.515625 
Q 16.703125 13.921875 20.71875 10.15625 
Q 24.75 6.390625 31.78125 6.390625 
Q 38.8125 6.390625 42.859375 10.171875 
Q 46.921875 13.96875 46.921875 20.515625 
Q 46.921875 27.09375 42.890625 30.859375 
Q 38.875 34.625 31.78125 34.625 
z
M 21.921875 38.8125 
Q 15.578125 40.375 12.03125 44.71875 
Q 8.5 49.078125 8.5 55.328125 
Q 8.5 64.0625 14.71875 69.140625 
Q 20.953125 74.21875 31.78125 74.21875 
Q 42.671875 74.21875 48.875 69.140625 
Q 55.078125 64.0625 55.078125 55.328125 
Q 55.078125 49.078125 51.53125 44.71875 
Q 48 40.375 41.703125 38.8125 
Q 48.828125 37.15625 52.796875 32.3125 
Q 56.78125 27.484375 56.78125 20.515625 
Q 56.78125 9.90625 50.3125 4.234375 
Q 43.84375 -1.421875 31.78125 -1.421875 
Q 19.734375 -1.421875 13.25 4.234375 
Q 6.78125 9.90625 6.78125 20.515625 
Q 6.78125 27.484375 10.78125 32.3125 
Q 14.796875 37.15625 21.921875 38.8125 
z
M 18.3125 54.390625 
Q 18.3125 48.734375 21.84375 45.5625 
Q 25.390625 42.390625 31.78125 42.390625 
Q 38.140625 42.390625 41.71875 45.5625 
Q 45.3125 48.734375 45.3125 54.390625 
Q 45.3125 60.0625 41.71875 63.234375 
Q 38.140625 66.40625 31.78125 66.40625 
Q 25.390625 66.40625 21.84375 63.234375 
Q 18.3125 60.0625 18.3125 54.390625 
z
" id="DejaVuSans-56"/>
     </defs>
     <use xlink:href="#DejaVuSans-49"/>
     <use x="63.623047" xlink:href="#DejaVuSans-56"/>
    </g>
   </g>
   <g id="text_29">
    <!-- 16 -->
    <g transform="translate(502.437084 167.628251)scale(0.1 -0.1)">
     <use xlink:href="#DejaVuSans-49"/>
     <use x="63.623047" xlink:href="#DejaVuSans-54"/>
    </g>
   </g>
   <g id="text_30">
    <!-- 15 -->
    <g transform="translate(527.211305 168.274976)scale(0.1 -0.1)">
     <use xlink:href="#DejaVuSans-49"/>
     <use x="63.623047" xlink:href="#DejaVuSans-53"/>
    </g>
   </g>
   <g id="text_31">
    <!-- 11 -->
    <g transform="translate(551.985525 170.861877)scale(0.1 -0.1)">
     <use xlink:href="#DejaVuSans-49"/>
     <use x="63.623047" xlink:href="#DejaVuSans-49"/>
    </g>
   </g>
   <g id="text_32">
    <!-- 10 -->
    <g transform="translate(576.759745 171.508602)scale(0.1 -0.1)">
     <use xlink:href="#DejaVuSans-49"/>
     <use x="63.623047" xlink:href="#DejaVuSans-48"/>
    </g>
   </g>
   <g id="text_33">
    <!-- 9 -->
    <g transform="translate(604.715216 172.155328)scale(0.1 -0.1)">
     <use xlink:href="#DejaVuSans-57"/>
    </g>
   </g>
   <g id="text_34">
    <!-- 7 -->
    <g transform="translate(629.489436 173.448778)scale(0.1 -0.1)">
     <use xlink:href="#DejaVuSans-55"/>
    </g>
   </g>
   <g id="text_35">
    <!-- 6 -->
    <g transform="translate(654.263656 174.095504)scale(0.1 -0.1)">
     <use xlink:href="#DejaVuSans-54"/>
    </g>
   </g>
   <g id="text_36">
    <!-- 6 -->
    <g transform="translate(679.037877 174.095504)scale(0.1 -0.1)">
     <use xlink:href="#DejaVuSans-54"/>
    </g>
   </g>
   <g id="text_37">
    <!-- 5 -->
    <g transform="translate(703.812097 174.742229)scale(0.1 -0.1)">
     <use xlink:href="#DejaVuSans-53"/>
    </g>
   </g>
   <g id="text_38">
    <!-- 5 -->
    <g transform="translate(728.586318 174.742229)scale(0.1 -0.1)">
     <use xlink:href="#DejaVuSans-53"/>
    </g>
   </g>
   <g id="text_39">
    <!-- 2 -->
    <g transform="translate(753.360538 176.682405)scale(0.1 -0.1)">
     <use xlink:href="#DejaVuSans-50"/>
    </g>
   </g>
   <g id="text_40">
    <!-- 2 -->
    <g transform="translate(778.134758 176.682405)scale(0.1 -0.1)">
     <use xlink:href="#DejaVuSans-50"/>
    </g>
   </g>
   <g id="text_41">
    <!-- 1 -->
    <g transform="translate(802.908979 177.32913)scale(0.1 -0.1)">
     <use xlink:href="#DejaVuSans-49"/>
    </g>
   </g>
   <g id="text_42">
    <!-- 1 -->
    <g transform="translate(827.683199 177.32913)scale(0.1 -0.1)">
     <use xlink:href="#DejaVuSans-49"/>
    </g>
   </g>
   <g id="text_43">
    <!-- 1 -->
    <g transform="translate(852.457419 177.32913)scale(0.1 -0.1)">
     <use xlink:href="#DejaVuSans-49"/>
    </g>
   </g>
   <g id="text_44">
    <!-- 1 -->
    <g transform="translate(877.23164 177.32913)scale(0.1 -0.1)">
     <use xlink:href="#DejaVuSans-49"/>
    </g>
   </g>
   <g id="patch_13">
    <path clip-path="url(#p307d8f8402)" d="M 254.863825 181.447619 
L 267.250936 181.447619 
L 267.250936 48.868934 
L 254.863825 48.868934 
z
" style="stroke:#000000;stroke-linejoin:miter;"/>
   </g>
   <g id="patch_14">
    <path clip-path="url(#p307d8f8402)" d="M 279.638046 181.447619 
L 292.025156 181.447619 
L 292.025156 78.618298 
L 279.638046 78.618298 
z
" style="stroke:#000000;stroke-linejoin:miter;"/>
   </g>
   <g id="patch_15">
    <path clip-path="url(#p307d8f8402)" d="M 304.412266 181.447619 
L 316.799376 181.447619 
L 316.799376 92.846254 
L 304.412266 92.846254 
z
" style="stroke:#000000;stroke-linejoin:miter;"/>
   </g>
   <g id="patch_16">
    <path clip-path="url(#p307d8f8402)" d="M 329.186486 181.447619 
L 341.573597 181.447619 
L 341.573597 140.703926 
L 329.186486 140.703926 
z
" style="stroke:#000000;stroke-linejoin:miter;"/>
   </g>
   <g id="patch_17">
    <path clip-path="url(#p307d8f8402)" d="M 353.960707 181.447619 
L 366.347817 181.447619 
L 366.347817 146.524453 
L 353.960707 146.524453 
z
" style="stroke:#000000;stroke-linejoin:miter;"/>
   </g>
   <g id="patch_18">
    <path clip-path="url(#p307d8f8402)" d="M 378.734927 181.447619 
L 391.122037 181.447619 
L 391.122037 152.344981 
L 378.734927 152.344981 
z
" style="stroke:#000000;stroke-linejoin:miter;"/>
   </g>
   <g id="patch_19">
    <path clip-path="url(#p307d8f8402)" d="M 403.509148 181.447619 
L 415.896258 181.447619 
L 415.896258 154.931882 
L 403.509148 154.931882 
z
" style="stroke:#000000;stroke-linejoin:miter;"/>
   </g>
   <g id="patch_20">
    <path clip-path="url(#p307d8f8402)" d="M 428.283368 181.447619 
L 440.670478 181.447619 
L 440.670478 155.578607 
L 428.283368 155.578607 
z
" style="stroke:#000000;stroke-linejoin:miter;"/>
   </g>
   <g id="patch_21">
    <path clip-path="url(#p307d8f8402)" d="M 453.057588 181.447619 
L 465.444699 181.447619 
L 465.444699 160.105684 
L 453.057588 160.105684 
z
" style="stroke:#000000;stroke-linejoin:miter;"/>
   </g>
   <g id="patch_22">
    <path clip-path="url(#p307d8f8402)" d="M 477.831809 181.447619 
L 490.218919 181.447619 
L 490.218919 169.806564 
L 477.831809 169.806564 
z
" style="stroke:#000000;stroke-linejoin:miter;"/>
   </g>
   <g id="patch_23">
    <path clip-path="url(#p307d8f8402)" d="M 502.606029 181.447619 
L 514.993139 181.447619 
L 514.993139 171.100014 
L 502.606029 171.100014 
z
" style="stroke:#000000;stroke-linejoin:miter;"/>
   </g>
   <g id="patch_24">
    <path clip-path="url(#p307d8f8402)" d="M 527.380249 181.447619 
L 539.76736 181.447619 
L 539.76736 171.74674 
L 527.380249 171.74674 
z
" style="stroke:#000000;stroke-linejoin:miter;"/>
   </g>
   <g id="patch_25">
    <path clip-path="url(#p307d8f8402)" d="M 552.15447 181.447619 
L 564.54158 181.447619 
L 564.54158 174.333641 
L 552.15447 174.333641 
z
" style="stroke:#000000;stroke-linejoin:miter;"/>
   </g>
   <g id="patch_26">
    <path clip-path="url(#p307d8f8402)" d="M 576.92869 181.447619 
L 589.3158 181.447619 
L 589.3158 174.980366 
L 576.92869 174.980366 
z
" style="stroke:#000000;stroke-linejoin:miter;"/>
   </g>
   <g id="patch_27">
    <path clip-path="url(#p307d8f8402)" d="M 601.702911 181.447619 
L 614.090021 181.447619 
L 614.090021 175.627091 
L 601.702911 175.627091 
z
" style="stroke:#000000;stroke-linejoin:miter;"/>
   </g>
   <g id="patch_28">
    <path clip-path="url(#p307d8f8402)" d="M 626.477131 181.447619 
L 638.864241 181.447619 
L 638.864241 176.920542 
L 626.477131 176.920542 
z
" style="stroke:#000000;stroke-linejoin:miter;"/>
   </g>
   <g id="patch_29">
    <path clip-path="url(#p307d8f8402)" d="M 651.251351 181.447619 
L 663.638462 181.447619 
L 663.638462 177.567267 
L 651.251351 177.567267 
z
" style="stroke:#000000;stroke-linejoin:miter;"/>
   </g>
   <g id="patch_30">
    <path clip-path="url(#p307d8f8402)" d="M 676.025572 181.447619 
L 688.412682 181.447619 
L 688.412682 177.567267 
L 676.025572 177.567267 
z
" style="stroke:#000000;stroke-linejoin:miter;"/>
   </g>
   <g id="patch_31">
    <path clip-path="url(#p307d8f8402)" d="M 700.799792 181.447619 
L 713.186902 181.447619 
L 713.186902 178.213993 
L 700.799792 178.213993 
z
" style="stroke:#000000;stroke-linejoin:miter;"/>
   </g>
   <g id="patch_32">
    <path clip-path="url(#p307d8f8402)" d="M 725.574012 181.447619 
L 737.961123 181.447619 
L 737.961123 178.213993 
L 725.574012 178.213993 
z
" style="stroke:#000000;stroke-linejoin:miter;"/>
   </g>
   <g id="patch_33">
    <path clip-path="url(#p307d8f8402)" d="M 750.348233 181.447619 
L 762.735343 181.447619 
L 762.735343 180.154168 
L 750.348233 180.154168 
z
" style="stroke:#000000;stroke-linejoin:miter;"/>
   </g>
   <g id="patch_34">
    <path clip-path="url(#p307d8f8402)" d="M 775.122453 181.447619 
L 787.509563 181.447619 
L 787.509563 180.154168 
L 775.122453 180.154168 
z
" style="stroke:#000000;stroke-linejoin:miter;"/>
   </g>
   <g id="patch_35">
    <path clip-path="url(#p307d8f8402)" d="M 799.896674 181.447619 
L 812.283784 181.447619 
L 812.283784 180.800894 
L 799.896674 180.800894 
z
" style="stroke:#000000;stroke-linejoin:miter;"/>
   </g>
   <g id="patch_36">
    <path clip-path="url(#p307d8f8402)" d="M 824.670894 181.447619 
L 837.058004 181.447619 
L 837.058004 180.800894 
L 824.670894 180.800894 
z
" style="stroke:#000000;stroke-linejoin:miter;"/>
   </g>
   <g id="patch_37">
    <path clip-path="url(#p307d8f8402)" d="M 849.445114 181.447619 
L 861.832225 181.447619 
L 861.832225 180.800894 
L 849.445114 180.800894 
z
" style="stroke:#000000;stroke-linejoin:miter;"/>
   </g>
   <g id="patch_38">
    <path clip-path="url(#p307d8f8402)" d="M 874.219335 181.447619 
L 886.606445 181.447619 
L 886.606445 180.800894 
L 874.219335 180.800894 
z
" style="stroke:#000000;stroke-linejoin:miter;"/>
   </g>
  </g>
 </g>
 <defs>
  <clipPath id="pd13eb875f9">
   <rect height="113.897143" width="768.8" x="124" y="194.102857"/>
  </clipPath>
  <clipPath id="p7e5f2ef1de">
   <rect height="113.897143" width="644.12973" x="248.67027" y="194.102857"/>
  </clipPath>
  <clipPath id="p15a83313aa">
   <rect height="113.897143" width="45.712432" x="124" y="194.102857"/>
  </clipPath>
  <clipPath id="p307d8f8402">
   <rect height="139.207619" width="644.12973" x="248.67027" y="42.24"/>
  </clipPath>
 </defs>
</svg>
