<?xml version="1.0" encoding="utf-8" standalone="no"?>
<!DOCTYPE svg PUBLIC "-//W3C//DTD SVG 1.1//EN"
  "http://www.w3.org/Graphics/SVG/1.1/DTD/svg11.dtd">
<!-- Created with matplotlib (https://matplotlib.org/) -->
<svg height="278.729531pt" version="1.1" viewBox="0 0 406.360781 278.729531" width="406.360781pt" xmlns="http://www.w3.org/2000/svg" xmlns:xlink="http://www.w3.org/1999/xlink">
 <metadata>
  <rdf:RDF xmlns:cc="http://creativecommons.org/ns#" xmlns:dc="http://purl.org/dc/elements/1.1/" xmlns:rdf="http://www.w3.org/1999/02/22-rdf-syntax-ns#">
   <cc:Work>
    <dc:type rdf:resource="http://purl.org/dc/dcmitype/StillImage"/>
    <dc:date>2021-06-04T17:21:33.195806</dc:date>
    <dc:format>image/svg+xml</dc:format>
    <dc:creator>
     <cc:Agent>
      <dc:title>Matplotlib v3.3.2, https://matplotlib.org/</dc:title>
     </cc:Agent>
    </dc:creator>
   </cc:Work>
  </rdf:RDF>
 </metadata>
 <defs>
  <style type="text/css">*{stroke-linecap:butt;stroke-linejoin:round;}</style>
 </defs>
 <g id="figure_1">
  <g id="patch_1">
   <path d="M 0 278.729531 
L 406.360781 278.729531 
L 406.360781 -0 
L 0 -0 
z
" style="fill:#ffffff;"/>
  </g>
  <g id="axes_1">
   <g id="patch_2">
    <path d="M 64.360781 224.64 
L 399.160781 224.64 
L 399.160781 7.2 
L 64.360781 7.2 
z
" style="fill:#ffffff;"/>
   </g>
   <g id="matplotlib.axis_1">
    <g id="xtick_1">
     <g id="line2d_1">
      <defs>
       <path d="M 0 0 
L 0 6 
" id="ma70410a926" style="stroke:#262626;stroke-width:1.25;"/>
      </defs>
      <g>
       <use style="fill:#262626;stroke:#262626;stroke-width:1.25;" x="79.578963" xlink:href="#ma70410a926" y="224.64"/>
      </g>
     </g>
     <g id="text_1">
      <!-- 0.0 -->
      <g style="fill:#262626;" transform="translate(66.458885 246.677422)scale(0.165 -0.165)">
       <defs>
        <path d="M 31.78125 66.40625 
Q 24.171875 66.40625 20.328125 58.90625 
Q 16.5 51.421875 16.5 36.375 
Q 16.5 21.390625 20.328125 13.890625 
Q 24.171875 6.390625 31.78125 6.390625 
Q 39.453125 6.390625 43.28125 13.890625 
Q 47.125 21.390625 47.125 36.375 
Q 47.125 51.421875 43.28125 58.90625 
Q 39.453125 66.40625 31.78125 66.40625 
z
M 31.78125 74.21875 
Q 44.046875 74.21875 50.515625 64.515625 
Q 56.984375 54.828125 56.984375 36.375 
Q 56.984375 17.96875 50.515625 8.265625 
Q 44.046875 -1.421875 31.78125 -1.421875 
Q 19.53125 -1.421875 13.0625 8.265625 
Q 6.59375 17.96875 6.59375 36.375 
Q 6.59375 54.828125 13.0625 64.515625 
Q 19.53125 74.21875 31.78125 74.21875 
z
" id="DejaVuSans-48"/>
        <path d="M 10.6875 12.40625 
L 21 12.40625 
L 21 0 
L 10.6875 0 
z
" id="DejaVuSans-46"/>
       </defs>
       <use xlink:href="#DejaVuSans-48"/>
       <use x="63.623047" xlink:href="#DejaVuSans-46"/>
       <use x="95.410156" xlink:href="#DejaVuSans-48"/>
      </g>
     </g>
    </g>
    <g id="xtick_2">
     <g id="line2d_2">
      <g>
       <use style="fill:#262626;stroke:#262626;stroke-width:1.25;" x="140.45169" xlink:href="#ma70410a926" y="224.64"/>
      </g>
     </g>
     <g id="text_2">
      <!-- 0.2 -->
      <g style="fill:#262626;" transform="translate(127.331612 246.677422)scale(0.165 -0.165)">
       <defs>
        <path d="M 19.1875 8.296875 
L 53.609375 8.296875 
L 53.609375 0 
L 7.328125 0 
L 7.328125 8.296875 
Q 12.9375 14.109375 22.625 23.890625 
Q 32.328125 33.6875 34.8125 36.53125 
Q 39.546875 41.84375 41.421875 45.53125 
Q 43.3125 49.21875 43.3125 52.78125 
Q 43.3125 58.59375 39.234375 62.25 
Q 35.15625 65.921875 28.609375 65.921875 
Q 23.96875 65.921875 18.8125 64.3125 
Q 13.671875 62.703125 7.8125 59.421875 
L 7.8125 69.390625 
Q 13.765625 71.78125 18.9375 73 
Q 24.125 74.21875 28.421875 74.21875 
Q 39.75 74.21875 46.484375 68.546875 
Q 53.21875 62.890625 53.21875 53.421875 
Q 53.21875 48.921875 51.53125 44.890625 
Q 49.859375 40.875 45.40625 35.40625 
Q 44.1875 33.984375 37.640625 27.21875 
Q 31.109375 20.453125 19.1875 8.296875 
z
" id="DejaVuSans-50"/>
       </defs>
       <use xlink:href="#DejaVuSans-48"/>
       <use x="63.623047" xlink:href="#DejaVuSans-46"/>
       <use x="95.410156" xlink:href="#DejaVuSans-50"/>
      </g>
     </g>
    </g>
    <g id="xtick_3">
     <g id="line2d_3">
      <g>
       <use style="fill:#262626;stroke:#262626;stroke-width:1.25;" x="201.324418" xlink:href="#ma70410a926" y="224.64"/>
      </g>
     </g>
     <g id="text_3">
      <!-- 0.4 -->
      <g style="fill:#262626;" transform="translate(188.204339 246.677422)scale(0.165 -0.165)">
       <defs>
        <path d="M 37.796875 64.3125 
L 12.890625 25.390625 
L 37.796875 25.390625 
z
M 35.203125 72.90625 
L 47.609375 72.90625 
L 47.609375 25.390625 
L 58.015625 25.390625 
L 58.015625 17.1875 
L 47.609375 17.1875 
L 47.609375 0 
L 37.796875 0 
L 37.796875 17.1875 
L 4.890625 17.1875 
L 4.890625 26.703125 
z
" id="DejaVuSans-52"/>
       </defs>
       <use xlink:href="#DejaVuSans-48"/>
       <use x="63.623047" xlink:href="#DejaVuSans-46"/>
       <use x="95.410156" xlink:href="#DejaVuSans-52"/>
      </g>
     </g>
    </g>
    <g id="xtick_4">
     <g id="line2d_4">
      <g>
       <use style="fill:#262626;stroke:#262626;stroke-width:1.25;" x="262.197145" xlink:href="#ma70410a926" y="224.64"/>
      </g>
     </g>
     <g id="text_4">
      <!-- 0.6 -->
      <g style="fill:#262626;" transform="translate(249.077067 246.677422)scale(0.165 -0.165)">
       <defs>
        <path d="M 33.015625 40.375 
Q 26.375 40.375 22.484375 35.828125 
Q 18.609375 31.296875 18.609375 23.390625 
Q 18.609375 15.53125 22.484375 10.953125 
Q 26.375 6.390625 33.015625 6.390625 
Q 39.65625 6.390625 43.53125 10.953125 
Q 47.40625 15.53125 47.40625 23.390625 
Q 47.40625 31.296875 43.53125 35.828125 
Q 39.65625 40.375 33.015625 40.375 
z
M 52.59375 71.296875 
L 52.59375 62.3125 
Q 48.875 64.0625 45.09375 64.984375 
Q 41.3125 65.921875 37.59375 65.921875 
Q 27.828125 65.921875 22.671875 59.328125 
Q 17.53125 52.734375 16.796875 39.40625 
Q 19.671875 43.65625 24.015625 45.921875 
Q 28.375 48.1875 33.59375 48.1875 
Q 44.578125 48.1875 50.953125 41.515625 
Q 57.328125 34.859375 57.328125 23.390625 
Q 57.328125 12.15625 50.6875 5.359375 
Q 44.046875 -1.421875 33.015625 -1.421875 
Q 20.359375 -1.421875 13.671875 8.265625 
Q 6.984375 17.96875 6.984375 36.375 
Q 6.984375 53.65625 15.1875 63.9375 
Q 23.390625 74.21875 37.203125 74.21875 
Q 40.921875 74.21875 44.703125 73.484375 
Q 48.484375 72.75 52.59375 71.296875 
z
" id="DejaVuSans-54"/>
       </defs>
       <use xlink:href="#DejaVuSans-48"/>
       <use x="63.623047" xlink:href="#DejaVuSans-46"/>
       <use x="95.410156" xlink:href="#DejaVuSans-54"/>
      </g>
     </g>
    </g>
    <g id="xtick_5">
     <g id="line2d_5">
      <g>
       <use style="fill:#262626;stroke:#262626;stroke-width:1.25;" x="323.069872" xlink:href="#ma70410a926" y="224.64"/>
      </g>
     </g>
     <g id="text_5">
      <!-- 0.8 -->
      <g style="fill:#262626;" transform="translate(309.949794 246.677422)scale(0.165 -0.165)">
       <defs>
        <path d="M 31.78125 34.625 
Q 24.75 34.625 20.71875 30.859375 
Q 16.703125 27.09375 16.703125 20.515625 
Q 16.703125 13.921875 20.71875 10.15625 
Q 24.75 6.390625 31.78125 6.390625 
Q 38.8125 6.390625 42.859375 10.171875 
Q 46.921875 13.96875 46.921875 20.515625 
Q 46.921875 27.09375 42.890625 30.859375 
Q 38.875 34.625 31.78125 34.625 
z
M 21.921875 38.8125 
Q 15.578125 40.375 12.03125 44.71875 
Q 8.5 49.078125 8.5 55.328125 
Q 8.5 64.0625 14.71875 69.140625 
Q 20.953125 74.21875 31.78125 74.21875 
Q 42.671875 74.21875 48.875 69.140625 
Q 55.078125 64.0625 55.078125 55.328125 
Q 55.078125 49.078125 51.53125 44.71875 
Q 48 40.375 41.703125 38.8125 
Q 48.828125 37.15625 52.796875 32.3125 
Q 56.78125 27.484375 56.78125 20.515625 
Q 56.78125 9.90625 50.3125 4.234375 
Q 43.84375 -1.421875 31.78125 -1.421875 
Q 19.734375 -1.421875 13.25 4.234375 
Q 6.78125 9.90625 6.78125 20.515625 
Q 6.78125 27.484375 10.78125 32.3125 
Q 14.796875 37.15625 21.921875 38.8125 
z
M 18.3125 54.390625 
Q 18.3125 48.734375 21.84375 45.5625 
Q 25.390625 42.390625 31.78125 42.390625 
Q 38.140625 42.390625 41.71875 45.5625 
Q 45.3125 48.734375 45.3125 54.390625 
Q 45.3125 60.0625 41.71875 63.234375 
Q 38.140625 66.40625 31.78125 66.40625 
Q 25.390625 66.40625 21.84375 63.234375 
Q 18.3125 60.0625 18.3125 54.390625 
z
" id="DejaVuSans-56"/>
       </defs>
       <use xlink:href="#DejaVuSans-48"/>
       <use x="63.623047" xlink:href="#DejaVuSans-46"/>
       <use x="95.410156" xlink:href="#DejaVuSans-56"/>
      </g>
     </g>
    </g>
    <g id="xtick_6">
     <g id="line2d_6">
      <g>
       <use style="fill:#262626;stroke:#262626;stroke-width:1.25;" x="383.942599" xlink:href="#ma70410a926" y="224.64"/>
      </g>
     </g>
     <g id="text_6">
      <!-- 1.0 -->
      <g style="fill:#262626;" transform="translate(370.822521 246.677422)scale(0.165 -0.165)">
       <defs>
        <path d="M 12.40625 8.296875 
L 28.515625 8.296875 
L 28.515625 63.921875 
L 10.984375 60.40625 
L 10.984375 69.390625 
L 28.421875 72.90625 
L 38.28125 72.90625 
L 38.28125 8.296875 
L 54.390625 8.296875 
L 54.390625 0 
L 12.40625 0 
z
" id="DejaVuSans-49"/>
       </defs>
       <use xlink:href="#DejaVuSans-49"/>
       <use x="63.623047" xlink:href="#DejaVuSans-46"/>
       <use x="95.410156" xlink:href="#DejaVuSans-48"/>
      </g>
     </g>
    </g>
    <g id="text_7">
     <!-- Recall -->
     <g style="fill:#262626;" transform="translate(204.909844 267.786094)scale(0.18 -0.18)">
      <defs>
       <path d="M 44.390625 34.1875 
Q 47.5625 33.109375 50.5625 29.59375 
Q 53.5625 26.078125 56.59375 19.921875 
L 66.609375 0 
L 56 0 
L 46.6875 18.703125 
Q 43.0625 26.03125 39.671875 28.421875 
Q 36.28125 30.8125 30.421875 30.8125 
L 19.671875 30.8125 
L 19.671875 0 
L 9.8125 0 
L 9.8125 72.90625 
L 32.078125 72.90625 
Q 44.578125 72.90625 50.734375 67.671875 
Q 56.890625 62.453125 56.890625 51.90625 
Q 56.890625 45.015625 53.6875 40.46875 
Q 50.484375 35.9375 44.390625 34.1875 
z
M 19.671875 64.796875 
L 19.671875 38.921875 
L 32.078125 38.921875 
Q 39.203125 38.921875 42.84375 42.21875 
Q 46.484375 45.515625 46.484375 51.90625 
Q 46.484375 58.296875 42.84375 61.546875 
Q 39.203125 64.796875 32.078125 64.796875 
z
" id="DejaVuSans-82"/>
       <path d="M 56.203125 29.59375 
L 56.203125 25.203125 
L 14.890625 25.203125 
Q 15.484375 15.921875 20.484375 11.0625 
Q 25.484375 6.203125 34.421875 6.203125 
Q 39.59375 6.203125 44.453125 7.46875 
Q 49.3125 8.734375 54.109375 11.28125 
L 54.109375 2.78125 
Q 49.265625 0.734375 44.1875 -0.34375 
Q 39.109375 -1.421875 33.890625 -1.421875 
Q 20.796875 -1.421875 13.15625 6.1875 
Q 5.515625 13.8125 5.515625 26.8125 
Q 5.515625 40.234375 12.765625 48.109375 
Q 20.015625 56 32.328125 56 
Q 43.359375 56 49.78125 48.890625 
Q 56.203125 41.796875 56.203125 29.59375 
z
M 47.21875 32.234375 
Q 47.125 39.59375 43.09375 43.984375 
Q 39.0625 48.390625 32.421875 48.390625 
Q 24.90625 48.390625 20.390625 44.140625 
Q 15.875 39.890625 15.1875 32.171875 
z
" id="DejaVuSans-101"/>
       <path d="M 48.78125 52.59375 
L 48.78125 44.1875 
Q 44.96875 46.296875 41.140625 47.34375 
Q 37.3125 48.390625 33.40625 48.390625 
Q 24.65625 48.390625 19.8125 42.84375 
Q 14.984375 37.3125 14.984375 27.296875 
Q 14.984375 17.28125 19.8125 11.734375 
Q 24.65625 6.203125 33.40625 6.203125 
Q 37.3125 6.203125 41.140625 7.25 
Q 44.96875 8.296875 48.78125 10.40625 
L 48.78125 2.09375 
Q 45.015625 0.34375 40.984375 -0.53125 
Q 36.96875 -1.421875 32.421875 -1.421875 
Q 20.0625 -1.421875 12.78125 6.34375 
Q 5.515625 14.109375 5.515625 27.296875 
Q 5.515625 40.671875 12.859375 48.328125 
Q 20.21875 56 33.015625 56 
Q 37.15625 56 41.109375 55.140625 
Q 45.0625 54.296875 48.78125 52.59375 
z
" id="DejaVuSans-99"/>
       <path d="M 34.28125 27.484375 
Q 23.390625 27.484375 19.1875 25 
Q 14.984375 22.515625 14.984375 16.5 
Q 14.984375 11.71875 18.140625 8.90625 
Q 21.296875 6.109375 26.703125 6.109375 
Q 34.1875 6.109375 38.703125 11.40625 
Q 43.21875 16.703125 43.21875 25.484375 
L 43.21875 27.484375 
z
M 52.203125 31.203125 
L 52.203125 0 
L 43.21875 0 
L 43.21875 8.296875 
Q 40.140625 3.328125 35.546875 0.953125 
Q 30.953125 -1.421875 24.3125 -1.421875 
Q 15.921875 -1.421875 10.953125 3.296875 
Q 6 8.015625 6 15.921875 
Q 6 25.140625 12.171875 29.828125 
Q 18.359375 34.515625 30.609375 34.515625 
L 43.21875 34.515625 
L 43.21875 35.40625 
Q 43.21875 41.609375 39.140625 45 
Q 35.0625 48.390625 27.6875 48.390625 
Q 23 48.390625 18.546875 47.265625 
Q 14.109375 46.140625 10.015625 43.890625 
L 10.015625 52.203125 
Q 14.9375 54.109375 19.578125 55.046875 
Q 24.21875 56 28.609375 56 
Q 40.484375 56 46.34375 49.84375 
Q 52.203125 43.703125 52.203125 31.203125 
z
" id="DejaVuSans-97"/>
       <path d="M 9.421875 75.984375 
L 18.40625 75.984375 
L 18.40625 0 
L 9.421875 0 
z
" id="DejaVuSans-108"/>
      </defs>
      <use xlink:href="#DejaVuSans-82"/>
      <use x="64.982422" xlink:href="#DejaVuSans-101"/>
      <use x="126.505859" xlink:href="#DejaVuSans-99"/>
      <use x="181.486328" xlink:href="#DejaVuSans-97"/>
      <use x="242.765625" xlink:href="#DejaVuSans-108"/>
      <use x="270.548828" xlink:href="#DejaVuSans-108"/>
     </g>
    </g>
   </g>
   <g id="matplotlib.axis_2">
    <g id="ytick_1">
     <g id="line2d_7">
      <defs>
       <path d="M 0 0 
L -6 0 
" id="m592a182d4d" style="stroke:#262626;stroke-width:1.25;"/>
      </defs>
      <g>
       <use style="fill:#262626;stroke:#262626;stroke-width:1.25;" x="64.360781" xlink:href="#m592a182d4d" y="224.64"/>
      </g>
     </g>
     <g id="text_8">
      <!-- 0.0 -->
      <g style="fill:#262626;" transform="translate(28.620625 230.908711)scale(0.165 -0.165)">
       <use xlink:href="#DejaVuSans-48"/>
       <use x="63.623047" xlink:href="#DejaVuSans-46"/>
       <use x="95.410156" xlink:href="#DejaVuSans-48"/>
      </g>
     </g>
    </g>
    <g id="ytick_2">
     <g id="line2d_8">
      <g>
       <use style="fill:#262626;stroke:#262626;stroke-width:1.25;" x="64.360781" xlink:href="#m592a182d4d" y="182.864126"/>
      </g>
     </g>
     <g id="text_9">
      <!-- 0.2 -->
      <g style="fill:#262626;" transform="translate(28.620625 189.132837)scale(0.165 -0.165)">
       <use xlink:href="#DejaVuSans-48"/>
       <use x="63.623047" xlink:href="#DejaVuSans-46"/>
       <use x="95.410156" xlink:href="#DejaVuSans-50"/>
      </g>
     </g>
    </g>
    <g id="ytick_3">
     <g id="line2d_9">
      <g>
       <use style="fill:#262626;stroke:#262626;stroke-width:1.25;" x="64.360781" xlink:href="#m592a182d4d" y="141.088252"/>
      </g>
     </g>
     <g id="text_10">
      <!-- 0.4 -->
      <g style="fill:#262626;" transform="translate(28.620625 147.356963)scale(0.165 -0.165)">
       <use xlink:href="#DejaVuSans-48"/>
       <use x="63.623047" xlink:href="#DejaVuSans-46"/>
       <use x="95.410156" xlink:href="#DejaVuSans-52"/>
      </g>
     </g>
    </g>
    <g id="ytick_4">
     <g id="line2d_10">
      <g>
       <use style="fill:#262626;stroke:#262626;stroke-width:1.25;" x="64.360781" xlink:href="#m592a182d4d" y="99.312378"/>
      </g>
     </g>
     <g id="text_11">
      <!-- 0.6 -->
      <g style="fill:#262626;" transform="translate(28.620625 105.581089)scale(0.165 -0.165)">
       <use xlink:href="#DejaVuSans-48"/>
       <use x="63.623047" xlink:href="#DejaVuSans-46"/>
       <use x="95.410156" xlink:href="#DejaVuSans-54"/>
      </g>
     </g>
    </g>
    <g id="ytick_5">
     <g id="line2d_11">
      <g>
       <use style="fill:#262626;stroke:#262626;stroke-width:1.25;" x="64.360781" xlink:href="#m592a182d4d" y="57.536504"/>
      </g>
     </g>
     <g id="text_12">
      <!-- 0.8 -->
      <g style="fill:#262626;" transform="translate(28.620625 63.805215)scale(0.165 -0.165)">
       <use xlink:href="#DejaVuSans-48"/>
       <use x="63.623047" xlink:href="#DejaVuSans-46"/>
       <use x="95.410156" xlink:href="#DejaVuSans-56"/>
      </g>
     </g>
    </g>
    <g id="ytick_6">
     <g id="line2d_12">
      <g>
       <use style="fill:#262626;stroke:#262626;stroke-width:1.25;" x="64.360781" xlink:href="#m592a182d4d" y="15.76063"/>
      </g>
     </g>
     <g id="text_13">
      <!-- 1.0 -->
      <g style="fill:#262626;" transform="translate(28.620625 22.029341)scale(0.165 -0.165)">
       <use xlink:href="#DejaVuSans-49"/>
       <use x="63.623047" xlink:href="#DejaVuSans-46"/>
       <use x="95.410156" xlink:href="#DejaVuSans-48"/>
      </g>
     </g>
    </g>
    <g id="text_14">
     <!-- Precision -->
     <g style="fill:#262626;" transform="translate(20.877187 156.072656)rotate(-90)scale(0.18 -0.18)">
      <defs>
       <path d="M 19.671875 64.796875 
L 19.671875 37.40625 
L 32.078125 37.40625 
Q 38.96875 37.40625 42.71875 40.96875 
Q 46.484375 44.53125 46.484375 51.125 
Q 46.484375 57.671875 42.71875 61.234375 
Q 38.96875 64.796875 32.078125 64.796875 
z
M 9.8125 72.90625 
L 32.078125 72.90625 
Q 44.34375 72.90625 50.609375 67.359375 
Q 56.890625 61.8125 56.890625 51.125 
Q 56.890625 40.328125 50.609375 34.8125 
Q 44.34375 29.296875 32.078125 29.296875 
L 19.671875 29.296875 
L 19.671875 0 
L 9.8125 0 
z
" id="DejaVuSans-80"/>
       <path d="M 41.109375 46.296875 
Q 39.59375 47.171875 37.8125 47.578125 
Q 36.03125 48 33.890625 48 
Q 26.265625 48 22.1875 43.046875 
Q 18.109375 38.09375 18.109375 28.8125 
L 18.109375 0 
L 9.078125 0 
L 9.078125 54.6875 
L 18.109375 54.6875 
L 18.109375 46.1875 
Q 20.953125 51.171875 25.484375 53.578125 
Q 30.03125 56 36.53125 56 
Q 37.453125 56 38.578125 55.875 
Q 39.703125 55.765625 41.0625 55.515625 
z
" id="DejaVuSans-114"/>
       <path d="M 9.421875 54.6875 
L 18.40625 54.6875 
L 18.40625 0 
L 9.421875 0 
z
M 9.421875 75.984375 
L 18.40625 75.984375 
L 18.40625 64.59375 
L 9.421875 64.59375 
z
" id="DejaVuSans-105"/>
       <path d="M 44.28125 53.078125 
L 44.28125 44.578125 
Q 40.484375 46.53125 36.375 47.5 
Q 32.28125 48.484375 27.875 48.484375 
Q 21.1875 48.484375 17.84375 46.4375 
Q 14.5 44.390625 14.5 40.28125 
Q 14.5 37.15625 16.890625 35.375 
Q 19.28125 33.59375 26.515625 31.984375 
L 29.59375 31.296875 
Q 39.15625 29.25 43.1875 25.515625 
Q 47.21875 21.78125 47.21875 15.09375 
Q 47.21875 7.46875 41.1875 3.015625 
Q 35.15625 -1.421875 24.609375 -1.421875 
Q 20.21875 -1.421875 15.453125 -0.5625 
Q 10.6875 0.296875 5.421875 2 
L 5.421875 11.28125 
Q 10.40625 8.6875 15.234375 7.390625 
Q 20.0625 6.109375 24.8125 6.109375 
Q 31.15625 6.109375 34.5625 8.28125 
Q 37.984375 10.453125 37.984375 14.40625 
Q 37.984375 18.0625 35.515625 20.015625 
Q 33.0625 21.96875 24.703125 23.78125 
L 21.578125 24.515625 
Q 13.234375 26.265625 9.515625 29.90625 
Q 5.8125 33.546875 5.8125 39.890625 
Q 5.8125 47.609375 11.28125 51.796875 
Q 16.75 56 26.8125 56 
Q 31.78125 56 36.171875 55.265625 
Q 40.578125 54.546875 44.28125 53.078125 
z
" id="DejaVuSans-115"/>
       <path d="M 30.609375 48.390625 
Q 23.390625 48.390625 19.1875 42.75 
Q 14.984375 37.109375 14.984375 27.296875 
Q 14.984375 17.484375 19.15625 11.84375 
Q 23.34375 6.203125 30.609375 6.203125 
Q 37.796875 6.203125 41.984375 11.859375 
Q 46.1875 17.53125 46.1875 27.296875 
Q 46.1875 37.015625 41.984375 42.703125 
Q 37.796875 48.390625 30.609375 48.390625 
z
M 30.609375 56 
Q 42.328125 56 49.015625 48.375 
Q 55.71875 40.765625 55.71875 27.296875 
Q 55.71875 13.875 49.015625 6.21875 
Q 42.328125 -1.421875 30.609375 -1.421875 
Q 18.84375 -1.421875 12.171875 6.21875 
Q 5.515625 13.875 5.515625 27.296875 
Q 5.515625 40.765625 12.171875 48.375 
Q 18.84375 56 30.609375 56 
z
" id="DejaVuSans-111"/>
       <path d="M 54.890625 33.015625 
L 54.890625 0 
L 45.90625 0 
L 45.90625 32.71875 
Q 45.90625 40.484375 42.875 44.328125 
Q 39.84375 48.1875 33.796875 48.1875 
Q 26.515625 48.1875 22.3125 43.546875 
Q 18.109375 38.921875 18.109375 30.90625 
L 18.109375 0 
L 9.078125 0 
L 9.078125 54.6875 
L 18.109375 54.6875 
L 18.109375 46.1875 
Q 21.34375 51.125 25.703125 53.5625 
Q 30.078125 56 35.796875 56 
Q 45.21875 56 50.046875 50.171875 
Q 54.890625 44.34375 54.890625 33.015625 
z
" id="DejaVuSans-110"/>
      </defs>
      <use xlink:href="#DejaVuSans-80"/>
      <use x="58.552734" xlink:href="#DejaVuSans-114"/>
      <use x="97.416016" xlink:href="#DejaVuSans-101"/>
      <use x="158.939453" xlink:href="#DejaVuSans-99"/>
      <use x="213.919922" xlink:href="#DejaVuSans-105"/>
      <use x="241.703125" xlink:href="#DejaVuSans-115"/>
      <use x="293.802734" xlink:href="#DejaVuSans-105"/>
      <use x="321.585938" xlink:href="#DejaVuSans-111"/>
      <use x="382.767578" xlink:href="#DejaVuSans-110"/>
     </g>
    </g>
   </g>
   <g id="line2d_13">
    <path clip-path="url(#pa0f8e36e4f)" d="M 79.578963 15.76063 
L 83.531738 15.76063 
L 87.484512 15.76063 
L 91.437287 15.76063 
L 95.390061 15.76063 
L 99.342836 15.76063 
L 103.29561 15.76063 
L 107.248385 15.76063 
L 111.201159 15.76063 
L 115.153934 15.76063 
L 119.106708 15.76063 
L 123.059483 15.76063 
L 127.012257 15.76063 
L 130.965032 15.76063 
L 134.917806 15.76063 
L 138.870581 15.76063 
L 142.823355 15.76063 
L 146.77613 15.76063 
L 150.728904 15.76063 
L 154.681679 15.76063 
L 158.634453 15.76063 
L 162.587228 15.76063 
L 166.540002 15.76063 
L 170.492777 15.76063 
L 174.445551 15.76063 
L 178.398326 15.76063 
L 182.3511 15.76063 
L 186.303875 15.76063 
L 190.256649 15.76063 
L 194.209424 15.76063 
L 198.162198 15.76063 
L 202.114973 15.76063 
L 206.067747 15.76063 
L 210.020522 15.76063 
L 213.973296 15.76063 
L 217.926071 15.76063 
L 221.878845 15.76063 
L 225.83162 15.76063 
L 229.784394 15.76063 
L 233.737168 15.76063 
L 237.689943 15.76063 
L 241.642717 15.76063 
L 245.595492 15.76063 
L 249.548266 15.76063 
L 253.501041 15.76063 
L 257.453815 15.76063 
L 261.40659 15.76063 
L 265.359364 15.76063 
L 269.312139 15.76063 
L 273.264913 15.76063 
L 277.217688 15.76063 
L 281.170462 15.76063 
L 285.123237 15.76063 
L 289.076011 15.76063 
L 293.028786 15.76063 
L 296.98156 15.76063 
L 300.934335 15.76063 
L 304.887109 15.76063 
L 308.839884 15.76063 
L 312.792658 15.76063 
L 316.745433 15.76063 
L 320.698207 15.76063 
L 324.650982 15.76063 
L 328.603756 15.76063 
L 332.556531 15.76063 
L 336.509305 15.76063 
L 340.46208 15.76063 
L 344.414854 15.76063 
L 348.367629 15.76063 
L 352.320403 15.76063 
L 356.273178 15.76063 
L 360.225952 15.76063 
L 364.178727 15.76063 
L 368.131501 15.76063 
L 372.084276 15.76063 
L 376.03705 15.76063 
L 379.989825 15.76063 
L 383.942599 15.76063 
" style="fill:none;stroke:#56b4e9;stroke-linecap:round;stroke-width:2;"/>
   </g>
   <g id="line2d_14">
    <path clip-path="url(#pa0f8e36e4f)" d="M 79.578963 15.76063 
L 82.033509 15.76063 
L 84.488054 15.76063 
L 86.942599 15.76063 
L 89.397145 15.76063 
L 91.85169 15.76063 
L 94.306236 15.76063 
L 96.760781 15.76063 
L 99.215327 15.76063 
L 101.669872 15.76063 
L 104.124418 15.76063 
L 106.578963 15.76063 
L 109.033509 15.76063 
L 111.488054 15.76063 
L 113.942599 15.76063 
L 116.397145 15.76063 
L 118.85169 15.76063 
L 121.306236 15.76063 
L 123.760781 15.76063 
L 126.215327 15.76063 
L 128.669872 15.76063 
L 131.124418 15.76063 
L 133.578963 15.76063 
L 136.033509 15.76063 
L 138.488054 15.76063 
L 140.942599 15.76063 
L 143.397145 15.76063 
L 145.85169 15.76063 
L 148.306236 15.76063 
L 150.760781 15.76063 
L 153.215327 15.76063 
L 155.669872 15.76063 
L 158.124418 15.76063 
L 160.578963 15.76063 
L 163.033509 15.76063 
L 165.488054 15.76063 
L 167.942599 15.76063 
L 170.397145 15.76063 
L 172.85169 15.76063 
L 175.306236 15.76063 
L 177.760781 15.76063 
L 180.215327 15.76063 
L 182.669872 15.76063 
L 185.124418 15.76063 
L 187.578963 15.76063 
L 190.033509 15.76063 
L 192.488054 15.76063 
L 194.942599 15.76063 
L 197.397145 15.76063 
L 199.85169 15.76063 
L 202.306236 15.76063 
L 204.760781 15.76063 
L 207.215327 15.76063 
L 209.669872 15.76063 
L 212.124418 15.76063 
L 214.578963 15.76063 
L 217.033509 15.76063 
L 219.488054 15.76063 
L 221.942599 15.76063 
L 224.397145 15.76063 
L 226.85169 15.76063 
L 229.306236 15.76063 
L 231.760781 15.76063 
L 234.215327 15.76063 
L 236.669872 15.76063 
L 239.124418 15.76063 
L 241.578963 15.76063 
L 244.033509 15.76063 
L 246.488054 15.76063 
L 248.942599 15.76063 
L 251.397145 15.76063 
L 253.85169 15.76063 
L 256.306236 15.76063 
L 258.760781 15.76063 
L 261.215327 15.76063 
L 263.669872 15.76063 
L 266.124418 15.76063 
L 268.578963 15.76063 
L 271.033509 15.76063 
L 273.488054 15.76063 
L 275.942599 15.76063 
L 278.397145 15.76063 
L 280.85169 15.76063 
L 283.306236 15.76063 
L 285.760781 15.76063 
L 288.215327 15.76063 
L 290.669872 15.76063 
L 293.124418 15.76063 
L 295.578963 15.76063 
L 298.033509 15.76063 
L 300.488054 15.76063 
L 302.942599 15.76063 
L 305.397145 15.76063 
L 307.85169 15.76063 
L 310.306236 15.76063 
L 312.760781 15.76063 
L 315.215327 15.76063 
L 317.669872 15.76063 
L 320.124418 15.76063 
L 322.578963 15.76063 
L 325.033509 16.794686 
L 327.488054 17.808467 
L 329.942599 17.788585 
L 332.397145 17.769085 
L 334.85169 17.749957 
L 337.306236 17.73119 
L 339.760781 17.712774 
L 342.215327 17.694698 
L 344.669872 17.676954 
L 347.124418 18.591878 
L 349.578963 19.490619 
L 352.033509 20.357533 
L 354.488054 21.209657 
L 356.942599 21.162683 
L 359.397145 21.116511 
L 361.85169 21.071122 
L 364.306236 21.874886 
L 366.760781 22.665733 
L 369.215327 25.046591 
L 371.669872 27.365039 
L 374.124418 28.044628 
L 376.578963 30.21384 
L 379.033509 45.454209 
L 381.488054 64.946284 
L 383.942599 71.379397 
" style="fill:none;stroke:#007d5b;stroke-linecap:round;stroke-width:2;"/>
   </g>
   <g id="line2d_15">
    <path clip-path="url(#pa0f8e36e4f)" d="M 79.578963 15.76063 
L 93.413674 15.76063 
L 107.248385 15.76063 
L 121.083095 15.76063 
L 134.917806 15.76063 
L 148.752517 15.76063 
L 162.587228 15.76063 
L 176.421938 15.76063 
L 190.256649 15.76063 
L 204.09136 15.76063 
L 217.926071 15.76063 
L 231.760781 15.76063 
L 245.595492 23.794452 
L 259.430203 30.680585 
L 273.264913 35.778236 
L 287.099624 45.454266 
L 300.934335 48.741583 
L 314.769046 47.092535 
L 328.603756 45.60054 
L 342.438467 44.24418 
L 356.273178 136.744057 
L 370.107889 182.057797 
L 383.942599 186.973228 
" style="fill:none;stroke:#000000;stroke-linecap:round;stroke-width:2;"/>
   </g>
   <g id="line2d_16">
    <path clip-path="url(#pa0f8e36e4f)" d="M 79.578963 15.76063 
L 102.99155 15.76063 
L 126.404138 15.76063 
L 149.816725 15.76063 
L 173.229313 15.76063 
L 196.6419 15.76063 
L 220.054488 15.76063 
L 243.467075 15.76063 
L 266.879662 15.76063 
L 290.29225 15.76063 
L 313.704837 15.76063 
L 337.117425 15.76063 
L 360.530012 49.317026 
L 383.942599 73.782677 
" style="fill:none;stroke:#d55e00;stroke-linecap:round;stroke-width:2;"/>
   </g>
   <g id="line2d_17">
    <path clip-path="url(#pa0f8e36e4f)" d="M 79.578963 15.76063 
L 83.691985 15.76063 
L 87.805007 15.76063 
L 91.918029 15.76063 
L 96.031052 15.76063 
L 100.144074 15.76063 
L 104.257096 15.76063 
L 108.370118 15.76063 
L 112.48314 15.76063 
L 116.596162 15.76063 
L 120.709184 15.76063 
L 124.822206 15.76063 
L 128.935228 15.76063 
L 133.048251 15.76063 
L 137.161273 15.76063 
L 141.274295 15.76063 
L 145.387317 15.76063 
L 149.500339 15.76063 
L 153.613361 15.76063 
L 157.726383 15.76063 
L 161.839405 15.76063 
L 165.952427 15.76063 
L 170.06545 15.76063 
L 174.178472 15.76063 
L 178.291494 15.76063 
L 182.404516 15.76063 
L 190.63056 15.76063 
L 194.743582 15.76063 
L 198.856604 15.76063 
L 202.969626 15.76063 
L 207.082649 15.76063 
L 211.195671 15.76063 
L 215.308693 15.76063 
L 219.421715 15.76063 
L 223.534737 15.76063 
L 227.647759 15.76063 
L 231.760781 15.76063 
L 235.873803 15.76063 
L 239.986825 15.76063 
L 244.099848 15.76063 
L 248.21287 15.76063 
L 252.325892 15.76063 
L 256.438914 15.76063 
L 260.551936 15.76063 
L 264.664958 15.76063 
L 268.77798 15.76063 
L 272.891002 17.936457 
L 277.004024 20.023474 
L 281.117047 19.938217 
L 285.230069 19.856304 
L 289.343091 19.777541 
L 293.456113 19.70175 
L 297.569135 19.628766 
L 301.682157 19.558437 
L 305.795179 19.490619 
L 309.908201 19.42518 
L 314.021224 21.101642 
L 318.134246 22.723276 
L 322.247268 22.609134 
L 326.36029 22.498674 
L 330.473312 22.391721 
L 334.586334 22.28811 
L 338.699356 23.721417 
L 342.812378 25.113438 
L 346.9254 26.422738 
L 351.038423 27.696594 
L 355.151445 27.528482 
L 359.264467 32.626648 
L 363.377489 37.462383 
L 367.490511 37.184155 
L 371.603533 41.492365 
L 375.716555 54.524906 
L 379.829577 76.854603 
L 383.942599 89.051637 
" style="fill:none;stroke:#ccbb44;stroke-linecap:round;stroke-width:2;"/>
   </g>
   <g id="line2d_18"/>
   <g id="line2d_19"/>
   <g id="line2d_20"/>
   <g id="line2d_21"/>
   <g id="line2d_22"/>
   <g id="patch_3">
    <path d="M 64.360781 224.64 
L 64.360781 7.2 
" style="fill:none;stroke:#262626;stroke-linecap:square;stroke-linejoin:miter;stroke-width:1.25;"/>
   </g>
   <g id="patch_4">
    <path d="M 399.160781 224.64 
L 399.160781 7.2 
" style="fill:none;stroke:#262626;stroke-linecap:square;stroke-linejoin:miter;stroke-width:1.25;"/>
   </g>
   <g id="patch_5">
    <path d="M 64.360781 224.64 
L 399.160781 224.64 
" style="fill:none;stroke:#262626;stroke-linecap:square;stroke-linejoin:miter;stroke-width:1.25;"/>
   </g>
   <g id="patch_6">
    <path d="M 64.360781 7.2 
L 399.160781 7.2 
" style="fill:none;stroke:#262626;stroke-linecap:square;stroke-linejoin:miter;stroke-width:1.25;"/>
   </g>
   <g id="legend_1">
    <g id="patch_7">
     <path d="M 71.008781 213.768 
L 349.670578 213.768 
Q 352.970578 213.768 352.970578 210.468 
L 352.970578 65.352844 
Q 352.970578 62.052844 349.670578 62.052844 
L 71.008781 62.052844 
Q 67.708781 62.052844 67.708781 65.352844 
L 67.708781 210.468 
Q 67.708781 213.768 71.008781 213.768 
z
" style="fill:#ffffff;opacity:0.8;stroke:#cccccc;stroke-linejoin:miter;"/>
    </g>
    <g id="text_15">
     <!-- Class -->
     <g style="fill:#262626;" transform="translate(186.662648 82.330031)scale(0.18 -0.18)">
      <defs>
       <path d="M 64.40625 67.28125 
L 64.40625 56.890625 
Q 59.421875 61.53125 53.78125 63.8125 
Q 48.140625 66.109375 41.796875 66.109375 
Q 29.296875 66.109375 22.65625 58.46875 
Q 16.015625 50.828125 16.015625 36.375 
Q 16.015625 21.96875 22.65625 14.328125 
Q 29.296875 6.6875 41.796875 6.6875 
Q 48.140625 6.6875 53.78125 8.984375 
Q 59.421875 11.28125 64.40625 15.921875 
L 64.40625 5.609375 
Q 59.234375 2.09375 53.4375 0.328125 
Q 47.65625 -1.421875 41.21875 -1.421875 
Q 24.65625 -1.421875 15.125 8.703125 
Q 5.609375 18.84375 5.609375 36.375 
Q 5.609375 53.953125 15.125 64.078125 
Q 24.65625 74.21875 41.21875 74.21875 
Q 47.75 74.21875 53.53125 72.484375 
Q 59.328125 70.75 64.40625 67.28125 
z
" id="DejaVuSans-67"/>
      </defs>
      <use xlink:href="#DejaVuSans-67"/>
      <use x="69.824219" xlink:href="#DejaVuSans-108"/>
      <use x="97.607422" xlink:href="#DejaVuSans-97"/>
      <use x="158.886719" xlink:href="#DejaVuSans-115"/>
      <use x="210.986328" xlink:href="#DejaVuSans-115"/>
     </g>
    </g>
    <g id="line2d_23">
     <path d="M 74.308781 101.085891 
L 107.308781 101.085891 
" style="fill:none;stroke:#56b4e9;stroke-linecap:round;stroke-width:2;"/>
    </g>
    <g id="line2d_24"/>
    <g id="text_16">
     <!-- normal (AUC = 1.0) -->
     <g style="fill:#262626;" transform="translate(120.508781 106.860891)scale(0.165 -0.165)">
      <defs>
       <path d="M 52 44.1875 
Q 55.375 50.25 60.0625 53.125 
Q 64.75 56 71.09375 56 
Q 79.640625 56 84.28125 50.015625 
Q 88.921875 44.046875 88.921875 33.015625 
L 88.921875 0 
L 79.890625 0 
L 79.890625 32.71875 
Q 79.890625 40.578125 77.09375 44.375 
Q 74.3125 48.1875 68.609375 48.1875 
Q 61.625 48.1875 57.5625 43.546875 
Q 53.515625 38.921875 53.515625 30.90625 
L 53.515625 0 
L 44.484375 0 
L 44.484375 32.71875 
Q 44.484375 40.625 41.703125 44.40625 
Q 38.921875 48.1875 33.109375 48.1875 
Q 26.21875 48.1875 22.15625 43.53125 
Q 18.109375 38.875 18.109375 30.90625 
L 18.109375 0 
L 9.078125 0 
L 9.078125 54.6875 
L 18.109375 54.6875 
L 18.109375 46.1875 
Q 21.1875 51.21875 25.484375 53.609375 
Q 29.78125 56 35.6875 56 
Q 41.65625 56 45.828125 52.96875 
Q 50 49.953125 52 44.1875 
z
" id="DejaVuSans-109"/>
       <path id="DejaVuSans-32"/>
       <path d="M 31 75.875 
Q 24.46875 64.65625 21.28125 53.65625 
Q 18.109375 42.671875 18.109375 31.390625 
Q 18.109375 20.125 21.3125 9.0625 
Q 24.515625 -2 31 -13.1875 
L 23.1875 -13.1875 
Q 15.875 -1.703125 12.234375 9.375 
Q 8.59375 20.453125 8.59375 31.390625 
Q 8.59375 42.28125 12.203125 53.3125 
Q 15.828125 64.359375 23.1875 75.875 
z
" id="DejaVuSans-40"/>
       <path d="M 34.1875 63.1875 
L 20.796875 26.90625 
L 47.609375 26.90625 
z
M 28.609375 72.90625 
L 39.796875 72.90625 
L 67.578125 0 
L 57.328125 0 
L 50.6875 18.703125 
L 17.828125 18.703125 
L 11.1875 0 
L 0.78125 0 
z
" id="DejaVuSans-65"/>
       <path d="M 8.6875 72.90625 
L 18.609375 72.90625 
L 18.609375 28.609375 
Q 18.609375 16.890625 22.84375 11.734375 
Q 27.09375 6.59375 36.625 6.59375 
Q 46.09375 6.59375 50.34375 11.734375 
Q 54.59375 16.890625 54.59375 28.609375 
L 54.59375 72.90625 
L 64.5 72.90625 
L 64.5 27.390625 
Q 64.5 13.140625 57.4375 5.859375 
Q 50.390625 -1.421875 36.625 -1.421875 
Q 22.796875 -1.421875 15.734375 5.859375 
Q 8.6875 13.140625 8.6875 27.390625 
z
" id="DejaVuSans-85"/>
       <path d="M 10.59375 45.40625 
L 73.1875 45.40625 
L 73.1875 37.203125 
L 10.59375 37.203125 
z
M 10.59375 25.484375 
L 73.1875 25.484375 
L 73.1875 17.1875 
L 10.59375 17.1875 
z
" id="DejaVuSans-61"/>
       <path d="M 8.015625 75.875 
L 15.828125 75.875 
Q 23.140625 64.359375 26.78125 53.3125 
Q 30.421875 42.28125 30.421875 31.390625 
Q 30.421875 20.453125 26.78125 9.375 
Q 23.140625 -1.703125 15.828125 -13.1875 
L 8.015625 -13.1875 
Q 14.5 -2 17.703125 9.0625 
Q 20.90625 20.125 20.90625 31.390625 
Q 20.90625 42.671875 17.703125 53.65625 
Q 14.5 64.65625 8.015625 75.875 
z
" id="DejaVuSans-41"/>
      </defs>
      <use xlink:href="#DejaVuSans-110"/>
      <use x="63.378906" xlink:href="#DejaVuSans-111"/>
      <use x="124.560547" xlink:href="#DejaVuSans-114"/>
      <use x="163.923828" xlink:href="#DejaVuSans-109"/>
      <use x="261.335938" xlink:href="#DejaVuSans-97"/>
      <use x="322.615234" xlink:href="#DejaVuSans-108"/>
      <use x="350.398438" xlink:href="#DejaVuSans-32"/>
      <use x="382.185547" xlink:href="#DejaVuSans-40"/>
      <use x="421.199219" xlink:href="#DejaVuSans-65"/>
      <use x="489.607422" xlink:href="#DejaVuSans-85"/>
      <use x="562.800781" xlink:href="#DejaVuSans-67"/>
      <use x="632.625" xlink:href="#DejaVuSans-32"/>
      <use x="664.412109" xlink:href="#DejaVuSans-61"/>
      <use x="748.201172" xlink:href="#DejaVuSans-32"/>
      <use x="779.988281" xlink:href="#DejaVuSans-49"/>
      <use x="843.611328" xlink:href="#DejaVuSans-46"/>
      <use x="875.398438" xlink:href="#DejaVuSans-48"/>
      <use x="939.021484" xlink:href="#DejaVuSans-41"/>
     </g>
    </g>
    <g id="line2d_25">
     <path d="M 74.308781 125.304797 
L 107.308781 125.304797 
" style="fill:none;stroke:#007d5b;stroke-linecap:round;stroke-width:2;"/>
    </g>
    <g id="line2d_26"/>
    <g id="text_17">
     <!-- ccRCC (AUC = 0.992) -->
     <g style="fill:#262626;" transform="translate(120.508781 131.079797)scale(0.165 -0.165)">
      <defs>
       <path d="M 10.984375 1.515625 
L 10.984375 10.5 
Q 14.703125 8.734375 18.5 7.8125 
Q 22.3125 6.890625 25.984375 6.890625 
Q 35.75 6.890625 40.890625 13.453125 
Q 46.046875 20.015625 46.78125 33.40625 
Q 43.953125 29.203125 39.59375 26.953125 
Q 35.25 24.703125 29.984375 24.703125 
Q 19.046875 24.703125 12.671875 31.3125 
Q 6.296875 37.9375 6.296875 49.421875 
Q 6.296875 60.640625 12.9375 67.421875 
Q 19.578125 74.21875 30.609375 74.21875 
Q 43.265625 74.21875 49.921875 64.515625 
Q 56.59375 54.828125 56.59375 36.375 
Q 56.59375 19.140625 48.40625 8.859375 
Q 40.234375 -1.421875 26.421875 -1.421875 
Q 22.703125 -1.421875 18.890625 -0.6875 
Q 15.09375 0.046875 10.984375 1.515625 
z
M 30.609375 32.421875 
Q 37.25 32.421875 41.125 36.953125 
Q 45.015625 41.5 45.015625 49.421875 
Q 45.015625 57.28125 41.125 61.84375 
Q 37.25 66.40625 30.609375 66.40625 
Q 23.96875 66.40625 20.09375 61.84375 
Q 16.21875 57.28125 16.21875 49.421875 
Q 16.21875 41.5 20.09375 36.953125 
Q 23.96875 32.421875 30.609375 32.421875 
z
" id="DejaVuSans-57"/>
      </defs>
      <use xlink:href="#DejaVuSans-99"/>
      <use x="54.980469" xlink:href="#DejaVuSans-99"/>
      <use x="109.960938" xlink:href="#DejaVuSans-82"/>
      <use x="174.443359" xlink:href="#DejaVuSans-67"/>
      <use x="244.267578" xlink:href="#DejaVuSans-67"/>
      <use x="314.091797" xlink:href="#DejaVuSans-32"/>
      <use x="345.878906" xlink:href="#DejaVuSans-40"/>
      <use x="384.892578" xlink:href="#DejaVuSans-65"/>
      <use x="453.300781" xlink:href="#DejaVuSans-85"/>
      <use x="526.494141" xlink:href="#DejaVuSans-67"/>
      <use x="596.318359" xlink:href="#DejaVuSans-32"/>
      <use x="628.105469" xlink:href="#DejaVuSans-61"/>
      <use x="711.894531" xlink:href="#DejaVuSans-32"/>
      <use x="743.681641" xlink:href="#DejaVuSans-48"/>
      <use x="807.304688" xlink:href="#DejaVuSans-46"/>
      <use x="839.091797" xlink:href="#DejaVuSans-57"/>
      <use x="902.714844" xlink:href="#DejaVuSans-57"/>
      <use x="966.337891" xlink:href="#DejaVuSans-50"/>
      <use x="1029.960938" xlink:href="#DejaVuSans-41"/>
     </g>
    </g>
    <g id="line2d_27">
     <path d="M 74.308781 149.523703 
L 107.308781 149.523703 
" style="fill:none;stroke:#000000;stroke-linecap:round;stroke-width:2;"/>
    </g>
    <g id="line2d_28"/>
    <g id="text_18">
     <!-- chRCC (AUC = 0.882) -->
     <g style="fill:#262626;" transform="translate(120.508781 155.298703)scale(0.165 -0.165)">
      <defs>
       <path d="M 54.890625 33.015625 
L 54.890625 0 
L 45.90625 0 
L 45.90625 32.71875 
Q 45.90625 40.484375 42.875 44.328125 
Q 39.84375 48.1875 33.796875 48.1875 
Q 26.515625 48.1875 22.3125 43.546875 
Q 18.109375 38.921875 18.109375 30.90625 
L 18.109375 0 
L 9.078125 0 
L 9.078125 75.984375 
L 18.109375 75.984375 
L 18.109375 46.1875 
Q 21.34375 51.125 25.703125 53.5625 
Q 30.078125 56 35.796875 56 
Q 45.21875 56 50.046875 50.171875 
Q 54.890625 44.34375 54.890625 33.015625 
z
" id="DejaVuSans-104"/>
      </defs>
      <use xlink:href="#DejaVuSans-99"/>
      <use x="54.980469" xlink:href="#DejaVuSans-104"/>
      <use x="118.359375" xlink:href="#DejaVuSans-82"/>
      <use x="182.841797" xlink:href="#DejaVuSans-67"/>
      <use x="252.666016" xlink:href="#DejaVuSans-67"/>
      <use x="322.490234" xlink:href="#DejaVuSans-32"/>
      <use x="354.277344" xlink:href="#DejaVuSans-40"/>
      <use x="393.291016" xlink:href="#DejaVuSans-65"/>
      <use x="461.699219" xlink:href="#DejaVuSans-85"/>
      <use x="534.892578" xlink:href="#DejaVuSans-67"/>
      <use x="604.716797" xlink:href="#DejaVuSans-32"/>
      <use x="636.503906" xlink:href="#DejaVuSans-61"/>
      <use x="720.292969" xlink:href="#DejaVuSans-32"/>
      <use x="752.080078" xlink:href="#DejaVuSans-48"/>
      <use x="815.703125" xlink:href="#DejaVuSans-46"/>
      <use x="847.490234" xlink:href="#DejaVuSans-56"/>
      <use x="911.113281" xlink:href="#DejaVuSans-56"/>
      <use x="974.736328" xlink:href="#DejaVuSans-50"/>
      <use x="1038.359375" xlink:href="#DejaVuSans-41"/>
     </g>
    </g>
    <g id="line2d_29">
     <path d="M 74.308781 173.742609 
L 107.308781 173.742609 
" style="fill:none;stroke:#d55e00;stroke-linecap:round;stroke-width:2;"/>
    </g>
    <g id="line2d_30"/>
    <g id="text_19">
     <!-- oncocytoma (AUC = 0.978) -->
     <g style="fill:#262626;" transform="translate(120.508781 179.517609)scale(0.165 -0.165)">
      <defs>
       <path d="M 32.171875 -5.078125 
Q 28.375 -14.84375 24.75 -17.8125 
Q 21.140625 -20.796875 15.09375 -20.796875 
L 7.90625 -20.796875 
L 7.90625 -13.28125 
L 13.1875 -13.28125 
Q 16.890625 -13.28125 18.9375 -11.515625 
Q 21 -9.765625 23.484375 -3.21875 
L 25.09375 0.875 
L 2.984375 54.6875 
L 12.5 54.6875 
L 29.59375 11.921875 
L 46.6875 54.6875 
L 56.203125 54.6875 
z
" id="DejaVuSans-121"/>
       <path d="M 18.3125 70.21875 
L 18.3125 54.6875 
L 36.8125 54.6875 
L 36.8125 47.703125 
L 18.3125 47.703125 
L 18.3125 18.015625 
Q 18.3125 11.328125 20.140625 9.421875 
Q 21.96875 7.515625 27.59375 7.515625 
L 36.8125 7.515625 
L 36.8125 0 
L 27.59375 0 
Q 17.1875 0 13.234375 3.875 
Q 9.28125 7.765625 9.28125 18.015625 
L 9.28125 47.703125 
L 2.6875 47.703125 
L 2.6875 54.6875 
L 9.28125 54.6875 
L 9.28125 70.21875 
z
" id="DejaVuSans-116"/>
       <path d="M 8.203125 72.90625 
L 55.078125 72.90625 
L 55.078125 68.703125 
L 28.609375 0 
L 18.3125 0 
L 43.21875 64.59375 
L 8.203125 64.59375 
z
" id="DejaVuSans-55"/>
      </defs>
      <use xlink:href="#DejaVuSans-111"/>
      <use x="61.181641" xlink:href="#DejaVuSans-110"/>
      <use x="124.560547" xlink:href="#DejaVuSans-99"/>
      <use x="179.541016" xlink:href="#DejaVuSans-111"/>
      <use x="240.722656" xlink:href="#DejaVuSans-99"/>
      <use x="295.703125" xlink:href="#DejaVuSans-121"/>
      <use x="354.882812" xlink:href="#DejaVuSans-116"/>
      <use x="394.091797" xlink:href="#DejaVuSans-111"/>
      <use x="455.273438" xlink:href="#DejaVuSans-109"/>
      <use x="552.685547" xlink:href="#DejaVuSans-97"/>
      <use x="613.964844" xlink:href="#DejaVuSans-32"/>
      <use x="645.751953" xlink:href="#DejaVuSans-40"/>
      <use x="684.765625" xlink:href="#DejaVuSans-65"/>
      <use x="753.173828" xlink:href="#DejaVuSans-85"/>
      <use x="826.367188" xlink:href="#DejaVuSans-67"/>
      <use x="896.191406" xlink:href="#DejaVuSans-32"/>
      <use x="927.978516" xlink:href="#DejaVuSans-61"/>
      <use x="1011.767578" xlink:href="#DejaVuSans-32"/>
      <use x="1043.554688" xlink:href="#DejaVuSans-48"/>
      <use x="1107.177734" xlink:href="#DejaVuSans-46"/>
      <use x="1138.964844" xlink:href="#DejaVuSans-57"/>
      <use x="1202.587891" xlink:href="#DejaVuSans-55"/>
      <use x="1266.210938" xlink:href="#DejaVuSans-56"/>
      <use x="1329.833984" xlink:href="#DejaVuSans-41"/>
     </g>
    </g>
    <g id="line2d_31">
     <path d="M 74.308781 197.961516 
L 107.308781 197.961516 
" style="fill:none;stroke:#ccbb44;stroke-linecap:round;stroke-width:2;"/>
    </g>
    <g id="line2d_32"/>
    <g id="text_20">
     <!-- pRCC (AUC = 0.977) -->
     <g style="fill:#262626;" transform="translate(120.508781 203.736516)scale(0.165 -0.165)">
      <defs>
       <path d="M 18.109375 8.203125 
L 18.109375 -20.796875 
L 9.078125 -20.796875 
L 9.078125 54.6875 
L 18.109375 54.6875 
L 18.109375 46.390625 
Q 20.953125 51.265625 25.265625 53.625 
Q 29.59375 56 35.59375 56 
Q 45.5625 56 51.78125 48.09375 
Q 58.015625 40.1875 58.015625 27.296875 
Q 58.015625 14.40625 51.78125 6.484375 
Q 45.5625 -1.421875 35.59375 -1.421875 
Q 29.59375 -1.421875 25.265625 0.953125 
Q 20.953125 3.328125 18.109375 8.203125 
z
M 48.6875 27.296875 
Q 48.6875 37.203125 44.609375 42.84375 
Q 40.53125 48.484375 33.40625 48.484375 
Q 26.265625 48.484375 22.1875 42.84375 
Q 18.109375 37.203125 18.109375 27.296875 
Q 18.109375 17.390625 22.1875 11.75 
Q 26.265625 6.109375 33.40625 6.109375 
Q 40.53125 6.109375 44.609375 11.75 
Q 48.6875 17.390625 48.6875 27.296875 
z
" id="DejaVuSans-112"/>
      </defs>
      <use xlink:href="#DejaVuSans-112"/>
      <use x="63.476562" xlink:href="#DejaVuSans-82"/>
      <use x="127.958984" xlink:href="#DejaVuSans-67"/>
      <use x="197.783203" xlink:href="#DejaVuSans-67"/>
      <use x="267.607422" xlink:href="#DejaVuSans-32"/>
      <use x="299.394531" xlink:href="#DejaVuSans-40"/>
      <use x="338.408203" xlink:href="#DejaVuSans-65"/>
      <use x="406.816406" xlink:href="#DejaVuSans-85"/>
      <use x="480.009766" xlink:href="#DejaVuSans-67"/>
      <use x="549.833984" xlink:href="#DejaVuSans-32"/>
      <use x="581.621094" xlink:href="#DejaVuSans-61"/>
      <use x="665.410156" xlink:href="#DejaVuSans-32"/>
      <use x="697.197266" xlink:href="#DejaVuSans-48"/>
      <use x="760.820312" xlink:href="#DejaVuSans-46"/>
      <use x="792.607422" xlink:href="#DejaVuSans-57"/>
      <use x="856.230469" xlink:href="#DejaVuSans-55"/>
      <use x="919.853516" xlink:href="#DejaVuSans-55"/>
      <use x="983.476562" xlink:href="#DejaVuSans-41"/>
     </g>
    </g>
   </g>
  </g>
 </g>
 <defs>
  <clipPath id="pa0f8e36e4f">
   <rect height="217.44" width="334.8" x="64.360781" y="7.2"/>
  </clipPath>
 </defs>
</svg>
