<?xml version="1.0" encoding="utf-8" standalone="no"?>
<!DOCTYPE svg PUBLIC "-//W3C//DTD SVG 1.1//EN"
  "http://www.w3.org/Graphics/SVG/1.1/DTD/svg11.dtd">
<!-- Created with matplotlib (https://matplotlib.org/) -->
<svg height="459.067148pt" version="1.1" viewBox="0 0 653.993576 459.067148" width="653.993576pt" xmlns="http://www.w3.org/2000/svg" xmlns:xlink="http://www.w3.org/1999/xlink">
 <metadata>
  <rdf:RDF xmlns:cc="http://creativecommons.org/ns#" xmlns:dc="http://purl.org/dc/elements/1.1/" xmlns:rdf="http://www.w3.org/1999/02/22-rdf-syntax-ns#">
   <cc:Work>
    <dc:type rdf:resource="http://purl.org/dc/dcmitype/StillImage"/>
    <dc:date>2021-09-06T15:43:28.404403</dc:date>
    <dc:format>image/svg+xml</dc:format>
    <dc:creator>
     <cc:Agent>
      <dc:title>Matplotlib v3.3.2, https://matplotlib.org/</dc:title>
     </cc:Agent>
    </dc:creator>
   </cc:Work>
  </rdf:RDF>
 </metadata>
 <defs>
  <style type="text/css">*{stroke-linecap:butt;stroke-linejoin:round;}</style>
 </defs>
 <g id="figure_1">
  <g id="patch_1">
   <path d="M 0 459.067148 
L 653.993576 459.067148 
L 653.993576 0 
L 0 0 
z
" style="fill:#ffffff;"/>
  </g>
  <g id="axes_1">
   <g id="patch_2">
    <path d="M 108.474258 291.115057 
L 362.110621 291.115057 
L 362.110621 37.478693 
L 108.474258 37.478693 
z
" style="fill:#eaeaf2;"/>
   </g>
   <g id="matplotlib.axis_1">
    <g id="xtick_1">
     <g id="text_1">
      <!-- normal -->
      <g style="fill:#262626;" transform="translate(139.149691 368.065252)rotate(-90)scale(0.1925 -0.1925)">
       <defs>
        <path d="M 54.890625 33.015625 
L 54.890625 0 
L 45.90625 0 
L 45.90625 32.71875 
Q 45.90625 40.484375 42.875 44.328125 
Q 39.84375 48.1875 33.796875 48.1875 
Q 26.515625 48.1875 22.3125 43.546875 
Q 18.109375 38.921875 18.109375 30.90625 
L 18.109375 0 
L 9.078125 0 
L 9.078125 54.6875 
L 18.109375 54.6875 
L 18.109375 46.1875 
Q 21.34375 51.125 25.703125 53.5625 
Q 30.078125 56 35.796875 56 
Q 45.21875 56 50.046875 50.171875 
Q 54.890625 44.34375 54.890625 33.015625 
z
" id="DejaVuSans-110"/>
        <path d="M 30.609375 48.390625 
Q 23.390625 48.390625 19.1875 42.75 
Q 14.984375 37.109375 14.984375 27.296875 
Q 14.984375 17.484375 19.15625 11.84375 
Q 23.34375 6.203125 30.609375 6.203125 
Q 37.796875 6.203125 41.984375 11.859375 
Q 46.1875 17.53125 46.1875 27.296875 
Q 46.1875 37.015625 41.984375 42.703125 
Q 37.796875 48.390625 30.609375 48.390625 
z
M 30.609375 56 
Q 42.328125 56 49.015625 48.375 
Q 55.71875 40.765625 55.71875 27.296875 
Q 55.71875 13.875 49.015625 6.21875 
Q 42.328125 -1.421875 30.609375 -1.421875 
Q 18.84375 -1.421875 12.171875 6.21875 
Q 5.515625 13.875 5.515625 27.296875 
Q 5.515625 40.765625 12.171875 48.375 
Q 18.84375 56 30.609375 56 
z
" id="DejaVuSans-111"/>
        <path d="M 41.109375 46.296875 
Q 39.59375 47.171875 37.8125 47.578125 
Q 36.03125 48 33.890625 48 
Q 26.265625 48 22.1875 43.046875 
Q 18.109375 38.09375 18.109375 28.8125 
L 18.109375 0 
L 9.078125 0 
L 9.078125 54.6875 
L 18.109375 54.6875 
L 18.109375 46.1875 
Q 20.953125 51.171875 25.484375 53.578125 
Q 30.03125 56 36.53125 56 
Q 37.453125 56 38.578125 55.875 
Q 39.703125 55.765625 41.0625 55.515625 
z
" id="DejaVuSans-114"/>
        <path d="M 52 44.1875 
Q 55.375 50.25 60.0625 53.125 
Q 64.75 56 71.09375 56 
Q 79.640625 56 84.28125 50.015625 
Q 88.921875 44.046875 88.921875 33.015625 
L 88.921875 0 
L 79.890625 0 
L 79.890625 32.71875 
Q 79.890625 40.578125 77.09375 44.375 
Q 74.3125 48.1875 68.609375 48.1875 
Q 61.625 48.1875 57.5625 43.546875 
Q 53.515625 38.921875 53.515625 30.90625 
L 53.515625 0 
L 44.484375 0 
L 44.484375 32.71875 
Q 44.484375 40.625 41.703125 44.40625 
Q 38.921875 48.1875 33.109375 48.1875 
Q 26.21875 48.1875 22.15625 43.53125 
Q 18.109375 38.875 18.109375 30.90625 
L 18.109375 0 
L 9.078125 0 
L 9.078125 54.6875 
L 18.109375 54.6875 
L 18.109375 46.1875 
Q 21.1875 51.21875 25.484375 53.609375 
Q 29.78125 56 35.6875 56 
Q 41.65625 56 45.828125 52.96875 
Q 50 49.953125 52 44.1875 
z
" id="DejaVuSans-109"/>
        <path d="M 34.28125 27.484375 
Q 23.390625 27.484375 19.1875 25 
Q 14.984375 22.515625 14.984375 16.5 
Q 14.984375 11.71875 18.140625 8.90625 
Q 21.296875 6.109375 26.703125 6.109375 
Q 34.1875 6.109375 38.703125 11.40625 
Q 43.21875 16.703125 43.21875 25.484375 
L 43.21875 27.484375 
z
M 52.203125 31.203125 
L 52.203125 0 
L 43.21875 0 
L 43.21875 8.296875 
Q 40.140625 3.328125 35.546875 0.953125 
Q 30.953125 -1.421875 24.3125 -1.421875 
Q 15.921875 -1.421875 10.953125 3.296875 
Q 6 8.015625 6 15.921875 
Q 6 25.140625 12.171875 29.828125 
Q 18.359375 34.515625 30.609375 34.515625 
L 43.21875 34.515625 
L 43.21875 35.40625 
Q 43.21875 41.609375 39.140625 45 
Q 35.0625 48.390625 27.6875 48.390625 
Q 23 48.390625 18.546875 47.265625 
Q 14.109375 46.140625 10.015625 43.890625 
L 10.015625 52.203125 
Q 14.9375 54.109375 19.578125 55.046875 
Q 24.21875 56 28.609375 56 
Q 40.484375 56 46.34375 49.84375 
Q 52.203125 43.703125 52.203125 31.203125 
z
" id="DejaVuSans-97"/>
        <path d="M 9.421875 75.984375 
L 18.40625 75.984375 
L 18.40625 0 
L 9.421875 0 
z
" id="DejaVuSans-108"/>
       </defs>
       <use xlink:href="#DejaVuSans-110"/>
       <use x="63.378906" xlink:href="#DejaVuSans-111"/>
       <use x="124.560547" xlink:href="#DejaVuSans-114"/>
       <use x="163.923828" xlink:href="#DejaVuSans-109"/>
       <use x="261.335938" xlink:href="#DejaVuSans-97"/>
       <use x="322.615234" xlink:href="#DejaVuSans-108"/>
      </g>
     </g>
    </g>
    <g id="xtick_2">
     <g id="text_2">
      <!-- ccRCC -->
      <g style="fill:#262626;" transform="translate(189.876964 361.081112)rotate(-90)scale(0.1925 -0.1925)">
       <defs>
        <path d="M 48.78125 52.59375 
L 48.78125 44.1875 
Q 44.96875 46.296875 41.140625 47.34375 
Q 37.3125 48.390625 33.40625 48.390625 
Q 24.65625 48.390625 19.8125 42.84375 
Q 14.984375 37.3125 14.984375 27.296875 
Q 14.984375 17.28125 19.8125 11.734375 
Q 24.65625 6.203125 33.40625 6.203125 
Q 37.3125 6.203125 41.140625 7.25 
Q 44.96875 8.296875 48.78125 10.40625 
L 48.78125 2.09375 
Q 45.015625 0.34375 40.984375 -0.53125 
Q 36.96875 -1.421875 32.421875 -1.421875 
Q 20.0625 -1.421875 12.78125 6.34375 
Q 5.515625 14.109375 5.515625 27.296875 
Q 5.515625 40.671875 12.859375 48.328125 
Q 20.21875 56 33.015625 56 
Q 37.15625 56 41.109375 55.140625 
Q 45.0625 54.296875 48.78125 52.59375 
z
" id="DejaVuSans-99"/>
        <path d="M 44.390625 34.1875 
Q 47.5625 33.109375 50.5625 29.59375 
Q 53.5625 26.078125 56.59375 19.921875 
L 66.609375 0 
L 56 0 
L 46.6875 18.703125 
Q 43.0625 26.03125 39.671875 28.421875 
Q 36.28125 30.8125 30.421875 30.8125 
L 19.671875 30.8125 
L 19.671875 0 
L 9.8125 0 
L 9.8125 72.90625 
L 32.078125 72.90625 
Q 44.578125 72.90625 50.734375 67.671875 
Q 56.890625 62.453125 56.890625 51.90625 
Q 56.890625 45.015625 53.6875 40.46875 
Q 50.484375 35.9375 44.390625 34.1875 
z
M 19.671875 64.796875 
L 19.671875 38.921875 
L 32.078125 38.921875 
Q 39.203125 38.921875 42.84375 42.21875 
Q 46.484375 45.515625 46.484375 51.90625 
Q 46.484375 58.296875 42.84375 61.546875 
Q 39.203125 64.796875 32.078125 64.796875 
z
" id="DejaVuSans-82"/>
        <path d="M 64.40625 67.28125 
L 64.40625 56.890625 
Q 59.421875 61.53125 53.78125 63.8125 
Q 48.140625 66.109375 41.796875 66.109375 
Q 29.296875 66.109375 22.65625 58.46875 
Q 16.015625 50.828125 16.015625 36.375 
Q 16.015625 21.96875 22.65625 14.328125 
Q 29.296875 6.6875 41.796875 6.6875 
Q 48.140625 6.6875 53.78125 8.984375 
Q 59.421875 11.28125 64.40625 15.921875 
L 64.40625 5.609375 
Q 59.234375 2.09375 53.4375 0.328125 
Q 47.65625 -1.421875 41.21875 -1.421875 
Q 24.65625 -1.421875 15.125 8.703125 
Q 5.609375 18.84375 5.609375 36.375 
Q 5.609375 53.953125 15.125 64.078125 
Q 24.65625 74.21875 41.21875 74.21875 
Q 47.75 74.21875 53.53125 72.484375 
Q 59.328125 70.75 64.40625 67.28125 
z
" id="DejaVuSans-67"/>
       </defs>
       <use xlink:href="#DejaVuSans-99"/>
       <use x="54.980469" xlink:href="#DejaVuSans-99"/>
       <use x="109.960938" xlink:href="#DejaVuSans-82"/>
       <use x="174.443359" xlink:href="#DejaVuSans-67"/>
       <use x="244.267578" xlink:href="#DejaVuSans-67"/>
      </g>
     </g>
    </g>
    <g id="xtick_3">
     <g id="text_3">
      <!-- chRCC -->
      <g style="fill:#262626;" transform="translate(240.604237 362.696307)rotate(-90)scale(0.1925 -0.1925)">
       <defs>
        <path d="M 54.890625 33.015625 
L 54.890625 0 
L 45.90625 0 
L 45.90625 32.71875 
Q 45.90625 40.484375 42.875 44.328125 
Q 39.84375 48.1875 33.796875 48.1875 
Q 26.515625 48.1875 22.3125 43.546875 
Q 18.109375 38.921875 18.109375 30.90625 
L 18.109375 0 
L 9.078125 0 
L 9.078125 75.984375 
L 18.109375 75.984375 
L 18.109375 46.1875 
Q 21.34375 51.125 25.703125 53.5625 
Q 30.078125 56 35.796875 56 
Q 45.21875 56 50.046875 50.171875 
Q 54.890625 44.34375 54.890625 33.015625 
z
" id="DejaVuSans-104"/>
       </defs>
       <use xlink:href="#DejaVuSans-99"/>
       <use x="54.980469" xlink:href="#DejaVuSans-104"/>
       <use x="118.359375" xlink:href="#DejaVuSans-82"/>
       <use x="182.841797" xlink:href="#DejaVuSans-67"/>
       <use x="252.666016" xlink:href="#DejaVuSans-67"/>
      </g>
     </g>
    </g>
    <g id="xtick_4">
     <g id="text_4">
      <!-- onc -->
      <g style="fill:#262626;" transform="translate(291.331509 335.17783)rotate(-90)scale(0.1925 -0.1925)">
       <use xlink:href="#DejaVuSans-111"/>
       <use x="61.181641" xlink:href="#DejaVuSans-110"/>
       <use x="124.560547" xlink:href="#DejaVuSans-99"/>
      </g>
     </g>
    </g>
    <g id="xtick_5">
     <g id="text_5">
      <!-- pRCC -->
      <g style="fill:#262626;" transform="translate(342.058782 352.132869)rotate(-90)scale(0.1925 -0.1925)">
       <defs>
        <path d="M 18.109375 8.203125 
L 18.109375 -20.796875 
L 9.078125 -20.796875 
L 9.078125 54.6875 
L 18.109375 54.6875 
L 18.109375 46.390625 
Q 20.953125 51.265625 25.265625 53.625 
Q 29.59375 56 35.59375 56 
Q 45.5625 56 51.78125 48.09375 
Q 58.015625 40.1875 58.015625 27.296875 
Q 58.015625 14.40625 51.78125 6.484375 
Q 45.5625 -1.421875 35.59375 -1.421875 
Q 29.59375 -1.421875 25.265625 0.953125 
Q 20.953125 3.328125 18.109375 8.203125 
z
M 48.6875 27.296875 
Q 48.6875 37.203125 44.609375 42.84375 
Q 40.53125 48.484375 33.40625 48.484375 
Q 26.265625 48.484375 22.1875 42.84375 
Q 18.109375 37.203125 18.109375 27.296875 
Q 18.109375 17.390625 22.1875 11.75 
Q 26.265625 6.109375 33.40625 6.109375 
Q 40.53125 6.109375 44.609375 11.75 
Q 48.6875 17.390625 48.6875 27.296875 
z
" id="DejaVuSans-112"/>
       </defs>
       <use xlink:href="#DejaVuSans-112"/>
       <use x="63.476562" xlink:href="#DejaVuSans-82"/>
       <use x="127.958984" xlink:href="#DejaVuSans-67"/>
       <use x="197.783203" xlink:href="#DejaVuSans-67"/>
      </g>
     </g>
    </g>
    <g id="text_6">
     <!-- Predicted label -->
     <g style="fill:#262626;" transform="translate(157.272518 388.021971)scale(0.21 -0.21)">
      <defs>
       <path d="M 19.671875 64.796875 
L 19.671875 37.40625 
L 32.078125 37.40625 
Q 38.96875 37.40625 42.71875 40.96875 
Q 46.484375 44.53125 46.484375 51.125 
Q 46.484375 57.671875 42.71875 61.234375 
Q 38.96875 64.796875 32.078125 64.796875 
z
M 9.8125 72.90625 
L 32.078125 72.90625 
Q 44.34375 72.90625 50.609375 67.359375 
Q 56.890625 61.8125 56.890625 51.125 
Q 56.890625 40.328125 50.609375 34.8125 
Q 44.34375 29.296875 32.078125 29.296875 
L 19.671875 29.296875 
L 19.671875 0 
L 9.8125 0 
z
" id="DejaVuSans-80"/>
       <path d="M 56.203125 29.59375 
L 56.203125 25.203125 
L 14.890625 25.203125 
Q 15.484375 15.921875 20.484375 11.0625 
Q 25.484375 6.203125 34.421875 6.203125 
Q 39.59375 6.203125 44.453125 7.46875 
Q 49.3125 8.734375 54.109375 11.28125 
L 54.109375 2.78125 
Q 49.265625 0.734375 44.1875 -0.34375 
Q 39.109375 -1.421875 33.890625 -1.421875 
Q 20.796875 -1.421875 13.15625 6.1875 
Q 5.515625 13.8125 5.515625 26.8125 
Q 5.515625 40.234375 12.765625 48.109375 
Q 20.015625 56 32.328125 56 
Q 43.359375 56 49.78125 48.890625 
Q 56.203125 41.796875 56.203125 29.59375 
z
M 47.21875 32.234375 
Q 47.125 39.59375 43.09375 43.984375 
Q 39.0625 48.390625 32.421875 48.390625 
Q 24.90625 48.390625 20.390625 44.140625 
Q 15.875 39.890625 15.1875 32.171875 
z
" id="DejaVuSans-101"/>
       <path d="M 45.40625 46.390625 
L 45.40625 75.984375 
L 54.390625 75.984375 
L 54.390625 0 
L 45.40625 0 
L 45.40625 8.203125 
Q 42.578125 3.328125 38.25 0.953125 
Q 33.9375 -1.421875 27.875 -1.421875 
Q 17.96875 -1.421875 11.734375 6.484375 
Q 5.515625 14.40625 5.515625 27.296875 
Q 5.515625 40.1875 11.734375 48.09375 
Q 17.96875 56 27.875 56 
Q 33.9375 56 38.25 53.625 
Q 42.578125 51.265625 45.40625 46.390625 
z
M 14.796875 27.296875 
Q 14.796875 17.390625 18.875 11.75 
Q 22.953125 6.109375 30.078125 6.109375 
Q 37.203125 6.109375 41.296875 11.75 
Q 45.40625 17.390625 45.40625 27.296875 
Q 45.40625 37.203125 41.296875 42.84375 
Q 37.203125 48.484375 30.078125 48.484375 
Q 22.953125 48.484375 18.875 42.84375 
Q 14.796875 37.203125 14.796875 27.296875 
z
" id="DejaVuSans-100"/>
       <path d="M 9.421875 54.6875 
L 18.40625 54.6875 
L 18.40625 0 
L 9.421875 0 
z
M 9.421875 75.984375 
L 18.40625 75.984375 
L 18.40625 64.59375 
L 9.421875 64.59375 
z
" id="DejaVuSans-105"/>
       <path d="M 18.3125 70.21875 
L 18.3125 54.6875 
L 36.8125 54.6875 
L 36.8125 47.703125 
L 18.3125 47.703125 
L 18.3125 18.015625 
Q 18.3125 11.328125 20.140625 9.421875 
Q 21.96875 7.515625 27.59375 7.515625 
L 36.8125 7.515625 
L 36.8125 0 
L 27.59375 0 
Q 17.1875 0 13.234375 3.875 
Q 9.28125 7.765625 9.28125 18.015625 
L 9.28125 47.703125 
L 2.6875 47.703125 
L 2.6875 54.6875 
L 9.28125 54.6875 
L 9.28125 70.21875 
z
" id="DejaVuSans-116"/>
       <path id="DejaVuSans-32"/>
       <path d="M 48.6875 27.296875 
Q 48.6875 37.203125 44.609375 42.84375 
Q 40.53125 48.484375 33.40625 48.484375 
Q 26.265625 48.484375 22.1875 42.84375 
Q 18.109375 37.203125 18.109375 27.296875 
Q 18.109375 17.390625 22.1875 11.75 
Q 26.265625 6.109375 33.40625 6.109375 
Q 40.53125 6.109375 44.609375 11.75 
Q 48.6875 17.390625 48.6875 27.296875 
z
M 18.109375 46.390625 
Q 20.953125 51.265625 25.265625 53.625 
Q 29.59375 56 35.59375 56 
Q 45.5625 56 51.78125 48.09375 
Q 58.015625 40.1875 58.015625 27.296875 
Q 58.015625 14.40625 51.78125 6.484375 
Q 45.5625 -1.421875 35.59375 -1.421875 
Q 29.59375 -1.421875 25.265625 0.953125 
Q 20.953125 3.328125 18.109375 8.203125 
L 18.109375 0 
L 9.078125 0 
L 9.078125 75.984375 
L 18.109375 75.984375 
z
" id="DejaVuSans-98"/>
      </defs>
      <use xlink:href="#DejaVuSans-80"/>
      <use x="58.552734" xlink:href="#DejaVuSans-114"/>
      <use x="97.416016" xlink:href="#DejaVuSans-101"/>
      <use x="158.939453" xlink:href="#DejaVuSans-100"/>
      <use x="222.416016" xlink:href="#DejaVuSans-105"/>
      <use x="250.199219" xlink:href="#DejaVuSans-99"/>
      <use x="305.179688" xlink:href="#DejaVuSans-116"/>
      <use x="344.388672" xlink:href="#DejaVuSans-101"/>
      <use x="405.912109" xlink:href="#DejaVuSans-100"/>
      <use x="469.388672" xlink:href="#DejaVuSans-32"/>
      <use x="501.175781" xlink:href="#DejaVuSans-108"/>
      <use x="528.958984" xlink:href="#DejaVuSans-97"/>
      <use x="590.238281" xlink:href="#DejaVuSans-98"/>
      <use x="653.714844" xlink:href="#DejaVuSans-101"/>
      <use x="715.238281" xlink:href="#DejaVuSans-108"/>
     </g>
    </g>
   </g>
   <g id="matplotlib.axis_2">
    <g id="ytick_1">
     <g id="text_7">
      <!-- normal -->
      <g style="fill:#262626;" transform="translate(31.524062 70.155826)scale(0.1925 -0.1925)">
       <use xlink:href="#DejaVuSans-110"/>
       <use x="63.378906" xlink:href="#DejaVuSans-111"/>
       <use x="124.560547" xlink:href="#DejaVuSans-114"/>
       <use x="163.923828" xlink:href="#DejaVuSans-109"/>
       <use x="261.335938" xlink:href="#DejaVuSans-97"/>
       <use x="322.615234" xlink:href="#DejaVuSans-108"/>
      </g>
     </g>
    </g>
    <g id="ytick_2">
     <g id="text_8">
      <!-- ccRCC -->
      <g style="fill:#262626;" transform="translate(38.508203 120.883098)scale(0.1925 -0.1925)">
       <use xlink:href="#DejaVuSans-99"/>
       <use x="54.980469" xlink:href="#DejaVuSans-99"/>
       <use x="109.960938" xlink:href="#DejaVuSans-82"/>
       <use x="174.443359" xlink:href="#DejaVuSans-67"/>
       <use x="244.267578" xlink:href="#DejaVuSans-67"/>
      </g>
     </g>
    </g>
    <g id="ytick_3">
     <g id="text_9">
      <!-- chRCC -->
      <g style="fill:#262626;" transform="translate(36.893008 171.610371)scale(0.1925 -0.1925)">
       <use xlink:href="#DejaVuSans-99"/>
       <use x="54.980469" xlink:href="#DejaVuSans-104"/>
       <use x="118.359375" xlink:href="#DejaVuSans-82"/>
       <use x="182.841797" xlink:href="#DejaVuSans-67"/>
       <use x="252.666016" xlink:href="#DejaVuSans-67"/>
      </g>
     </g>
    </g>
    <g id="ytick_4">
     <g id="text_10">
      <!-- onc -->
      <g style="fill:#262626;" transform="translate(64.411484 222.337644)scale(0.1925 -0.1925)">
       <use xlink:href="#DejaVuSans-111"/>
       <use x="61.181641" xlink:href="#DejaVuSans-110"/>
       <use x="124.560547" xlink:href="#DejaVuSans-99"/>
      </g>
     </g>
    </g>
    <g id="ytick_5">
     <g id="text_11">
      <!-- pRCC -->
      <g style="fill:#262626;" transform="translate(47.456445 273.064917)scale(0.1925 -0.1925)">
       <use xlink:href="#DejaVuSans-112"/>
       <use x="63.476562" xlink:href="#DejaVuSans-82"/>
       <use x="127.958984" xlink:href="#DejaVuSans-67"/>
       <use x="197.783203" xlink:href="#DejaVuSans-67"/>
      </g>
     </g>
    </g>
    <g id="text_12">
     <!-- True label -->
     <g style="fill:#262626;" transform="translate(23.156719 215.325234)rotate(-90)scale(0.21 -0.21)">
      <defs>
       <path d="M -0.296875 72.90625 
L 61.375 72.90625 
L 61.375 64.59375 
L 35.5 64.59375 
L 35.5 0 
L 25.59375 0 
L 25.59375 64.59375 
L -0.296875 64.59375 
z
" id="DejaVuSans-84"/>
       <path d="M 8.5 21.578125 
L 8.5 54.6875 
L 17.484375 54.6875 
L 17.484375 21.921875 
Q 17.484375 14.15625 20.5 10.265625 
Q 23.53125 6.390625 29.59375 6.390625 
Q 36.859375 6.390625 41.078125 11.03125 
Q 45.3125 15.671875 45.3125 23.6875 
L 45.3125 54.6875 
L 54.296875 54.6875 
L 54.296875 0 
L 45.3125 0 
L 45.3125 8.40625 
Q 42.046875 3.421875 37.71875 1 
Q 33.40625 -1.421875 27.6875 -1.421875 
Q 18.265625 -1.421875 13.375 4.4375 
Q 8.5 10.296875 8.5 21.578125 
z
M 31.109375 56 
z
" id="DejaVuSans-117"/>
      </defs>
      <use xlink:href="#DejaVuSans-84"/>
      <use x="46.333984" xlink:href="#DejaVuSans-114"/>
      <use x="87.447266" xlink:href="#DejaVuSans-117"/>
      <use x="150.826172" xlink:href="#DejaVuSans-101"/>
      <use x="212.349609" xlink:href="#DejaVuSans-32"/>
      <use x="244.136719" xlink:href="#DejaVuSans-108"/>
      <use x="271.919922" xlink:href="#DejaVuSans-97"/>
      <use x="333.199219" xlink:href="#DejaVuSans-98"/>
      <use x="396.675781" xlink:href="#DejaVuSans-101"/>
      <use x="458.199219" xlink:href="#DejaVuSans-108"/>
     </g>
    </g>
   </g>
   <g id="QuadMesh_1">
    <path clip-path="url(#p5051901c78)" d="M 108.474258 37.478693 
L 159.201531 37.478693 
L 159.201531 88.205966 
L 108.474258 88.205966 
L 108.474258 37.478693 
" style="fill:#e1edf8;stroke:#000000;stroke-width:2;"/>
    <path clip-path="url(#p5051901c78)" d="M 159.201531 37.478693 
L 209.928803 37.478693 
L 209.928803 88.205966 
L 159.201531 88.205966 
L 159.201531 37.478693 
" style="fill:#f7fbff;stroke:#000000;stroke-width:2;"/>
    <path clip-path="url(#p5051901c78)" d="M 209.928803 37.478693 
L 260.656076 37.478693 
L 260.656076 88.205966 
L 209.928803 88.205966 
L 209.928803 37.478693 
" style="fill:#f7fbff;stroke:#000000;stroke-width:2;"/>
    <path clip-path="url(#p5051901c78)" d="M 260.656076 37.478693 
L 311.383349 37.478693 
L 311.383349 88.205966 
L 260.656076 88.205966 
L 260.656076 37.478693 
" style="fill:#f7fbff;stroke:#000000;stroke-width:2;"/>
    <path clip-path="url(#p5051901c78)" d="M 311.383349 37.478693 
L 362.110621 37.478693 
L 362.110621 88.205966 
L 311.383349 88.205966 
L 311.383349 37.478693 
" style="fill:#f7fbff;stroke:#000000;stroke-width:2;"/>
    <path clip-path="url(#p5051901c78)" d="M 108.474258 88.205966 
L 159.201531 88.205966 
L 159.201531 138.933239 
L 108.474258 138.933239 
L 108.474258 88.205966 
" style="fill:#f7fbff;stroke:#000000;stroke-width:2;"/>
    <path clip-path="url(#p5051901c78)" d="M 159.201531 88.205966 
L 209.928803 88.205966 
L 209.928803 138.933239 
L 159.201531 138.933239 
L 159.201531 88.205966 
" style="fill:#08306b;stroke:#000000;stroke-width:2;"/>
    <path clip-path="url(#p5051901c78)" d="M 209.928803 88.205966 
L 260.656076 88.205966 
L 260.656076 138.933239 
L 209.928803 138.933239 
L 209.928803 88.205966 
" style="fill:#eef5fc;stroke:#000000;stroke-width:2;"/>
    <path clip-path="url(#p5051901c78)" d="M 260.656076 88.205966 
L 311.383349 88.205966 
L 311.383349 138.933239 
L 260.656076 138.933239 
L 260.656076 88.205966 
" style="fill:#f7fbff;stroke:#000000;stroke-width:2;"/>
    <path clip-path="url(#p5051901c78)" d="M 311.383349 88.205966 
L 362.110621 88.205966 
L 362.110621 138.933239 
L 311.383349 138.933239 
L 311.383349 88.205966 
" style="fill:#f7fbff;stroke:#000000;stroke-width:2;"/>
    <path clip-path="url(#p5051901c78)" d="M 108.474258 138.933239 
L 159.201531 138.933239 
L 159.201531 189.660511 
L 108.474258 189.660511 
L 108.474258 138.933239 
" style="fill:#f7fbff;stroke:#000000;stroke-width:2;"/>
    <path clip-path="url(#p5051901c78)" d="M 159.201531 138.933239 
L 209.928803 138.933239 
L 209.928803 189.660511 
L 159.201531 189.660511 
L 159.201531 138.933239 
" style="fill:#f7fbff;stroke:#000000;stroke-width:2;"/>
    <path clip-path="url(#p5051901c78)" d="M 209.928803 138.933239 
L 260.656076 138.933239 
L 260.656076 189.660511 
L 209.928803 189.660511 
L 209.928803 138.933239 
" style="fill:#f7fbff;stroke:#000000;stroke-width:2;"/>
    <path clip-path="url(#p5051901c78)" d="M 260.656076 138.933239 
L 311.383349 138.933239 
L 311.383349 189.660511 
L 260.656076 189.660511 
L 260.656076 138.933239 
" style="fill:#f7fbff;stroke:#000000;stroke-width:2;"/>
    <path clip-path="url(#p5051901c78)" d="M 311.383349 138.933239 
L 362.110621 138.933239 
L 362.110621 189.660511 
L 311.383349 189.660511 
L 311.383349 138.933239 
" style="fill:#f7fbff;stroke:#000000;stroke-width:2;"/>
    <path clip-path="url(#p5051901c78)" d="M 108.474258 189.660511 
L 159.201531 189.660511 
L 159.201531 240.387784 
L 108.474258 240.387784 
L 108.474258 189.660511 
" style="fill:#f7fbff;stroke:#000000;stroke-width:2;"/>
    <path clip-path="url(#p5051901c78)" d="M 159.201531 189.660511 
L 209.928803 189.660511 
L 209.928803 240.387784 
L 159.201531 240.387784 
L 159.201531 189.660511 
" style="fill:#f7fbff;stroke:#000000;stroke-width:2;"/>
    <path clip-path="url(#p5051901c78)" d="M 209.928803 189.660511 
L 260.656076 189.660511 
L 260.656076 240.387784 
L 209.928803 240.387784 
L 209.928803 189.660511 
" style="fill:#f7fbff;stroke:#000000;stroke-width:2;"/>
    <path clip-path="url(#p5051901c78)" d="M 260.656076 189.660511 
L 311.383349 189.660511 
L 311.383349 240.387784 
L 260.656076 240.387784 
L 260.656076 189.660511 
" style="fill:#f7fbff;stroke:#000000;stroke-width:2;"/>
    <path clip-path="url(#p5051901c78)" d="M 311.383349 189.660511 
L 362.110621 189.660511 
L 362.110621 240.387784 
L 311.383349 240.387784 
L 311.383349 189.660511 
" style="fill:#f7fbff;stroke:#000000;stroke-width:2;"/>
    <path clip-path="url(#p5051901c78)" d="M 108.474258 240.387784 
L 159.201531 240.387784 
L 159.201531 291.115057 
L 108.474258 291.115057 
L 108.474258 240.387784 
" style="fill:#f7fbff;stroke:#000000;stroke-width:2;"/>
    <path clip-path="url(#p5051901c78)" d="M 159.201531 240.387784 
L 209.928803 240.387784 
L 209.928803 291.115057 
L 159.201531 291.115057 
L 159.201531 240.387784 
" style="fill:#f7fbff;stroke:#000000;stroke-width:2;"/>
    <path clip-path="url(#p5051901c78)" d="M 209.928803 240.387784 
L 260.656076 240.387784 
L 260.656076 291.115057 
L 209.928803 291.115057 
L 209.928803 240.387784 
" style="fill:#f7fbff;stroke:#000000;stroke-width:2;"/>
    <path clip-path="url(#p5051901c78)" d="M 260.656076 240.387784 
L 311.383349 240.387784 
L 311.383349 291.115057 
L 260.656076 291.115057 
L 260.656076 240.387784 
" style="fill:#f7fbff;stroke:#000000;stroke-width:2;"/>
    <path clip-path="url(#p5051901c78)" d="M 311.383349 240.387784 
L 362.110621 240.387784 
L 362.110621 291.115057 
L 311.383349 291.115057 
L 311.383349 240.387784 
" style="fill:#f7fbff;stroke:#000000;stroke-width:2;"/>
   </g>
   <g id="text_13">
    <!-- 12 -->
    <g style="fill:#262626;" transform="translate(121.112894 68.36108)scale(0.2 -0.2)">
     <defs>
      <path d="M 12.40625 8.296875 
L 28.515625 8.296875 
L 28.515625 63.921875 
L 10.984375 60.40625 
L 10.984375 69.390625 
L 28.421875 72.90625 
L 38.28125 72.90625 
L 38.28125 8.296875 
L 54.390625 8.296875 
L 54.390625 0 
L 12.40625 0 
z
" id="DejaVuSans-49"/>
      <path d="M 19.1875 8.296875 
L 53.609375 8.296875 
L 53.609375 0 
L 7.328125 0 
L 7.328125 8.296875 
Q 12.9375 14.109375 22.625 23.890625 
Q 32.328125 33.6875 34.8125 36.53125 
Q 39.546875 41.84375 41.421875 45.53125 
Q 43.3125 49.21875 43.3125 52.78125 
Q 43.3125 58.59375 39.234375 62.25 
Q 35.15625 65.921875 28.609375 65.921875 
Q 23.96875 65.921875 18.8125 64.3125 
Q 13.671875 62.703125 7.8125 59.421875 
L 7.8125 69.390625 
Q 13.765625 71.78125 18.9375 73 
Q 24.125 74.21875 28.421875 74.21875 
Q 39.75 74.21875 46.484375 68.546875 
Q 53.21875 62.890625 53.21875 53.421875 
Q 53.21875 48.921875 51.53125 44.890625 
Q 49.859375 40.875 45.40625 35.40625 
Q 44.1875 33.984375 37.640625 27.21875 
Q 31.109375 20.453125 19.1875 8.296875 
z
" id="DejaVuSans-50"/>
     </defs>
     <use xlink:href="#DejaVuSans-49"/>
     <use x="63.623047" xlink:href="#DejaVuSans-50"/>
    </g>
   </g>
   <g id="text_14">
    <!-- 0 -->
    <g style="fill:#262626;" transform="translate(178.202667 68.36108)scale(0.2 -0.2)">
     <defs>
      <path d="M 31.78125 66.40625 
Q 24.171875 66.40625 20.328125 58.90625 
Q 16.5 51.421875 16.5 36.375 
Q 16.5 21.390625 20.328125 13.890625 
Q 24.171875 6.390625 31.78125 6.390625 
Q 39.453125 6.390625 43.28125 13.890625 
Q 47.125 21.390625 47.125 36.375 
Q 47.125 51.421875 43.28125 58.90625 
Q 39.453125 66.40625 31.78125 66.40625 
z
M 31.78125 74.21875 
Q 44.046875 74.21875 50.515625 64.515625 
Q 56.984375 54.828125 56.984375 36.375 
Q 56.984375 17.96875 50.515625 8.265625 
Q 44.046875 -1.421875 31.78125 -1.421875 
Q 19.53125 -1.421875 13.0625 8.265625 
Q 6.59375 17.96875 6.59375 36.375 
Q 6.59375 54.828125 13.0625 64.515625 
Q 19.53125 74.21875 31.78125 74.21875 
z
" id="DejaVuSans-48"/>
     </defs>
     <use xlink:href="#DejaVuSans-48"/>
    </g>
   </g>
   <g id="text_15">
    <!-- 0 -->
    <g style="fill:#262626;" transform="translate(228.92994 68.36108)scale(0.2 -0.2)">
     <use xlink:href="#DejaVuSans-48"/>
    </g>
   </g>
   <g id="text_16">
    <!-- 0 -->
    <g style="fill:#262626;" transform="translate(279.657212 68.36108)scale(0.2 -0.2)">
     <use xlink:href="#DejaVuSans-48"/>
    </g>
   </g>
   <g id="text_17">
    <!-- 0 -->
    <g style="fill:#262626;" transform="translate(330.384485 68.36108)scale(0.2 -0.2)">
     <use xlink:href="#DejaVuSans-48"/>
    </g>
   </g>
   <g id="text_18">
    <!-- 0 -->
    <g style="fill:#262626;" transform="translate(127.475394 119.088352)scale(0.2 -0.2)">
     <use xlink:href="#DejaVuSans-48"/>
    </g>
   </g>
   <g id="text_19">
    <!-- 108 -->
    <g style="fill:#ffffff;" transform="translate(165.477667 119.088352)scale(0.2 -0.2)">
     <defs>
      <path d="M 31.78125 34.625 
Q 24.75 34.625 20.71875 30.859375 
Q 16.703125 27.09375 16.703125 20.515625 
Q 16.703125 13.921875 20.71875 10.15625 
Q 24.75 6.390625 31.78125 6.390625 
Q 38.8125 6.390625 42.859375 10.171875 
Q 46.921875 13.96875 46.921875 20.515625 
Q 46.921875 27.09375 42.890625 30.859375 
Q 38.875 34.625 31.78125 34.625 
z
M 21.921875 38.8125 
Q 15.578125 40.375 12.03125 44.71875 
Q 8.5 49.078125 8.5 55.328125 
Q 8.5 64.0625 14.71875 69.140625 
Q 20.953125 74.21875 31.78125 74.21875 
Q 42.671875 74.21875 48.875 69.140625 
Q 55.078125 64.0625 55.078125 55.328125 
Q 55.078125 49.078125 51.53125 44.71875 
Q 48 40.375 41.703125 38.8125 
Q 48.828125 37.15625 52.796875 32.3125 
Q 56.78125 27.484375 56.78125 20.515625 
Q 56.78125 9.90625 50.3125 4.234375 
Q 43.84375 -1.421875 31.78125 -1.421875 
Q 19.734375 -1.421875 13.25 4.234375 
Q 6.78125 9.90625 6.78125 20.515625 
Q 6.78125 27.484375 10.78125 32.3125 
Q 14.796875 37.15625 21.921875 38.8125 
z
M 18.3125 54.390625 
Q 18.3125 48.734375 21.84375 45.5625 
Q 25.390625 42.390625 31.78125 42.390625 
Q 38.140625 42.390625 41.71875 45.5625 
Q 45.3125 48.734375 45.3125 54.390625 
Q 45.3125 60.0625 41.71875 63.234375 
Q 38.140625 66.40625 31.78125 66.40625 
Q 25.390625 66.40625 21.84375 63.234375 
Q 18.3125 60.0625 18.3125 54.390625 
z
" id="DejaVuSans-56"/>
     </defs>
     <use xlink:href="#DejaVuSans-49"/>
     <use x="63.623047" xlink:href="#DejaVuSans-48"/>
     <use x="127.246094" xlink:href="#DejaVuSans-56"/>
    </g>
   </g>
   <g id="text_20">
    <!-- 5 -->
    <g style="fill:#262626;" transform="translate(228.92994 119.088352)scale(0.2 -0.2)">
     <defs>
      <path d="M 10.796875 72.90625 
L 49.515625 72.90625 
L 49.515625 64.59375 
L 19.828125 64.59375 
L 19.828125 46.734375 
Q 21.96875 47.46875 24.109375 47.828125 
Q 26.265625 48.1875 28.421875 48.1875 
Q 40.625 48.1875 47.75 41.5 
Q 54.890625 34.8125 54.890625 23.390625 
Q 54.890625 11.625 47.5625 5.09375 
Q 40.234375 -1.421875 26.90625 -1.421875 
Q 22.3125 -1.421875 17.546875 -0.640625 
Q 12.796875 0.140625 7.71875 1.703125 
L 7.71875 11.625 
Q 12.109375 9.234375 16.796875 8.0625 
Q 21.484375 6.890625 26.703125 6.890625 
Q 35.15625 6.890625 40.078125 11.328125 
Q 45.015625 15.765625 45.015625 23.390625 
Q 45.015625 31 40.078125 35.4375 
Q 35.15625 39.890625 26.703125 39.890625 
Q 22.75 39.890625 18.8125 39.015625 
Q 14.890625 38.140625 10.796875 36.28125 
z
" id="DejaVuSans-53"/>
     </defs>
     <use xlink:href="#DejaVuSans-53"/>
    </g>
   </g>
   <g id="text_21">
    <!-- 0 -->
    <g style="fill:#262626;" transform="translate(279.657212 119.088352)scale(0.2 -0.2)">
     <use xlink:href="#DejaVuSans-48"/>
    </g>
   </g>
   <g id="text_22">
    <!-- 0 -->
    <g style="fill:#262626;" transform="translate(330.384485 119.088352)scale(0.2 -0.2)">
     <use xlink:href="#DejaVuSans-48"/>
    </g>
   </g>
   <g id="text_23">
    <!-- 0 -->
    <g style="fill:#262626;" transform="translate(127.475394 169.815625)scale(0.2 -0.2)">
     <use xlink:href="#DejaVuSans-48"/>
    </g>
   </g>
   <g id="text_24">
    <!-- 0 -->
    <g style="fill:#262626;" transform="translate(178.202667 169.815625)scale(0.2 -0.2)">
     <use xlink:href="#DejaVuSans-48"/>
    </g>
   </g>
   <g id="text_25">
    <!-- 0 -->
    <g style="fill:#262626;" transform="translate(228.92994 169.815625)scale(0.2 -0.2)">
     <use xlink:href="#DejaVuSans-48"/>
    </g>
   </g>
   <g id="text_26">
    <!-- 0 -->
    <g style="fill:#262626;" transform="translate(279.657212 169.815625)scale(0.2 -0.2)">
     <use xlink:href="#DejaVuSans-48"/>
    </g>
   </g>
   <g id="text_27">
    <!-- 0 -->
    <g style="fill:#262626;" transform="translate(330.384485 169.815625)scale(0.2 -0.2)">
     <use xlink:href="#DejaVuSans-48"/>
    </g>
   </g>
   <g id="text_28">
    <!-- 0 -->
    <g style="fill:#262626;" transform="translate(127.475394 220.542898)scale(0.2 -0.2)">
     <use xlink:href="#DejaVuSans-48"/>
    </g>
   </g>
   <g id="text_29">
    <!-- 0 -->
    <g style="fill:#262626;" transform="translate(178.202667 220.542898)scale(0.2 -0.2)">
     <use xlink:href="#DejaVuSans-48"/>
    </g>
   </g>
   <g id="text_30">
    <!-- 0 -->
    <g style="fill:#262626;" transform="translate(228.92994 220.542898)scale(0.2 -0.2)">
     <use xlink:href="#DejaVuSans-48"/>
    </g>
   </g>
   <g id="text_31">
    <!-- 0 -->
    <g style="fill:#262626;" transform="translate(279.657212 220.542898)scale(0.2 -0.2)">
     <use xlink:href="#DejaVuSans-48"/>
    </g>
   </g>
   <g id="text_32">
    <!-- 0 -->
    <g style="fill:#262626;" transform="translate(330.384485 220.542898)scale(0.2 -0.2)">
     <use xlink:href="#DejaVuSans-48"/>
    </g>
   </g>
   <g id="text_33">
    <!-- 0 -->
    <g style="fill:#262626;" transform="translate(127.475394 271.27017)scale(0.2 -0.2)">
     <use xlink:href="#DejaVuSans-48"/>
    </g>
   </g>
   <g id="text_34">
    <!-- 0 -->
    <g style="fill:#262626;" transform="translate(178.202667 271.27017)scale(0.2 -0.2)">
     <use xlink:href="#DejaVuSans-48"/>
    </g>
   </g>
   <g id="text_35">
    <!-- 0 -->
    <g style="fill:#262626;" transform="translate(228.92994 271.27017)scale(0.2 -0.2)">
     <use xlink:href="#DejaVuSans-48"/>
    </g>
   </g>
   <g id="text_36">
    <!-- 0 -->
    <g style="fill:#262626;" transform="translate(279.657212 271.27017)scale(0.2 -0.2)">
     <use xlink:href="#DejaVuSans-48"/>
    </g>
   </g>
   <g id="text_37">
    <!-- 0 -->
    <g style="fill:#262626;" transform="translate(330.384485 271.27017)scale(0.2 -0.2)">
     <use xlink:href="#DejaVuSans-48"/>
    </g>
   </g>
   <g id="text_38">
    <!-- Certain predictions -->
    <g style="fill:#262626;" transform="translate(140.326815 31.478693)scale(0.2 -0.2)">
     <defs>
      <path d="M 44.28125 53.078125 
L 44.28125 44.578125 
Q 40.484375 46.53125 36.375 47.5 
Q 32.28125 48.484375 27.875 48.484375 
Q 21.1875 48.484375 17.84375 46.4375 
Q 14.5 44.390625 14.5 40.28125 
Q 14.5 37.15625 16.890625 35.375 
Q 19.28125 33.59375 26.515625 31.984375 
L 29.59375 31.296875 
Q 39.15625 29.25 43.1875 25.515625 
Q 47.21875 21.78125 47.21875 15.09375 
Q 47.21875 7.46875 41.1875 3.015625 
Q 35.15625 -1.421875 24.609375 -1.421875 
Q 20.21875 -1.421875 15.453125 -0.5625 
Q 10.6875 0.296875 5.421875 2 
L 5.421875 11.28125 
Q 10.40625 8.6875 15.234375 7.390625 
Q 20.0625 6.109375 24.8125 6.109375 
Q 31.15625 6.109375 34.5625 8.28125 
Q 37.984375 10.453125 37.984375 14.40625 
Q 37.984375 18.0625 35.515625 20.015625 
Q 33.0625 21.96875 24.703125 23.78125 
L 21.578125 24.515625 
Q 13.234375 26.265625 9.515625 29.90625 
Q 5.8125 33.546875 5.8125 39.890625 
Q 5.8125 47.609375 11.28125 51.796875 
Q 16.75 56 26.8125 56 
Q 31.78125 56 36.171875 55.265625 
Q 40.578125 54.546875 44.28125 53.078125 
z
" id="DejaVuSans-115"/>
     </defs>
     <use xlink:href="#DejaVuSans-67"/>
     <use x="69.824219" xlink:href="#DejaVuSans-101"/>
     <use x="131.347656" xlink:href="#DejaVuSans-114"/>
     <use x="172.460938" xlink:href="#DejaVuSans-116"/>
     <use x="211.669922" xlink:href="#DejaVuSans-97"/>
     <use x="272.949219" xlink:href="#DejaVuSans-105"/>
     <use x="300.732422" xlink:href="#DejaVuSans-110"/>
     <use x="364.111328" xlink:href="#DejaVuSans-32"/>
     <use x="395.898438" xlink:href="#DejaVuSans-112"/>
     <use x="459.375" xlink:href="#DejaVuSans-114"/>
     <use x="498.238281" xlink:href="#DejaVuSans-101"/>
     <use x="559.761719" xlink:href="#DejaVuSans-100"/>
     <use x="623.238281" xlink:href="#DejaVuSans-105"/>
     <use x="651.021484" xlink:href="#DejaVuSans-99"/>
     <use x="706.001953" xlink:href="#DejaVuSans-116"/>
     <use x="745.210938" xlink:href="#DejaVuSans-105"/>
     <use x="772.994141" xlink:href="#DejaVuSans-111"/>
     <use x="834.175781" xlink:href="#DejaVuSans-110"/>
     <use x="897.554688" xlink:href="#DejaVuSans-115"/>
    </g>
   </g>
  </g>
  <g id="axes_2">
   <g id="patch_3">
    <path d="M 458.116076 300.196875 
L 621.196076 300.196875 
L 621.196076 28.396875 
L 458.116076 28.396875 
z
" style="fill:#eaeaf2;"/>
   </g>
   <g id="matplotlib.axis_3">
    <g id="xtick_6">
     <g id="text_39">
      <!-- first correct -->
      <g style="fill:#008000;" transform="translate(490.607873 420.823516)rotate(-90)scale(0.1925 -0.1925)">
       <defs>
        <path d="M 37.109375 75.984375 
L 37.109375 68.5 
L 28.515625 68.5 
Q 23.6875 68.5 21.796875 66.546875 
Q 19.921875 64.59375 19.921875 59.515625 
L 19.921875 54.6875 
L 34.71875 54.6875 
L 34.71875 47.703125 
L 19.921875 47.703125 
L 19.921875 0 
L 10.890625 0 
L 10.890625 47.703125 
L 2.296875 47.703125 
L 2.296875 54.6875 
L 10.890625 54.6875 
L 10.890625 58.5 
Q 10.890625 67.625 15.140625 71.796875 
Q 19.390625 75.984375 28.609375 75.984375 
z
" id="DejaVuSans-102"/>
       </defs>
       <use xlink:href="#DejaVuSans-102"/>
       <use x="35.205078" xlink:href="#DejaVuSans-105"/>
       <use x="62.988281" xlink:href="#DejaVuSans-114"/>
       <use x="104.101562" xlink:href="#DejaVuSans-115"/>
       <use x="156.201172" xlink:href="#DejaVuSans-116"/>
       <use x="195.410156" xlink:href="#DejaVuSans-32"/>
       <use x="227.197266" xlink:href="#DejaVuSans-99"/>
       <use x="282.177734" xlink:href="#DejaVuSans-111"/>
       <use x="343.359375" xlink:href="#DejaVuSans-114"/>
       <use x="382.722656" xlink:href="#DejaVuSans-114"/>
       <use x="421.585938" xlink:href="#DejaVuSans-101"/>
       <use x="483.109375" xlink:href="#DejaVuSans-99"/>
       <use x="538.089844" xlink:href="#DejaVuSans-116"/>
      </g>
     </g>
    </g>
    <g id="xtick_7">
     <g id="text_40">
      <!-- second correct -->
      <g style="fill:#008000;" transform="translate(544.967873 451.867148)rotate(-90)scale(0.1925 -0.1925)">
       <use xlink:href="#DejaVuSans-115"/>
       <use x="52.099609" xlink:href="#DejaVuSans-101"/>
       <use x="113.623047" xlink:href="#DejaVuSans-99"/>
       <use x="168.603516" xlink:href="#DejaVuSans-111"/>
       <use x="229.785156" xlink:href="#DejaVuSans-110"/>
       <use x="293.164062" xlink:href="#DejaVuSans-100"/>
       <use x="356.640625" xlink:href="#DejaVuSans-32"/>
       <use x="388.427734" xlink:href="#DejaVuSans-99"/>
       <use x="443.408203" xlink:href="#DejaVuSans-111"/>
       <use x="504.589844" xlink:href="#DejaVuSans-114"/>
       <use x="543.953125" xlink:href="#DejaVuSans-114"/>
       <use x="582.816406" xlink:href="#DejaVuSans-101"/>
       <use x="644.339844" xlink:href="#DejaVuSans-99"/>
       <use x="699.320312" xlink:href="#DejaVuSans-116"/>
      </g>
     </g>
    </g>
    <g id="xtick_8">
     <g id="text_41">
      <!-- both incorrect -->
      <g style="fill:#ff0000;" transform="translate(599.327873 444.504023)rotate(-90)scale(0.1925 -0.1925)">
       <use xlink:href="#DejaVuSans-98"/>
       <use x="63.476562" xlink:href="#DejaVuSans-111"/>
       <use x="124.658203" xlink:href="#DejaVuSans-116"/>
       <use x="163.867188" xlink:href="#DejaVuSans-104"/>
       <use x="227.246094" xlink:href="#DejaVuSans-32"/>
       <use x="259.033203" xlink:href="#DejaVuSans-105"/>
       <use x="286.816406" xlink:href="#DejaVuSans-110"/>
       <use x="350.195312" xlink:href="#DejaVuSans-99"/>
       <use x="405.175781" xlink:href="#DejaVuSans-111"/>
       <use x="466.357422" xlink:href="#DejaVuSans-114"/>
       <use x="505.720703" xlink:href="#DejaVuSans-114"/>
       <use x="544.583984" xlink:href="#DejaVuSans-101"/>
       <use x="606.107422" xlink:href="#DejaVuSans-99"/>
       <use x="661.087891" xlink:href="#DejaVuSans-116"/>
      </g>
     </g>
    </g>
   </g>
   <g id="matplotlib.axis_4"/>
   <g id="QuadMesh_2">
    <path clip-path="url(#pb5b92f4795)" d="M 458.116076 28.396875 
L 512.476076 28.396875 
L 512.476076 82.756875 
L 458.116076 82.756875 
L 458.116076 28.396875 
" style="fill:#f7fbff;stroke:#000000;stroke-width:2;"/>
    <path clip-path="url(#pb5b92f4795)" d="M 512.476076 28.396875 
L 566.836076 28.396875 
L 566.836076 82.756875 
L 512.476076 82.756875 
L 512.476076 28.396875 
" style="fill:#f7fbff;stroke:#000000;stroke-width:2;"/>
    <path clip-path="url(#pb5b92f4795)" d="M 566.836076 28.396875 
L 621.196076 28.396875 
L 621.196076 82.756875 
L 566.836076 82.756875 
L 566.836076 28.396875 
" style="fill:#f7fbff;stroke:#000000;stroke-width:2;"/>
    <path clip-path="url(#pb5b92f4795)" d="M 458.116076 82.756875 
L 512.476076 82.756875 
L 512.476076 137.116875 
L 458.116076 137.116875 
L 458.116076 82.756875 
" style="fill:#08306b;stroke:#000000;stroke-width:2;"/>
    <path clip-path="url(#pb5b92f4795)" d="M 512.476076 82.756875 
L 566.836076 82.756875 
L 566.836076 137.116875 
L 512.476076 137.116875 
L 512.476076 82.756875 
" style="fill:#8dc1dd;stroke:#000000;stroke-width:2;"/>
    <path clip-path="url(#pb5b92f4795)" d="M 566.836076 82.756875 
L 621.196076 82.756875 
L 621.196076 137.116875 
L 566.836076 137.116875 
L 566.836076 82.756875 
" style="fill:#d6e6f4;stroke:#000000;stroke-width:2;"/>
    <path clip-path="url(#pb5b92f4795)" d="M 458.116076 137.116875 
L 512.476076 137.116875 
L 512.476076 191.476875 
L 458.116076 191.476875 
L 458.116076 137.116875 
" style="fill:#f7fbff;stroke:#000000;stroke-width:2;"/>
    <path clip-path="url(#pb5b92f4795)" d="M 512.476076 137.116875 
L 566.836076 137.116875 
L 566.836076 191.476875 
L 512.476076 191.476875 
L 512.476076 137.116875 
" style="fill:#f7fbff;stroke:#000000;stroke-width:2;"/>
    <path clip-path="url(#pb5b92f4795)" d="M 566.836076 137.116875 
L 621.196076 137.116875 
L 621.196076 191.476875 
L 566.836076 191.476875 
L 566.836076 137.116875 
" style="fill:#f7fbff;stroke:#000000;stroke-width:2;"/>
    <path clip-path="url(#pb5b92f4795)" d="M 458.116076 191.476875 
L 512.476076 191.476875 
L 512.476076 245.836875 
L 458.116076 245.836875 
L 458.116076 191.476875 
" style="fill:#f7fbff;stroke:#000000;stroke-width:2;"/>
    <path clip-path="url(#pb5b92f4795)" d="M 512.476076 191.476875 
L 566.836076 191.476875 
L 566.836076 245.836875 
L 512.476076 245.836875 
L 512.476076 191.476875 
" style="fill:#f7fbff;stroke:#000000;stroke-width:2;"/>
    <path clip-path="url(#pb5b92f4795)" d="M 566.836076 191.476875 
L 621.196076 191.476875 
L 621.196076 245.836875 
L 566.836076 245.836875 
L 566.836076 191.476875 
" style="fill:#f7fbff;stroke:#000000;stroke-width:2;"/>
    <path clip-path="url(#pb5b92f4795)" d="M 458.116076 245.836875 
L 512.476076 245.836875 
L 512.476076 300.196875 
L 458.116076 300.196875 
L 458.116076 245.836875 
" style="fill:#f7fbff;stroke:#000000;stroke-width:2;"/>
    <path clip-path="url(#pb5b92f4795)" d="M 512.476076 245.836875 
L 566.836076 245.836875 
L 566.836076 300.196875 
L 512.476076 300.196875 
L 512.476076 245.836875 
" style="fill:#f7fbff;stroke:#000000;stroke-width:2;"/>
    <path clip-path="url(#pb5b92f4795)" d="M 566.836076 245.836875 
L 621.196076 245.836875 
L 621.196076 300.196875 
L 566.836076 300.196875 
L 566.836076 245.836875 
" style="fill:#f7fbff;stroke:#000000;stroke-width:2;"/>
   </g>
   <g id="text_42">
    <!-- 0 -->
    <g style="fill:#262626;" transform="translate(478.933576 61.095625)scale(0.2 -0.2)">
     <use xlink:href="#DejaVuSans-48"/>
    </g>
   </g>
   <g id="text_43">
    <!-- 0 -->
    <g style="fill:#262626;" transform="translate(533.293576 61.095625)scale(0.2 -0.2)">
     <use xlink:href="#DejaVuSans-48"/>
    </g>
   </g>
   <g id="text_44">
    <!-- 0 -->
    <g style="fill:#262626;" transform="translate(587.653576 61.095625)scale(0.2 -0.2)">
     <use xlink:href="#DejaVuSans-48"/>
    </g>
   </g>
   <g id="text_45">
    <!-- 12 -->
    <g style="fill:#ffffff;" transform="translate(472.571076 115.455625)scale(0.2 -0.2)">
     <use xlink:href="#DejaVuSans-49"/>
     <use x="63.623047" xlink:href="#DejaVuSans-50"/>
    </g>
   </g>
   <g id="text_46">
    <!-- 5 -->
    <g style="fill:#262626;" transform="translate(533.293576 115.455625)scale(0.2 -0.2)">
     <use xlink:href="#DejaVuSans-53"/>
    </g>
   </g>
   <g id="text_47">
    <!-- 2 -->
    <g style="fill:#262626;" transform="translate(587.653576 115.455625)scale(0.2 -0.2)">
     <use xlink:href="#DejaVuSans-50"/>
    </g>
   </g>
   <g id="text_48">
    <!-- 0 -->
    <g style="fill:#262626;" transform="translate(478.933576 169.815625)scale(0.2 -0.2)">
     <use xlink:href="#DejaVuSans-48"/>
    </g>
   </g>
   <g id="text_49">
    <!-- 0 -->
    <g style="fill:#262626;" transform="translate(533.293576 169.815625)scale(0.2 -0.2)">
     <use xlink:href="#DejaVuSans-48"/>
    </g>
   </g>
   <g id="text_50">
    <!-- 0 -->
    <g style="fill:#262626;" transform="translate(587.653576 169.815625)scale(0.2 -0.2)">
     <use xlink:href="#DejaVuSans-48"/>
    </g>
   </g>
   <g id="text_51">
    <!-- 0 -->
    <g style="fill:#262626;" transform="translate(478.933576 224.175625)scale(0.2 -0.2)">
     <use xlink:href="#DejaVuSans-48"/>
    </g>
   </g>
   <g id="text_52">
    <!-- 0 -->
    <g style="fill:#262626;" transform="translate(533.293576 224.175625)scale(0.2 -0.2)">
     <use xlink:href="#DejaVuSans-48"/>
    </g>
   </g>
   <g id="text_53">
    <!-- 0 -->
    <g style="fill:#262626;" transform="translate(587.653576 224.175625)scale(0.2 -0.2)">
     <use xlink:href="#DejaVuSans-48"/>
    </g>
   </g>
   <g id="text_54">
    <!-- 0 -->
    <g style="fill:#262626;" transform="translate(478.933576 278.535625)scale(0.2 -0.2)">
     <use xlink:href="#DejaVuSans-48"/>
    </g>
   </g>
   <g id="text_55">
    <!-- 0 -->
    <g style="fill:#262626;" transform="translate(533.293576 278.535625)scale(0.2 -0.2)">
     <use xlink:href="#DejaVuSans-48"/>
    </g>
   </g>
   <g id="text_56">
    <!-- 0 -->
    <g style="fill:#262626;" transform="translate(587.653576 278.535625)scale(0.2 -0.2)">
     <use xlink:href="#DejaVuSans-48"/>
    </g>
   </g>
   <g id="text_57">
    <!-- Uncertain predictions -->
    <g style="fill:#262626;" transform="translate(432.518576 22.396875)scale(0.2 -0.2)">
     <defs>
      <path d="M 8.6875 72.90625 
L 18.609375 72.90625 
L 18.609375 28.609375 
Q 18.609375 16.890625 22.84375 11.734375 
Q 27.09375 6.59375 36.625 6.59375 
Q 46.09375 6.59375 50.34375 11.734375 
Q 54.59375 16.890625 54.59375 28.609375 
L 54.59375 72.90625 
L 64.5 72.90625 
L 64.5 27.390625 
Q 64.5 13.140625 57.4375 5.859375 
Q 50.390625 -1.421875 36.625 -1.421875 
Q 22.796875 -1.421875 15.734375 5.859375 
Q 8.6875 13.140625 8.6875 27.390625 
z
" id="DejaVuSans-85"/>
     </defs>
     <use xlink:href="#DejaVuSans-85"/>
     <use x="73.193359" xlink:href="#DejaVuSans-110"/>
     <use x="136.572266" xlink:href="#DejaVuSans-99"/>
     <use x="191.552734" xlink:href="#DejaVuSans-101"/>
     <use x="253.076172" xlink:href="#DejaVuSans-114"/>
     <use x="294.189453" xlink:href="#DejaVuSans-116"/>
     <use x="333.398438" xlink:href="#DejaVuSans-97"/>
     <use x="394.677734" xlink:href="#DejaVuSans-105"/>
     <use x="422.460938" xlink:href="#DejaVuSans-110"/>
     <use x="485.839844" xlink:href="#DejaVuSans-32"/>
     <use x="517.626953" xlink:href="#DejaVuSans-112"/>
     <use x="581.103516" xlink:href="#DejaVuSans-114"/>
     <use x="619.966797" xlink:href="#DejaVuSans-101"/>
     <use x="681.490234" xlink:href="#DejaVuSans-100"/>
     <use x="744.966797" xlink:href="#DejaVuSans-105"/>
     <use x="772.75" xlink:href="#DejaVuSans-99"/>
     <use x="827.730469" xlink:href="#DejaVuSans-116"/>
     <use x="866.939453" xlink:href="#DejaVuSans-105"/>
     <use x="894.722656" xlink:href="#DejaVuSans-111"/>
     <use x="955.904297" xlink:href="#DejaVuSans-110"/>
     <use x="1019.283203" xlink:href="#DejaVuSans-115"/>
    </g>
   </g>
  </g>
 </g>
 <defs>
  <clipPath id="p5051901c78">
   <rect height="253.636364" width="253.636364" x="108.474258" y="37.478693"/>
  </clipPath>
  <clipPath id="pb5b92f4795">
   <rect height="271.8" width="163.08" x="458.116076" y="28.396875"/>
  </clipPath>
 </defs>
</svg>
